<?xml version="1.0" encoding="UTF-8" standalone="no"?>
<svg
   id="Layer_1"
   data-name="Layer 1"
   viewBox="0 0 1000 1000"
   version="1.1"
   sodipodi:docname="Loz Town Patrol Soundsystem SVG.svg"
   inkscape:version="1.3.2 (091e20e, 2023-11-25, custom)"
   xmlns:inkscape="http://www.inkscape.org/namespaces/inkscape"
   xmlns:sodipodi="http://sodipodi.sourceforge.net/DTD/sodipodi-0.dtd"
   xmlns="http://www.w3.org/2000/svg"
   xmlns:svg="http://www.w3.org/2000/svg">
  <sodipodi:namedview
     id="namedview59"
     pagecolor="#ffffff"
     bordercolor="#000000"
     borderopacity="0.25"
     inkscape:showpageshadow="2"
     inkscape:pageopacity="0.0"
     inkscape:pagecheckerboard="0"
     inkscape:deskcolor="#d1d1d1"
     inkscape:zoom="0.821"
     inkscape:cx="499.39099"
     inkscape:cy="500"
     inkscape:window-width="1920"
     inkscape:window-height="1017"
     inkscape:window-x="-8"
     inkscape:window-y="-8"
     inkscape:window-maximized="1"
     inkscape:current-layer="Layer_1" />
  <defs
     id="defs1">
    <style
       id="style1">
      .cls-1 {
        fill: #fcb72b;
      }

      .cls-2 {
        fill: #07892f;
      }

      .cls-3 {
        fill: #da131a;
      }
    </style>
  </defs>
  <g
     id="g56">
    <g
       id="g53" />
  </g>
  <g
     id="g60"
     transform="translate(3.6723691,110.24228)">
    <path
       class="cls-1"
       d="m 225.39,179.84 -5.72,8.25 2.75,3.96 -1.54,9.57 -12.21,15.06 -1.98,1.65 h -6.38 l -5.28,1.76 6.27,5.17 2.09,5.94 6.38,16.49 1.54,4.73 c 0,0 30.13,-14.29 30.46,-14.29 0.33,0 32.99,-6.27 32.99,-6.27 l 3.41,-2.97 -3.85,-5.17 -3.63,-14.51 0.88,-11.33 1.32,-3.52 -6.6,3.74 -3.74,2.75 -21.11,-6.71 -6.71,-6.38 0.44,-4.62 -9.79,-3.3 z"
       id="path1" />
    <path
       class="cls-1"
       d="m 766.73,179.84 5.72,8.25 -2.75,3.96 1.54,9.57 12.21,15.06 1.98,1.65 h 6.38 c 0,0 5.28,1.76 5.28,1.76 l -6.27,5.17 -2.09,5.94 -6.38,16.49 -1.54,4.73 c 0,0 -30.13,-14.29 -30.46,-14.29 -0.33,0 -32.99,-6.27 -32.99,-6.27 l -3.41,-2.97 3.85,-5.17 3.63,-14.51 -0.88,-11.33 -1.32,-3.52 6.6,3.74 3.74,2.75 21.11,-6.71 6.71,-6.38 -0.44,-4.62 9.79,-3.3 z"
       id="path2" />
    <circle
       class="cls-1"
       cx="495.82001"
       cy="280.16"
       r="32.73"
       id="circle2" />
    <path
       d="m 629.07,378.82 c 0,15.45 0.01,30.9 0,46.35 0,4.08 -0.08,8.16 -0.62,12.21 -0.1,0.77 -0.16,1.55 -0.18,2.32 -0.23,7.39 -1.31,14.69 -2.24,22 -0.52,4.03 -1.44,8.01 -2.2,12.01 -0.67,3.52 -1.37,7.04 -2.1,10.55 -0.3,1.42 -0.66,2.83 -1.09,4.22 -1.7,5.57 -3.25,11.19 -5.23,16.66 -1.84,5.1 -3.77,10.18 -6.18,15.08 -2.22,4.53 -4.43,9.06 -6.95,13.43 -3.35,5.81 -7.09,11.35 -11.09,16.74 -3.95,5.32 -8.49,10.11 -12.82,15.09 -1.27,1.46 -2.8,2.68 -4.23,4 -2.36,2.17 -4.7,4.36 -7.09,6.49 -1.23,1.1 -2.52,2.12 -3.82,3.13 -5.06,3.94 -10.28,7.65 -15.68,11.11 -5.23,3.36 -10.58,6.5 -16.1,9.35 -6.64,3.43 -13.44,6.55 -20.43,9.2 -4.26,1.62 -8.55,3.17 -12.8,4.82 -1.45,0.57 -2.77,0.52 -4.23,-0.01 -4.01,-1.47 -8.09,-2.73 -11.92,-4.65 -0.68,-0.34 -1.48,-0.46 -2.19,-0.77 -5.23,-2.31 -10.56,-4.44 -15.65,-7.03 -7.61,-3.88 -15.16,-7.94 -22.19,-12.8 -5.9,-4.08 -11.71,-8.29 -17.14,-13.01 -4.77,-4.15 -9.3,-8.53 -13.62,-13.14 -3.72,-3.96 -7.2,-8.14 -10.35,-12.58 -3.09,-4.35 -6.21,-8.69 -9.04,-13.21 -2.36,-3.78 -4.42,-7.76 -6.42,-11.74 -3.54,-7.03 -6.53,-14.29 -9.09,-21.73 -1.13,-3.3 -2.07,-6.66 -3.09,-10 -1.59,-5.19 -2.94,-10.45 -3.92,-15.8 -0.73,-4 -1.57,-7.98 -2.36,-11.97 -0.04,-0.19 -0.07,-0.38 -0.08,-0.58 -0.24,-4.56 -1.18,-9.03 -1.72,-13.56 -0.03,-0.29 -0.08,-0.58 -0.1,-0.87 -0.36,-6.69 -1.07,-13.34 -1.38,-20.04 -0.85,-18.46 -0.31,-36.92 -0.43,-55.38 -0.11,-16.62 -0.03,-33.24 -0.03,-49.85 0,-3.65 -0.32,-3.74 3.63,-3.76 5.93,-0.02 11.86,-0.01 17.79,-0.02 0.19,0 0.39,0 0.58,0.02 2.05,0.23 3.26,-0.53 2.24,-3.27 -1.45,-3.92 -2.42,-7.96 -3.43,-12 -0.89,-3.58 -1.49,-7.2 -1.87,-10.87 -0.2,-1.93 -0.92,-2.58 -2.86,-2.46 -4.49,0.26 -8.8,1.3 -12.93,3.15 -9.32,4.17 -14.41,11.78 -17.26,21.16 -1.9,6.25 -2.79,12.69 -2.78,19.23 0,6.24 -0.69,12.42 -1.82,18.53 -0.67,3.62 -2.12,7.05 -4.52,9.99 -1.34,1.64 -3.08,2.65 -4.96,3.47 -0.44,0.19 -0.93,0.27 -1.41,0.35 -0.94,0.15 -1.54,-0.51 -1.27,-1.37 0.08,-0.28 0.26,-0.52 0.35,-0.8 2.31,-6.99 3.55,-14.15 2.85,-21.51 -0.88,-9.31 -3.58,-18.06 -8.83,-25.91 -2.4,-3.58 -5.2,-6.76 -8.68,-9.33 -1.66,-1.22 -1.75,-1.76 -0.91,-3.7 1.05,-2.41 2.89,-4.14 5.03,-5.51 2.56,-1.63 5.37,-2.6 8.44,-2.97 2.78,-0.34 5.51,-1.03 8.26,-1.61 2.85,-0.6 5.71,-1.16 8.51,-1.93 3.37,-0.92 6.63,-2.21 9.63,-4.05 4.56,-2.79 8.35,-6.31 10.61,-11.26 0.97,-2.12 1.95,-4.23 2.86,-6.37 2.35,-5.57 5.77,-10.33 10.71,-13.87 1.78,-1.27 2.7,-2.81 3.2,-4.95 1.27,-5.48 2.95,-10.86 5.15,-16.05 1.4,-3.3 2.92,-6.56 4.53,-9.76 3.24,-6.43 7.25,-12.4 11.59,-18.12 2.34,-3.08 5.1,-5.85 7.71,-8.72 3.47,-3.83 7.59,-6.95 11.38,-10.43 0.78,-0.71 1.75,-1.2 2.59,-1.85 4.46,-3.44 9.2,-6.46 14.15,-9.13 4.35,-2.35 8.85,-4.43 13.54,-6.06 3.2,-1.12 6.39,-2.28 9.66,-3.18 3.64,-1 7.33,-1.88 11.05,-2.54 4.2,-0.74 8.45,-1.28 12.7,-1.67 2.8,-0.26 5.64,-0.03 8.45,-0.16 4.79,-0.22 9.53,0.46 14.23,1.04 7.02,0.86 13.91,2.53 20.65,4.79 5.16,1.73 10.29,3.51 15.1,6.05 4.03,2.13 7.99,4.42 11.8,6.91 3.65,2.38 7.21,4.94 10.56,7.73 3.93,3.28 7.83,6.64 11.08,10.65 0.49,0.6 1.01,1.18 1.55,1.74 3.44,3.59 6.2,7.68 9.07,11.72 4.12,5.81 7.35,12.1 10.26,18.57 1.95,4.34 3.54,8.82 4.82,13.4 0.47,1.68 0.94,3.36 1.3,5.06 0.4,1.91 1.3,3.37 3.02,4.37 1.94,1.13 3.62,2.59 5.15,4.25 2.67,2.88 4.63,6.2 6.27,9.74 1.22,2.64 2.41,5.3 3.79,7.86 3.23,5.98 8.31,9.84 14.46,12.5 3.95,1.71 8.11,2.63 12.28,3.52 3.5,0.75 7.06,1.25 10.58,1.94 2.87,0.57 5.6,1.46 8.08,3.15 1.75,1.19 3.01,2.75 4.14,4.44 1.17,1.76 0.99,2.87 -0.56,4.37 -1.4,1.35 -2.92,2.57 -4.28,3.95 -3.86,3.92 -6.73,8.57 -8.98,13.51 -1.55,3.41 -2.41,7.13 -3.23,10.83 -1.3,5.89 -0.99,11.8 -0.7,17.7 0.18,3.56 1.08,7.09 2.21,10.51 0.24,0.73 0.75,1.51 0.03,2.15 -0.78,0.7 -1.63,0.23 -2.43,-0.13 -3.97,-1.79 -6.33,-4.93 -7.82,-8.93 -2,-5.35 -2.57,-10.91 -2.78,-16.56 -0.2,-5.24 -0.56,-10.47 -0.95,-15.7 -0.13,-1.73 -0.48,-3.47 -0.91,-5.16 -1.08,-4.22 -2.15,-8.44 -4.24,-12.34 -1.72,-3.21 -3.91,-6 -6.56,-8.46 -2.51,-2.33 -5.35,-4.18 -8.51,-5.51 -4.16,-1.75 -8.5,-2.69 -13.03,-2.76 -0.29,0 -0.58,0 -0.87,0.02 -0.94,0.09 -1.43,0.48 -1.59,1.41 -0.35,2.1 -0.77,4.21 -0.94,6.33 -0.18,2.35 -0.81,4.57 -1.43,6.82 -0.8,2.89 -1.54,5.79 -2.36,8.67 -0.32,1.11 -0.82,2.17 -1.17,3.28 -0.35,1.11 0.21,1.93 1.36,2.05 0.58,0.06 1.16,0.03 1.75,0.03 5.73,0 11.47,0 17.2,0.01 0.97,0 1.95,0 2.92,0.04 1.46,0.07 1.82,0.44 1.9,1.97 0.05,0.87 0.04,1.75 0.04,2.62 0,11.66 -0.02,23.32 -0.03,34.98 0,6.03 0,12.05 0,18.08 H 629.1 Z M 497.4,469.89 v 0 c -34.51,0 -69.02,0 -103.52,0.02 -2.81,0 -5.63,0.22 -8.44,0.4 -1.25,0.08 -1.69,0.65 -1.64,1.92 0.03,0.58 0.11,1.16 0.24,1.73 0.26,1.14 0.63,2.25 0.84,3.39 1.45,7.96 3.89,15.64 6.56,23.24 2,5.68 4.38,11.21 6.98,16.65 3.07,6.41 6.7,12.49 10.44,18.52 0.68,1.1 1.6,1.66 2.86,1.69 0.87,0.02 1.75,0.03 2.62,0.03 47.34,0 94.68,-0.01 142.02,-0.02 7.78,0 15.55,0.01 23.33,0.07 1.95,0.02 3.38,-0.71 4.34,-2.38 0.54,-0.92 1.04,-1.87 1.62,-2.77 5.38,-8.36 9.66,-17.29 13.36,-26.49 2.94,-7.31 5.19,-14.85 7.19,-22.47 0.89,-3.38 1.62,-6.8 2.32,-10.23 0.43,-2.09 -0.04,-2.72 -2.09,-2.93 -2.03,-0.21 -4.07,-0.37 -6.1,-0.37 -34.31,-0.02 -68.63,-0.02 -102.94,-0.02 z m -0.57,-135.21 c 0,0 0,0.03 0,0.05 -3.01,0 -6.02,0 -9.04,0 -12.44,-0.03 -24.88,-0.08 -37.31,-0.08 -16.62,0 -33.23,0.01 -49.85,0.03 -6.51,0 -13.02,0.03 -19.53,0.06 -2.89,0.01 -3.35,0.44 -3.45,3.38 -0.08,2.43 -0.09,4.86 -0.09,7.29 0,10.78 0,21.57 0,32.35 0,7.38 0,14.76 0,22.15 0,2 0.49,2.54 2.56,2.65 1.16,0.06 2.33,0.04 3.5,0.04 23.22,0 46.45,0 69.67,0 21.47,0 42.95,0 64.42,0 19.53,0 39.06,-0.02 58.6,-0.03 11.76,0 23.51,0.03 35.27,0.01 3.36,0 3.62,-0.3 3.58,-3.68 -0.09,-6.31 -0.26,-12.61 -0.25,-18.92 0.02,-12.72 0.18,-25.44 0.18,-38.16 0,-1.55 0.12,-3.08 0.13,-4.63 0.02,-1.95 -0.68,-2.57 -2.63,-2.56 -8.84,0.03 -17.68,0.09 -26.53,0.09 -13.6,0 -27.21,-0.03 -40.81,-0.03 -16.13,0 -32.26,0 -48.39,0 z m -0.64,-24.67 c 15.63,0.26 29.81,-12.52 29.56,-29.92 -0.25,-17.02 -13.37,-29.74 -30.27,-29.52 -16.27,0.21 -29.54,13.31 -29.35,30.58 0.17,15.39 13.8,29.68 30.07,28.86 z M 390.13,279.18 c 0.14,2.96 0.2,5.1 0.36,7.22 0.16,2.12 0.43,4.24 0.65,6.36 0.09,0.87 0.11,1.75 0.29,2.6 0.7,3.32 1.51,6.61 2.18,9.93 0.83,4.1 2.34,7.98 3.67,11.93 0.34,1 0.79,1.99 1.32,2.9 0.54,0.91 1.61,1.18 2.23,0.72 0.56,-0.41 0.58,-0.97 0.2,-2.09 -1.08,-3.1 -2.28,-6.17 -3.15,-9.33 -0.93,-3.35 -1.65,-6.76 -2.27,-10.18 -0.56,-3.05 -1.1,-6.13 -1.25,-9.21 -0.4,-8.24 -0.48,-16.47 0.61,-24.7 0.56,-4.24 1.47,-8.39 2.51,-12.51 0.75,-2.98 1.71,-5.92 2.82,-8.82 2.55,-6.72 5.54,-13.21 9.27,-19.36 3.33,-5.49 7.2,-10.57 11.35,-15.45 0.81,-0.95 1.09,-2.1 0.72,-1.94 -0.59,0.24 -1.08,0.74 -1.6,1.14 -0.69,0.53 -1.49,0.98 -2.04,1.63 -2.49,2.97 -5.01,5.93 -7.33,9.03 -2.79,3.72 -5.32,7.61 -7.54,11.73 -2.08,3.85 -4.01,7.76 -5.54,11.83 -1.59,4.25 -3.05,8.56 -4.09,13 -1.15,4.9 -2.37,9.79 -2.5,14.86 -0.01,0.39 -0.03,0.78 -0.08,1.16 -0.29,2.79 -0.59,5.58 -0.8,7.56 z m 37.47,-71.56 c -0.4,0.26 -0.82,0.45 -1.14,0.75 -5.78,5.41 -10.28,11.84 -14.52,18.46 -2.25,3.51 -4.13,7.23 -5.86,11.02 -1.65,3.61 -3.2,7.26 -4.22,11.11 -0.89,3.37 -1.72,6.75 -2.73,10.09 -0.82,2.71 -1.14,5.5 -1.51,8.27 -0.51,3.84 -0.72,7.72 -0.93,11.59 -0.12,2.13 -0.22,4.31 0.1,6.39 0.41,2.6 0.47,5.21 0.66,7.82 0.06,0.77 0.08,1.56 0.24,2.31 0.49,2.37 1.12,4.71 1.53,7.09 0.96,5.46 2.81,10.65 4.61,15.86 0.33,0.95 0.82,1.76 1.63,2.35 0.41,0.3 0.86,0.47 1.33,0.13 0.49,-0.36 0.82,-0.83 0.65,-1.48 -0.08,-0.28 -0.23,-0.53 -0.34,-0.8 -0.32,-0.81 -0.69,-1.61 -0.94,-2.44 -1.55,-5.18 -3.35,-10.29 -4.08,-15.68 -0.49,-3.65 -1.15,-7.29 -1.38,-10.95 -0.28,-4.55 -0.19,-9.12 -0.23,-13.68 -0.05,-4.87 0.8,-9.65 1.51,-14.44 0.44,-2.98 1.29,-5.86 2.05,-8.77 1.05,-4.03 2.37,-7.96 3.9,-11.82 2.97,-7.51 6.79,-14.56 11.52,-21.11 2.55,-3.53 5.26,-6.94 7.89,-10.41 0.23,-0.3 0.41,-0.64 0.54,-0.98 0.05,-0.12 -0.14,-0.33 -0.29,-0.66 z m 167.7,72.95 c -0.15,-2.47 -0.33,-5.28 -0.51,-8.09 -0.09,-1.45 -0.11,-2.92 -0.32,-4.36 -0.6,-4.03 -1.43,-8 -2.37,-11.97 -1.54,-6.45 -3.8,-12.62 -6.48,-18.65 -1.38,-3.1 -3.1,-6.04 -4.72,-9.03 -3.59,-6.61 -8.16,-12.49 -13.39,-17.87 -0.91,-0.94 -1.61,-2.27 -3.1,-2.42 -0.63,-0.07 -0.05,1.27 1.95,3.52 4.13,4.67 7.67,9.78 10.76,15.15 3.34,5.8 6.36,11.79 8.37,18.21 0.55,1.76 0.96,3.57 1.66,5.27 1.88,4.54 2.46,9.38 3.24,14.15 0.8,4.87 1.35,9.82 1.19,14.8 -0.11,3.69 0,7.4 -0.32,11.07 -0.33,3.76 -0.92,7.51 -1.64,11.23 -0.62,3.22 -1.5,6.39 -2.41,9.55 -0.8,2.79 -1.81,5.53 -2.7,8.3 -0.19,0.6 -0.11,1.17 0.51,1.5 0.6,0.33 1.22,0.15 1.57,-0.33 0.57,-0.77 1.1,-1.6 1.45,-2.49 2.52,-6.42 4.35,-13.05 5.66,-19.81 1.11,-5.73 1.35,-11.56 1.6,-17.73 z m 6.17,0.62 c -0.06,0 -0.13,0 -0.19,0 0,-1.75 0.04,-3.5 -0.01,-5.25 -0.05,-1.84 0.05,-3.74 -0.34,-5.52 -0.72,-3.22 -0.5,-6.57 -1.55,-9.73 -0.43,-1.28 -0.76,-2.6 -0.99,-3.93 -1.01,-5.78 -3.13,-11.19 -5.41,-16.55 -3.17,-7.43 -7.25,-14.36 -12.01,-20.89 -2.81,-3.86 -6.02,-7.36 -9.47,-10.64 -0.28,-0.27 -0.58,-0.52 -0.9,-0.72 -0.13,-0.08 -0.48,-0.07 -0.51,-0.01 -0.1,0.24 -0.24,0.6 -0.13,0.77 0.37,0.56 0.83,1.07 1.26,1.59 1.85,2.24 3.9,4.35 5.51,6.75 3.13,4.66 6.35,9.24 8.84,14.33 1.7,3.48 3.46,6.91 4.96,10.49 2,4.75 3.39,9.69 4.69,14.66 0.59,2.24 0.76,4.58 1.15,6.88 0.91,5.27 1.61,10.55 1.49,15.92 -0.06,2.82 -0.06,5.64 -0.1,8.45 0,0.68 -0.03,1.36 -0.12,2.03 -0.73,5.38 -1.29,10.78 -2.51,16.08 -0.55,2.36 -1.18,4.7 -1.9,7.01 -0.67,2.12 -1.52,4.18 -2.27,6.28 -0.25,0.7 -0.02,1.34 0.61,1.76 0.62,0.41 1.15,0.13 1.53,-0.33 0.49,-0.59 1.01,-1.22 1.26,-1.93 1.32,-3.75 2.73,-7.47 3.79,-11.3 1.37,-4.95 2.16,-10.04 2.74,-15.13 0.41,-3.66 0.4,-7.36 0.58,-11.05 z M 436.1,215.69 c -0.28,0.2 -0.6,0.4 -0.89,0.64 -2.16,1.82 -3.99,3.95 -5.78,6.13 -3.26,3.99 -6.21,8.19 -8.74,12.67 -1.72,3.03 -3.33,6.15 -4.68,9.36 -1.5,3.57 -2.86,7.22 -3.88,10.94 -0.95,3.44 -1.99,6.89 -2.34,10.49 -0.37,3.86 -1.1,7.69 -1.34,11.55 -0.49,8 0.81,15.83 2.44,23.63 1.28,6.11 3.41,11.91 5.99,17.57 0.35,0.77 0.87,1.5 1.46,2.11 0.22,0.23 0.96,0.21 1.29,0.01 0.35,-0.21 0.6,-0.75 0.66,-1.18 0.05,-0.33 -0.26,-0.7 -0.41,-1.06 -0.93,-2.24 -2.05,-4.42 -2.75,-6.73 -2.47,-8.17 -4.61,-16.39 -4.93,-25.01 -0.34,-9.05 -0.09,-18.02 2.06,-26.87 0.25,-1.04 0.59,-2.05 0.82,-3.09 0.99,-4.36 2.34,-8.62 4.13,-12.69 3.91,-8.91 8.67,-17.32 15.14,-24.68 0.76,-0.87 1.36,-1.89 2.02,-2.84 0.1,-0.15 0.18,-0.37 0.15,-0.53 -0.02,-0.13 -0.23,-0.23 -0.45,-0.41 z m 147.62,64.16 c -0.05,0 -0.1,-0.01 -0.15,-0.02 -0.05,-0.77 -0.08,-1.55 -0.14,-2.32 -0.44,-5.6 -1.02,-11.17 -2.29,-16.68 -1.15,-5.01 -2.58,-9.92 -4.56,-14.66 -1.6,-3.84 -3.42,-7.56 -5.53,-11.18 -3.68,-6.33 -7.84,-12.23 -13.19,-17.25 -0.69,-0.64 -1.51,-1.14 -2.27,-1.71 -0.44,1.3 0.7,1.89 1.31,2.62 3.29,3.96 6.28,8.11 8.94,12.51 0.9,1.49 1.63,3.1 2.62,4.52 2.06,2.98 3.26,6.38 4.69,9.65 1.46,3.35 2.46,6.92 3.45,10.46 0.86,3.07 1.57,6.2 2.07,9.34 0.62,3.92 1.11,7.88 1.04,11.87 -0.07,3.78 -0.09,7.57 -0.14,11.35 -0.06,4.58 -0.82,9.11 -1.93,13.5 -1.44,5.7 -2.84,11.46 -5.58,16.75 -0.18,0.34 -0.41,0.74 -0.36,1.08 0.06,0.43 0.27,1 0.61,1.19 0.32,0.19 1.02,0.13 1.3,-0.11 0.49,-0.42 0.87,-1.02 1.17,-1.61 2.4,-4.66 4.09,-9.6 5.4,-14.65 1,-3.83 1.9,-7.72 2.45,-11.64 0.61,-4.31 0.76,-8.69 1.11,-13.04 z m 5.87,1.45 c -0.1,-2.34 -0.13,-5.35 -0.38,-8.35 -0.3,-3.58 -0.99,-7.1 -1.62,-10.63 -1.12,-6.26 -3.17,-12.19 -5.68,-17.97 -2.67,-6.15 -5.82,-12.05 -10.06,-17.31 -1.21,-1.51 -2.3,-3.13 -3.56,-4.6 -1.64,-1.91 -3.4,-3.72 -5.11,-5.57 -0.13,-0.14 -0.32,-0.26 -0.5,-0.29 -0.26,-0.04 -0.63,-0.07 -0.77,0.07 -0.12,0.13 -0.1,0.57 0.03,0.75 2.82,3.82 5.7,7.59 8.48,11.44 1.36,1.88 2.61,3.84 3.76,5.85 1.15,2.02 2.13,4.14 3.16,6.23 2.16,4.35 3.7,8.94 5.06,13.58 0.95,3.25 1.78,6.54 2.22,9.91 0.47,3.56 1.15,7.11 1.29,10.68 0.31,7.86 0.04,15.7 -1.41,23.49 -0.41,2.19 -0.99,4.33 -1.37,6.52 -0.31,1.8 -0.89,3.58 -1.55,5.29 -1.12,2.89 -1.83,5.93 -3.33,8.67 -0.38,0.69 -0.14,1.32 0.49,1.75 0.6,0.41 1.13,0.21 1.55,-0.25 0.45,-0.5 0.95,-1.01 1.21,-1.62 2.07,-4.71 3.78,-9.55 5.04,-14.53 0.88,-3.47 1.46,-7.01 2.06,-10.55 0.67,-3.96 0.75,-7.92 0.97,-12.57 z m -187.55,-1.27 c 0.32,4.16 0.64,8.31 0.98,12.47 0.08,0.96 0.27,1.92 0.41,2.87 0.45,3.07 1.36,6.03 2.11,9.03 1.3,5.2 3.14,10.18 5.51,14.97 0.21,0.43 0.48,0.85 0.79,1.21 0.48,0.56 1.35,0.7 1.84,0.31 0.53,-0.42 0.54,-1 0.3,-1.58 -0.7,-1.7 -1.46,-3.37 -2.1,-5.1 -2.5,-6.83 -4.62,-13.77 -5.25,-21.07 -0.16,-1.83 -0.57,-3.65 -0.59,-5.48 -0.07,-5.63 -0.02,-11.26 0.01,-16.89 0,-0.77 0.16,-1.54 0.27,-2.3 0.21,-1.33 0.45,-2.66 0.66,-4 0.1,-0.67 0.11,-1.36 0.26,-2.01 0.47,-2.07 0.91,-4.15 1.51,-6.19 1.07,-3.62 2.01,-7.3 3.42,-10.78 1.67,-4.12 3.6,-8.15 5.89,-11.99 2.74,-4.58 5.57,-9.08 9.02,-13.16 1.06,-1.26 2.03,-2.6 3,-3.93 0.13,-0.18 0.14,-0.6 0.02,-0.77 -0.09,-0.13 -0.6,-0.17 -0.73,-0.05 -1.87,1.83 -3.91,3.54 -5.52,5.58 -5.11,6.48 -9.69,13.29 -13.2,20.82 -3.05,6.55 -5.2,13.37 -6.69,20.39 -1.23,5.79 -1.76,11.69 -1.94,17.64 z m 18.27,0.25 c -0.25,7.24 1.1,14.31 2.78,21.28 1.11,4.61 2.85,9.06 4.93,13.35 0.68,1.4 1.36,2.8 2.17,4.12 0.44,0.71 1.15,1.28 1.79,1.85 0.16,0.14 0.64,0.17 0.8,0.04 0.26,-0.22 0.49,-0.6 0.52,-0.94 0.03,-0.35 -0.16,-0.74 -0.31,-1.09 -0.61,-1.42 -1.21,-2.85 -1.88,-4.25 -2.44,-5.09 -4.25,-10.36 -5.31,-15.93 -0.61,-3.24 -1.29,-6.45 -1.56,-9.75 -0.76,-9.26 -0.34,-18.39 1.82,-27.48 1.35,-5.7 3.32,-11.13 5.74,-16.42 0.89,-1.94 1.77,-3.91 2.92,-5.69 2.8,-4.3 5.51,-8.68 8.84,-12.61 0.35,-0.42 0.5,-1.02 0.7,-1.55 0.05,-0.14 -0.07,-0.48 -0.16,-0.5 -0.23,-0.06 -0.61,-0.09 -0.74,0.04 -4.23,4.42 -8.07,9.12 -11.27,14.37 -3.97,6.51 -7.07,13.4 -9,20.72 -1.76,6.66 -2.97,13.47 -2.77,20.44 z m 153.89,1.53 c 0.55,4.42 -0.29,9.32 -1.07,14.2 -0.92,5.75 -2.7,11.31 -4.93,16.7 -0.78,1.88 -1.74,3.68 -2.68,5.49 -0.38,0.72 -0.68,1.44 -0.32,2.2 0.12,0.26 0.62,0.57 0.87,0.51 0.97,-0.24 1.72,-0.8 2.15,-1.77 0.86,-1.95 1.74,-3.89 2.7,-5.79 2.27,-4.53 3.61,-9.36 4.88,-14.25 1.4,-5.4 1.76,-10.89 2.16,-16.4 0.23,-3.11 -0.27,-6.19 -0.48,-9.29 -0.45,-6.74 -2.12,-13.21 -4.4,-19.49 -2.79,-7.68 -6.67,-14.84 -11.67,-21.34 -1.3,-1.69 -2.57,-3.42 -4.02,-4.97 -1.05,-1.12 -2.36,-1.99 -3.58,-2.96 -0.11,-0.09 -0.5,-0.06 -0.51,-0.02 -0.05,0.25 -0.15,0.57 -0.04,0.76 0.33,0.59 0.68,1.2 1.15,1.67 1.81,1.78 3.15,3.91 4.61,5.97 4.25,5.96 7.67,12.35 10.26,19.19 0.65,1.72 1.04,3.53 1.64,5.27 1.97,5.72 2.8,11.66 3.26,17.66 0.16,2.03 0.02,4.08 0.02,6.69 z m -160.39,-2.57 c 0.23,2.8 0.57,5.59 0.67,8.4 0.19,5.68 1.66,11.13 3.2,16.51 1.43,5.02 3.66,9.8 6.16,14.41 0.45,0.82 1.17,1.51 1.83,2.2 0.15,0.16 0.63,0.23 0.79,0.11 0.27,-0.2 0.51,-0.57 0.57,-0.9 0.18,-0.93 -0.36,-1.67 -0.76,-2.44 -1.69,-3.28 -3.21,-6.63 -4.28,-10.17 -0.72,-2.4 -1.46,-4.81 -2.08,-7.24 -0.89,-3.47 -1.59,-6.99 -1.9,-10.57 -0.48,-5.52 -0.38,-11.05 -0.11,-16.58 0.05,-1.06 0.07,-2.14 0.25,-3.19 0.51,-2.96 1,-5.92 1.67,-8.85 0.6,-2.63 1.26,-5.27 2.16,-7.82 1,-2.82 2.2,-5.58 3.48,-8.29 1.41,-2.98 2.81,-5.99 4.6,-8.75 1.99,-3.07 4.42,-5.86 6.63,-8.8 0.64,-0.84 1.19,-1.75 1.75,-2.65 0.08,-0.13 0.07,-0.4 -0.02,-0.51 -0.08,-0.1 -0.39,-0.15 -0.49,-0.08 -0.71,0.49 -1.48,0.94 -2.06,1.56 -2.9,3.13 -5.72,6.33 -8.06,9.9 -4.7,7.16 -8.38,14.79 -10.67,23.09 -1.86,6.77 -3.01,13.61 -3.32,20.65 z m 157.94,2.23 c -0.14,-1.35 -0.3,-2.8 -0.45,-4.24 -0.07,-0.67 -0.22,-1.35 -0.2,-2.02 0.16,-5 -0.86,-9.88 -2.11,-14.63 -1.23,-4.65 -3,-9.19 -4.91,-13.61 -1.69,-3.9 -3.77,-7.66 -6.29,-11.13 -1.71,-2.35 -3.43,-4.7 -5.32,-6.91 -1.38,-1.61 -3.04,-2.98 -4.59,-4.44 -0.1,-0.1 -0.48,-0.1 -0.52,-0.02 -0.13,0.22 -0.29,0.59 -0.19,0.73 1.08,1.49 2.12,3.02 3.32,4.41 3.19,3.68 5.73,7.82 7.95,12.08 2.28,4.36 4.33,8.88 5.72,13.65 1,3.44 2.02,6.89 2.6,10.42 0.88,5.36 1.17,10.79 1.18,16.23 0.01,4.58 -0.33,9.12 -1.19,13.6 -1.03,5.42 -2.42,10.77 -4.6,15.87 -0.95,2.23 -2.01,4.41 -2.97,6.63 -0.26,0.6 -0.41,1.28 -0.46,1.93 -0.02,0.29 0.29,0.69 0.56,0.89 0.15,0.11 0.61,0.02 0.78,-0.14 0.62,-0.6 1.32,-1.19 1.72,-1.93 1.78,-3.33 3.47,-6.72 4.69,-10.31 1.15,-3.39 2.2,-6.78 3.02,-10.29 1.3,-5.52 1.44,-11.13 2.25,-16.79 z M 452.86,232.28 c -0.37,0.29 -0.77,0.54 -1.1,0.85 -2.99,2.8 -5.6,5.92 -7.87,9.32 -4.11,6.18 -7.19,12.84 -9.14,20.01 -0.46,1.68 -0.66,3.43 -1.24,5.06 -0.43,1.22 -0.62,2.43 -0.71,3.69 -0.05,0.68 -0.06,1.36 -0.18,2.03 -1.26,6.61 -0.49,13.17 0.63,19.68 0.52,3.04 1.53,6 2.43,8.96 1.76,5.79 4.2,11.27 7.68,16.24 0.61,0.87 1.34,1.65 2.08,2.41 0.34,0.35 0.93,0.55 1.26,0.04 0.22,-0.34 0.25,-0.9 0.17,-1.32 -0.06,-0.35 -0.43,-0.63 -0.63,-0.96 -3.22,-5.44 -5.91,-11.13 -7.65,-17.23 -1.33,-4.66 -2.25,-9.38 -2.65,-14.24 -0.64,-7.62 0.1,-15.11 1.53,-22.57 0.24,-1.23 0.49,-2.48 0.89,-3.66 1.44,-4.22 2.99,-8.4 5.06,-12.37 1.48,-2.84 2.98,-5.66 4.94,-8.22 1.53,-2 2.98,-4.06 4.45,-6.11 0.22,-0.3 0.35,-0.68 0.44,-1.04 0.03,-0.11 -0.18,-0.29 -0.38,-0.58 z m -27.14,48.1 c -0.22,3.86 0.36,8.02 1.14,12.1 0.74,3.88 1.77,7.73 3.24,11.45 2.12,5.34 4.49,10.52 7.98,15.11 0.35,0.45 0.69,0.96 1.15,1.26 0.35,0.23 1.01,0.37 1.31,0.19 0.25,-0.15 0.27,-0.84 0.22,-1.28 -0.04,-0.36 -0.3,-0.71 -0.51,-1.03 -2.38,-3.56 -4.37,-7.35 -5.96,-11.3 -2.5,-6.23 -4.04,-12.71 -4.57,-19.44 -0.55,-7.01 -0.44,-13.95 0.91,-20.86 1,-5.15 2.36,-10.19 4.64,-14.94 1.97,-4.12 4.2,-8.09 6.71,-11.91 1.22,-1.86 2.31,-3.81 4.01,-5.32 0.27,-0.24 0.47,-0.63 0.57,-0.99 0.06,-0.21 -0.11,-0.53 -0.27,-0.74 -0.07,-0.1 -0.38,-0.11 -0.53,-0.04 -0.26,0.11 -0.51,0.27 -0.7,0.48 -2.58,2.76 -5.23,5.48 -7.22,8.72 -1.93,3.13 -4.04,6.21 -5.53,9.55 -2.21,4.93 -4.16,9.98 -5.1,15.39 -0.77,4.41 -1.53,8.78 -1.5,13.61 z m 140.42,0.87 c -0.15,-2.09 -0.33,-3.93 -0.39,-5.77 -0.13,-4.1 -1.02,-8.06 -2.01,-12.01 -0.23,-0.94 -0.66,-1.82 -0.89,-2.76 -0.81,-3.21 -2.05,-6.27 -3.52,-9.21 -1.43,-2.85 -3.27,-5.49 -4.83,-8.27 -2.18,-3.87 -5.37,-6.86 -8.51,-9.88 -0.2,-0.2 -0.65,-0.13 -0.99,-0.19 0.01,0.28 -0.03,0.57 0.05,0.82 0.08,0.27 0.26,0.52 0.44,0.74 4.34,5.26 8.02,10.93 10.88,17.12 0.49,1.06 0.94,2.13 1.37,3.21 1.58,3.97 2.72,8.06 3.53,12.25 0.42,2.19 0.93,4.39 0.99,6.6 0.14,4.75 0.04,9.52 0,14.27 0,0.87 -0.16,1.74 -0.32,2.59 -0.45,2.48 -0.81,4.98 -1.43,7.42 -0.74,2.9 -1.59,5.78 -2.6,8.6 -1.51,4.22 -3.7,8.11 -6.01,11.94 -0.2,0.33 -0.45,0.68 -0.47,1.03 -0.02,0.35 0.11,0.84 0.36,1.03 0.21,0.16 0.76,0.1 1.02,-0.07 0.47,-0.33 0.88,-0.77 1.22,-1.23 2.82,-3.85 5.21,-7.96 6.91,-12.42 1.76,-4.61 3.13,-9.31 4.03,-14.21 0.73,-3.95 0.61,-7.92 1.17,-11.61 z m -6.13,-0.22 c -0.53,-5.24 -0.68,-10.08 -1.75,-14.85 -1.04,-4.66 -2.58,-9.15 -4.51,-13.47 -2.62,-5.87 -6.15,-11.22 -10.27,-16.16 -1.11,-1.33 -2.46,-2.48 -3.72,-3.68 -0.17,-0.16 -0.52,-0.12 -0.78,-0.18 -0.03,0.26 -0.17,0.59 -0.06,0.77 0.5,0.83 1.03,1.65 1.62,2.41 2.94,3.76 5.53,7.78 7.78,11.95 3.19,5.89 5.42,12.21 6.67,18.82 0.76,4.01 1.27,8.05 1.26,12.14 -0.02,4.46 -0.14,8.9 -0.89,13.34 -0.54,3.15 -1.12,6.28 -2.01,9.33 -1.75,5.99 -4.41,11.58 -7.76,16.84 -0.31,0.48 -0.55,1.04 -0.66,1.59 -0.05,0.29 0.2,0.71 0.44,0.95 0.13,0.12 0.62,0.08 0.78,-0.07 0.71,-0.65 1.46,-1.3 2,-2.07 0.89,-1.27 1.66,-2.63 2.43,-3.97 3.84,-6.68 6.67,-13.75 7.98,-21.37 0.38,-2.2 0.57,-4.42 0.83,-6.64 0.23,-2.02 0.44,-4.04 0.62,-5.67 z m -11.89,0.86 c -0.03,-7.84 -1.55,-15 -4.16,-21.95 -2.53,-6.73 -6.43,-12.56 -11.39,-17.72 -0.59,-0.61 -1.38,-1.02 -2.11,-1.48 -0.08,-0.05 -0.33,0.12 -0.48,0.22 -0.06,0.04 -0.09,0.19 -0.06,0.26 0.11,0.25 0.23,0.52 0.39,0.74 3.14,4.07 6.18,8.18 8.32,12.9 1.52,3.35 3.01,6.7 3.89,10.28 1.04,4.25 1.72,8.55 1.84,12.94 0.17,6.23 -0.2,12.39 -1.92,18.42 -0.88,3.08 -2.01,6.04 -3.26,8.99 -1.18,2.79 -2.72,5.34 -4.4,7.82 -1.3,1.91 -2.68,3.77 -3.98,5.68 -0.18,0.27 -0.31,0.83 -0.16,1.01 0.41,0.5 0.89,0.14 1.23,-0.19 0.98,-0.94 1.98,-1.87 2.85,-2.9 4.76,-5.59 8.33,-11.84 10.5,-18.88 1.66,-5.4 2.64,-10.91 2.91,-16.16 z m 6.38,-1.2 c -0.32,-2.97 -0.45,-6.1 -1.02,-9.14 -0.98,-5.24 -2.69,-10.27 -4.98,-15.12 -2.34,-4.96 -5.35,-9.44 -9.19,-13.35 -0.74,-0.75 -1.61,-1.39 -2.46,-2.02 -0.12,-0.09 -0.51,0.09 -0.72,0.23 -0.07,0.05 -0.05,0.4 0.05,0.53 2.03,2.59 3.91,5.28 5.7,8.04 3.9,6.02 6.38,12.58 7.83,19.56 0.3,1.42 0.68,2.86 0.73,4.3 0.2,6.3 0.57,12.62 -0.69,18.87 -0.65,3.23 -1.37,6.44 -2.66,9.49 -2.47,5.83 -5.43,11.37 -9.38,16.36 -0.34,0.43 -0.92,0.78 -0.61,1.48 0.2,0.45 0.8,0.28 1.69,-0.51 3.52,-3.14 6.28,-6.89 8.43,-11.04 2.63,-5.08 4.69,-10.35 5.87,-16.02 0.79,-3.84 0.86,-7.69 1.43,-11.66 z m -117.02,-0.2 c 0.3,2.84 0.48,6.73 1.17,10.52 0.7,3.9 1.89,7.71 3.51,11.35 1.62,3.64 3.49,7.16 5.8,10.4 1.46,2.04 3.11,3.95 4.79,5.81 0.59,0.66 1.17,1.62 2.36,1.41 0.69,-1.32 -0.55,-1.89 -1.1,-2.68 -1.28,-1.82 -2.83,-3.47 -3.95,-5.38 -2.49,-4.27 -4.76,-8.67 -6.18,-13.44 -1.13,-3.8 -2.23,-7.62 -2.36,-11.62 -0.1,-3.2 -0.01,-6.4 -0.07,-9.6 -0.08,-4.5 0.7,-8.87 1.88,-13.19 0.95,-3.45 2.15,-6.83 3.79,-10.01 1.11,-2.15 2.37,-4.22 3.68,-6.26 1.25,-1.95 2.67,-3.79 3.98,-5.7 0.26,-0.38 0.38,-0.86 0.54,-1.3 0.03,-0.07 -0.02,-0.22 -0.08,-0.26 -0.15,-0.08 -0.39,-0.21 -0.48,-0.15 -0.47,0.33 -0.94,0.68 -1.35,1.08 -6.21,6.11 -10.39,13.46 -13.1,21.68 -1.75,5.29 -2.32,10.78 -2.83,17.33 z m 6.35,-0.38 c 0.1,2.92 0.24,5.69 0.74,8.5 0.43,2.38 0.77,4.79 1.42,7.11 1.49,5.34 3.65,10.41 6.75,15.06 2.1,3.15 4.25,6.26 7.2,8.71 0.4,0.33 0.8,1.09 1.41,0.41 0.4,-0.45 -0.11,-0.84 -0.39,-1.23 -1.33,-1.79 -2.68,-3.57 -3.93,-5.41 -2.58,-3.78 -4.51,-7.9 -6.18,-12.16 -1.42,-3.64 -2.21,-7.44 -2.74,-11.26 -0.71,-5.1 -0.77,-10.25 -0.35,-15.4 0.6,-7.35 2.65,-14.26 6.14,-20.74 2.02,-3.75 4.1,-7.49 6.97,-10.69 0.26,-0.28 0.53,-0.61 0.62,-0.97 0.08,-0.32 -0.1,-0.69 -0.16,-1.04 -0.26,0.06 -0.62,0.03 -0.78,0.19 -1.19,1.27 -2.25,2.69 -3.53,3.86 -2.2,2.01 -3.55,4.6 -5.15,7.02 -0.91,1.37 -1.69,2.84 -2.35,4.34 -2.27,5.15 -4.36,10.37 -4.84,16.06 -0.95,2.52 -0.8,5.15 -0.85,7.65 z m 5.62,0.24 c -0.29,3.21 0.23,6.82 1.13,10.25 1.76,6.7 4.78,12.88 9.22,18.28 0.79,0.97 1.78,1.78 2.74,2.59 0.21,0.18 0.68,0.06 1.03,0.08 -0.01,-0.27 0.07,-0.59 -0.06,-0.79 -0.66,-1.08 -1.33,-2.14 -2.06,-3.17 -2.32,-3.26 -4.15,-6.78 -5.55,-10.51 -0.64,-1.71 -1.25,-3.43 -1.69,-5.24 -0.72,-3.04 -0.88,-6.14 -1.4,-9.2 -0.18,-1.04 -0.15,-2.14 -0.06,-3.19 0.21,-2.51 0.52,-5.02 0.78,-7.52 0.04,-0.39 0.05,-0.78 0.15,-1.15 1.53,-6.06 3.79,-11.8 7.32,-17 0.82,-1.2 1.61,-2.42 2.34,-3.67 0.14,-0.24 -0.05,-0.71 -0.19,-1.03 -0.03,-0.07 -0.56,-0.02 -0.77,0.12 -0.32,0.2 -0.58,0.51 -0.84,0.79 -3.66,4.04 -6.7,8.44 -8.73,13.58 -2.09,5.29 -3.38,10.68 -3.36,16.78 z m 89.36,0.6 h -0.03 c 0,0.97 0,1.94 0,2.91 0,2.53 -0.16,5.02 -0.76,7.51 -0.48,1.99 -1.39,3.85 -1.79,5.82 -0.44,2.16 -1.39,4.04 -2.44,5.88 -1.49,2.6 -3.21,5.07 -4.82,7.61 -0.34,0.55 -0.69,1.13 -0.84,1.74 -0.1,0.4 0.82,0.17 1.87,-0.81 0.92,-0.86 1.83,-1.75 2.62,-2.72 3.35,-4.1 5.74,-8.73 7.57,-13.67 0.98,-2.66 1.29,-5.45 1.85,-8.2 0.61,-3 0.79,-6 0.41,-8.98 -0.52,-4.03 -1.11,-8.05 -2.56,-11.9 -2.15,-5.7 -5.2,-10.83 -9.36,-15.28 -1.12,-1.2 -2.23,-1.63 -2.37,-1.06 -0.25,1 0.52,1.58 1.04,2.24 3.14,4.01 5.48,8.43 7.21,13.22 1.7,4.71 2.6,9.53 2.4,14.54 -0.02,0.39 0,0.78 0,1.17 z"
       id="path3" />
    <path
       d="m 888.95,379.91 c 0,7 0,13.99 0,20.99 0,0.29 0.02,0.58 -0.02,0.87 -0.15,1.33 -1.13,2.13 -2.44,1.82 -2.35,-0.55 -4.72,-1.1 -7.01,-1.88 -1.64,-0.56 -3.18,-1.45 -4.72,-2.27 -4.23,-2.24 -7.47,-5.56 -9.92,-9.6 -0.99,-1.63 -1.63,-3.53 -2.15,-5.38 -1.15,-4.11 -1.14,-8.32 0.12,-12.36 1.53,-4.91 4.45,-8.83 9.43,-10.84 1.17,-0.47 2.36,-0.88 3.55,-1.3 1.35,-0.48 2.08,-1.43 2.05,-2.86 -0.06,-2.13 -0.19,-4.26 -0.32,-6.39 -0.03,-0.48 -0.22,-0.96 -0.23,-1.44 -0.07,-4.59 -1.56,-8.77 -3.7,-12.74 -2.18,-4.04 -5.33,-7.1 -9.62,-8.91 -3.26,-1.37 -6.63,-2.2 -10.19,-2.01 -4.18,0.23 -8.02,1.45 -11.25,4.2 -2.11,1.79 -3.62,4.08 -4.6,6.63 -2.25,5.84 -2.55,11.96 -1.87,18.09 0.46,4.13 1.38,8.22 2.93,12.12 2.08,5.23 4.33,10.39 6.36,15.63 2.1,5.42 4.19,10.86 5.24,16.62 0.31,1.71 0.7,3.41 1.07,5.12 1.25,5.87 1.27,11.82 0.61,17.71 -0.75,6.64 -3.01,12.78 -7.3,18.11 -3.23,4.02 -7.05,7.21 -11.69,9.4 -1.13,0.54 -2.35,0.94 -3.56,1.25 -1.26,0.33 -2.01,-0.1 -2.51,-1.36 -1.98,-4.98 -4.59,-9.65 -7.57,-14.07 -4.05,-6.01 -9.15,-11.09 -15.11,-15.2 -5.43,-3.75 -11.47,-6.11 -18.12,-6.65 -5.9,-0.47 -11.44,0.7 -16.34,4.11 -2.65,1.84 -4.73,4.31 -6.31,7.15 -0.34,0.6 0.26,1.42 0.98,1.41 0.19,0 0.41,0.04 0.57,-0.04 2.81,-1.36 5.91,-1.06 8.87,-1.36 2.09,-0.21 4.27,0.14 6.37,0.51 7.03,1.24 13.33,4.06 18.62,8.96 4.75,4.4 8.66,9.45 11.6,15.2 2.47,4.84 4.43,9.91 5.9,15.17 1.18,4.2 2,8.48 2.94,12.74 1.15,5.19 2.15,10.44 4.31,15.37 2.21,5.03 5.02,9.6 9.04,13.4 2,1.89 4.19,3.47 6.59,4.75 3.26,1.74 6.66,3.14 10.35,3.77 1.43,0.24 2.84,0.6 4.25,0.93 0.88,0.21 1.33,0.85 1.15,1.72 -0.14,0.66 -0.31,1.34 -0.62,1.93 -2.87,5.46 -7.19,9.34 -12.97,11.51 -1.81,0.68 -3.7,1.15 -5.58,1.66 -2.01,0.55 -2.4,0.94 -2.42,2.97 -0.05,5.54 -0.09,11.07 -0.11,16.61 -0.02,7.77 0,15.55 0,23.32 0,4.86 0.07,9.71 0,14.57 -0.05,3.11 -0.29,6.21 -1.13,9.23 -1,3.62 -3.09,6.49 -6.08,8.65 -1.75,1.26 -3.88,1.9 -5.97,2.15 -3.56,0.42 -7.16,0.52 -10.75,0.73 -0.48,0.03 -0.97,-0.05 -1.44,-0.16 -0.84,-0.21 -1.38,-0.85 -1.31,-1.69 0.1,-1.16 0.1,-2.39 0.53,-3.44 1.13,-2.78 1.8,-5.76 3.57,-8.26 0.34,-0.47 0.62,-0.99 0.86,-1.52 0.34,-0.74 -0.16,-1.6 -0.99,-1.76 -0.28,-0.06 -0.58,-0.08 -0.87,-0.07 -3.5,0 -7,0.06 -10.49,0.03 -2.24,-0.02 -3.73,0.84 -4.92,2.88 -2.19,3.73 -3.84,7.58 -4.32,11.91 -0.15,1.32 -0.82,1.96 -2.08,2.04 -1.65,0.1 -3.31,0.12 -4.95,0.03 -1.51,-0.09 -2.15,-0.97 -2.02,-2.59 0.27,-3.43 1.26,-6.66 2.73,-9.75 0.33,-0.7 0.74,-1.37 1.04,-2.08 0.49,-1.16 -0.07,-2.2 -1.26,-2.4 -0.28,-0.05 -0.58,-0.04 -0.87,-0.03 -3.4,0.02 -6.8,0.04 -10.2,0.06 -0.39,0 -0.78,0.02 -1.17,0.03 -1.39,0.02 -2.32,0.65 -3,1.91 -1.8,3.29 -2.91,6.77 -3.31,10.48 -0.08,0.77 -0.1,1.56 -0.24,2.32 -0.25,1.4 -0.97,2.05 -2.37,2.09 -1.65,0.05 -3.3,0.05 -4.94,-0.02 -1.62,-0.06 -2.62,-1.09 -2.35,-2.66 0.61,-3.62 1.04,-7.25 2.25,-10.8 1.49,-4.35 3.83,-8.06 6.9,-11.34 2.33,-2.48 5.06,-4.51 8.07,-6.14 4.74,-2.56 9.86,-3.97 15.12,-4.99 4.09,-0.79 8.26,-1.16 12.23,-2.53 4.92,-1.7 7.95,-5.11 8.98,-10.15 0.82,-4.01 0.76,-8.07 0.4,-12.18 -0.41,-4.6 -1.47,-8.98 -3.06,-13.27 -2.42,-6.54 -6.37,-11.9 -12,-16.1 -3.06,-2.28 -6.31,-4.17 -9.79,-5.68 -3.57,-1.56 -7.31,-2.58 -11.15,-3.23 -1.44,-0.24 -2.87,-0.48 -4.3,-0.78 -1.26,-0.27 -1.8,-0.91 -1.92,-2.22 -0.38,-4.16 -0.71,-8.32 -1.12,-12.47 -0.21,-2.12 -0.47,-4.23 -0.86,-6.33 -1,-5.44 -2.04,-10.87 -3.55,-16.2 -2.19,-7.69 -5.11,-15.08 -9.17,-21.98 -1.52,-2.59 -3.21,-5.09 -4.98,-7.52 -2.05,-2.81 -4.24,-5.53 -6.66,-8.05 -2.56,-2.66 -5.31,-5.11 -8.22,-7.37 -5.47,-4.25 -11.41,-7.72 -17.71,-10.6 -0.61,-0.28 -1.22,-0.6 -1.77,-0.98 -0.66,-0.46 -0.52,-1.27 0.23,-1.58 1.61,-0.66 3.25,-1.27 4.83,-2.01 7.58,-3.56 14.19,-8.49 19.56,-14.89 3.61,-4.31 6.68,-8.99 8.68,-14.37 1.22,-3.28 2.33,-6.59 3.17,-9.96 1.35,-5.41 1.52,-10.94 1.28,-16.49 -0.33,-7.69 -2.18,-14.95 -5.92,-21.7 -4.14,-7.49 -10.2,-12.96 -18.1,-16.18 -5.56,-2.27 -11.45,-3.07 -17.44,-2.08 -2.86,0.47 -5.69,1.19 -8.32,2.53 -5.77,2.93 -9.67,7.36 -11.16,13.74 -0.29,1.22 -0.57,2.44 -0.76,3.68 -0.04,0.28 0.28,0.67 0.53,0.9 0.08,0.08 0.51,-0.15 0.72,-0.31 0.22,-0.17 0.38,-0.43 0.56,-0.67 0.29,-0.39 0.54,-0.81 0.87,-1.16 4.13,-4.32 9.07,-6.83 15.16,-6.93 9.61,-0.17 16.22,4.53 20.53,12.74 2.45,4.68 3.92,9.7 3.86,15.08 -0.03,2.04 0.11,4.08 0.1,6.12 -0.02,4.11 -0.77,8.07 -2.05,11.99 -3.38,10.35 -9.85,18.11 -19.16,23.65 -4.46,2.65 -9.23,4.45 -14.18,5.95 -3.82,1.15 -7.74,1.8 -11.61,2.68 -4.84,1.11 -9.16,3.19 -12.65,6.79 -0.67,0.69 -1.27,1.48 -1.76,2.31 -1.68,2.85 -3.2,5.76 -3.51,9.15 -0.3,3.29 -0.63,6.57 -1.02,9.85 -0.58,4.74 -1.55,9.4 -3.97,13.58 -2.63,4.55 -6.51,7.65 -11.53,9.28 -0.37,0.12 -0.76,0.16 -1.14,0.21 -1.49,0.2 -2.46,-0.07 -2.45,-2.21 0.05,-12.05 0,-24.1 -0.01,-36.15 0,-3.72 0.08,-3.78 3.32,-5.75 2.9,-1.77 5.78,-3.58 8.6,-5.47 3.88,-2.61 7.26,-5.81 10.63,-9.03 2.81,-2.69 5.33,-5.63 7.62,-8.76 3.47,-4.76 5.87,-10.04 7.34,-15.74 0.22,-0.84 0.19,-1.74 0.31,-2.6 0.29,-2 -0.3,-3.42 -2.03,-4.73 -2.81,-2.14 -4.68,-5.14 -6.23,-8.32 -2.78,-5.69 -3.4,-11.76 -2.66,-17.9 0.55,-4.62 1.91,-9.07 4.45,-13.13 1.82,-2.91 3.83,-5.6 6.34,-7.92 2.15,-1.98 4.48,-3.71 7.07,-5.1 4.56,-2.45 9.44,-4.06 14.4,-5.42 1.49,-0.41 3.05,-0.61 4.58,-0.8 3.66,-0.44 7.33,-0.87 11,-1.2 6.89,-0.63 13.64,-1.94 20.08,-4.52 3.71,-1.49 7.06,-3.65 10.15,-6.21 4.66,-3.86 7.51,-8.85 8.89,-14.64 0.76,-3.19 1.26,-6.48 1.02,-9.81 -0.04,-0.58 -0.09,-1.18 -0.27,-1.72 -0.23,-0.7 -0.31,-1.65 -1.32,-1.69 -0.82,-0.03 -0.99,0.8 -1.4,1.31 -2.49,3.1 -4.74,6.44 -7.56,9.21 -4.1,4.02 -8.8,7.31 -14.19,9.51 -5.06,2.06 -10.29,3.37 -15.75,3.86 -4.92,0.44 -9.83,1.12 -14.73,1.81 -1.62,0.23 -3.19,0.82 -4.78,1.21 -1.13,0.28 -2.26,0.57 -3.41,0.76 -1.2,0.2 -1.9,-0.13 -2.23,-1.34 -0.62,-2.24 -1.18,-4.5 -1.52,-6.8 -0.35,-2.39 -0.39,-4.83 -0.61,-7.25 -0.13,-1.46 -1.28,-2.05 -2.74,-1.46 -3.15,1.28 -6.28,2.59 -9.44,3.84 -3.18,1.27 -6.5,1.96 -9.92,2.08 -4.28,0.14 -8.56,0.22 -12.71,-1.1 -3.82,-1.22 -7.45,-2.83 -10.39,-5.65 -2.81,-2.68 -4.81,-5.83 -5.3,-9.79 -0.06,-0.48 -0.13,-0.97 -0.24,-1.44 -0.94,-4.04 0.14,-7.7 2.23,-11.09 0.74,-1.21 1.77,-2.36 2.92,-3.19 2.38,-1.7 5.03,-2.75 7.97,-3.34 5.59,-1.12 11.22,-0.8 16.85,-0.96 1.64,-0.05 2.23,0.48 1.99,2.05 -0.28,1.81 -0.57,3.7 -1.33,5.33 -2.26,4.87 -5.42,9.01 -10.58,11.15 -1.33,0.55 -2.77,0.87 -4.17,1.27 -1.87,0.53 -2.27,1.36 -1.6,3.24 1.06,2.99 3.08,5.14 5.87,6.56 0.75,0.39 1.66,0.62 2.51,0.65 2.13,0.09 4.27,0.08 6.41,-0.01 0.85,-0.04 1.74,-0.29 2.51,-0.65 2.47,-1.13 4.93,-2.3 7.33,-3.57 2.5,-1.32 5.04,-2.49 7.73,-3.38 3.42,-1.13 6.93,-1.28 10.37,-0.56 3.75,0.79 6.68,3.03 8.69,6.36 0.35,0.58 0.69,1.18 0.92,1.82 0.58,1.6 1.79,2.25 3.38,2.27 3.01,0.03 6.03,0 9.04,-0.02 0.48,0 0.96,-0.16 1.43,-0.25 0.81,-0.15 1.07,-0.68 1.11,-1.46 0.08,-1.51 -0.56,-2.84 -0.99,-4.22 -2.24,-7.12 -8.98,-12.02 -15.77,-12.3 -1.65,-0.07 -3.3,-0.14 -4.95,-0.11 -2.53,0.04 -5.04,-0.16 -7.55,-0.5 -3.34,-0.45 -6.15,-1.83 -8.21,-4.49 -1.43,-1.85 -2.48,-3.91 -2.65,-6.34 -0.23,-3.39 -0.57,-6.77 -0.85,-10.15 -0.13,-1.64 0.61,-2.46 2.36,-2.6 4.47,-0.37 8.83,-1.3 13.08,-2.72 3.95,-1.32 7.88,-2.71 11.82,-4.05 0.55,-0.19 1.13,-0.28 1.69,-0.43 0.56,-0.15 1.14,-0.26 1.67,-0.48 1.01,-0.42 1.09,-1.05 0.26,-1.7 -0.31,-0.24 -0.63,-0.45 -0.95,-0.67 -0.32,-0.22 -0.68,-0.4 -0.95,-0.67 -2.07,-1.99 -2.54,-3.3 0.2,-5.03 0.95,-0.6 1.67,-1.26 2.05,-2.33 1.16,-3.29 2.33,-6.58 3.57,-9.84 0.61,-1.62 0.78,-3.13 -0.01,-4.77 -0.62,-1.28 -0.57,-2.63 0.31,-3.87 1.23,-1.75 1.25,-3.59 0.39,-5.52 -0.47,-1.06 -0.85,-2.17 -1.21,-3.28 -0.43,-1.32 0.15,-2.04 1.57,-1.96 0.48,0.03 0.98,0.09 1.42,0.25 2.46,0.9 4.93,1.77 6.89,3.66 1.19,1.15 2.5,1.41 4.25,0.92 4.96,-1.38 9.98,-2.5 15,-3.66 1.08,-0.25 2,-0.68 2.86,-1.35 1.83,-1.44 3.68,-2.85 5.52,-4.29 1.51,-1.18 1.6,-1.68 0.67,-3.38 -1.04,-1.88 -0.68,-3.09 1.27,-3.94 0.88,-0.39 1.83,-0.68 2.78,-0.84 1.92,-0.33 3.79,-0.8 5.54,-1.7 0.51,-0.26 1.07,-0.47 1.64,-0.58 0.84,-0.17 1.63,0.09 1.96,0.9 1.08,2.68 3.16,4.63 4.84,6.87 0.58,0.77 1.1,1.6 1.53,2.46 0.43,0.85 0.06,1.8 -0.79,2.2 -0.43,0.2 -0.94,0.22 -1.39,0.38 -1.07,0.39 -1.62,1.17 -1.35,2.24 0.8,3.1 1.63,6.19 2.6,9.24 0.28,0.88 1.02,1.64 1.63,2.38 2.4,2.93 4.82,5.83 7.24,8.74 0.31,0.37 0.67,0.71 0.94,1.11 1.34,1.91 3.11,2.71 5.49,2.55 2.43,-0.16 4.83,0.34 7.16,1.11 0.46,0.15 0.99,0.25 1.34,0.54 0.5,0.41 1.08,0.92 1.23,1.5 0.2,0.77 -0.58,1.11 -1.18,1.45 -1.26,0.73 -2.49,1.51 -3.76,2.22 -1.54,0.85 -2.24,2.15 -1.98,3.85 0.26,1.65 -0.35,2.81 -1.58,3.81 -0.85,0.68 -1.32,1.55 -1.62,2.66 -0.58,2.18 -1.77,4.1 -3.28,5.77 -1.15,1.28 -1.65,2.84 -2.1,4.42 -0.42,1.47 -0.27,2.89 0.7,4.15 0.24,0.31 0.47,0.62 0.69,0.94 0.52,0.74 0.43,1.46 -0.08,2.15 -0.29,0.39 -0.61,0.76 -0.9,1.14 -0.36,0.47 -0.24,0.91 0.12,1.31 1.6,1.77 3.54,2.28 5.81,1.34 3.56,-1.47 6.69,-3.6 8.9,-6.8 1.36,-1.98 3.1,-3.77 3.74,-6.2 0.09,-0.35 0.42,-0.65 0.67,-0.94 0.51,-0.59 1.23,-0.62 1.78,-0.07 0.34,0.34 0.69,0.7 0.94,1.11 1.62,2.65 3.3,5.27 4.79,7.98 3.57,6.49 6.2,13.38 8.22,20.49 0.95,3.34 1.47,6.81 2.15,10.23 1.35,6.8 1.64,13.68 1.49,20.58 -0.08,3.59 -0.21,7.21 -0.81,10.74 -1.14,6.7 -2.93,13.25 -5.48,19.57 -1.75,4.34 -3.8,8.53 -6.26,12.49 -2.35,3.78 -4.65,7.62 -7.71,10.92 -1.25,1.35 -2.22,2.96 -3.49,4.28 -3.38,3.49 -6.83,6.9 -10.3,10.31 -0.89,0.88 -1.95,1.59 -2.92,2.38 -0.72,0.59 -1.06,1.35 -1.07,2.29 -0.1,5.65 -0.09,11.31 1.63,16.75 2.47,7.82 7.44,13.19 15.58,15.48 3.64,1.02 7.27,1.1 10.96,0.95 5.58,-0.23 13.67,-4.74 14.78,-13.41 0.7,-5.4 0.67,-10.85 -0.29,-16.26 -0.48,-2.67 -0.88,-5.36 -1.33,-8.04 -0.34,-2.01 -0.76,-4 -1.07,-6.02 -0.49,-3.06 -0.92,-6.13 -1.37,-9.2 -0.07,-0.48 -0.1,-0.97 -0.1,-1.45 0.04,-6.56 0.96,-12.96 3.67,-19 2.45,-5.45 6.17,-9.91 11.29,-12.98 4.47,-2.68 9.42,-4.06 14.69,-4.17 5.74,-0.12 11.21,0.88 16.3,3.65 3.53,1.92 6.64,4.37 9.15,7.52 3.56,4.46 6.02,9.44 7.42,15.01 0.76,3.02 1.24,6.08 1.72,9.14 0.82,5.29 1.05,10.62 1.02,15.97 -0.02,3.79 0,7.58 0,11.37 h 0.07 z m -77.32,-80.36 c -0.2,-4.85 -1.01,-11.51 -3.46,-17.98 -2.41,-6.37 -6.32,-11.5 -11.45,-15.82 -0.74,-0.62 -1.55,-1.17 -2.38,-1.67 -0.26,-0.16 -0.85,-0.17 -1,0 -0.2,0.22 -0.2,0.72 -0.11,1.06 0.12,0.46 0.42,0.87 0.62,1.31 1.95,4.26 3.22,8.74 3.68,13.39 0.49,4.93 0.47,9.84 -0.67,14.75 -1.15,4.97 -2.85,9.66 -5.59,13.93 -4.1,6.38 -9.54,11.46 -15.91,15.53 -1.47,0.94 -3.1,1.61 -4.63,2.45 -2.41,1.31 -2.54,2.16 -0.71,4.13 3.74,4.02 6.58,8.61 8.81,13.61 1.07,2.39 2.15,4.78 3.26,7.15 0.38,0.8 1.12,1.11 1.92,0.76 0.61,-0.27 1.19,-0.65 1.71,-1.07 1.2,-0.98 2.32,-2.07 3.55,-3.02 6.09,-4.72 10.65,-10.72 14.36,-17.38 2.89,-5.19 5,-10.68 6.32,-16.52 0.95,-4.18 1.64,-8.36 1.69,-14.61 z m -22.95,-16.54 c -0.2,-1.53 -0.39,-4.15 -0.93,-6.7 -0.68,-3.24 -1.88,-6.37 -3.88,-9.01 -3.16,-4.18 -7.22,-7.26 -12.32,-8.84 -0.85,-0.26 -1.76,-0.8 -2.43,-0.05 -0.65,0.73 -0.09,1.72 0.27,2.44 2.03,4.06 2.85,8.44 3.3,12.86 0.28,2.78 0.24,5.64 -0.09,8.41 -0.24,2.08 -0.31,4.27 -1.35,6.21 -0.69,4.29 -2.71,8.03 -4.95,11.66 -3.44,5.56 -8.21,9.75 -13.62,13.29 -0.4,0.26 -0.85,0.51 -1.14,0.88 -0.2,0.25 -0.25,0.71 -0.19,1.04 0.03,0.19 0.4,0.44 0.64,0.46 0.87,0.07 1.75,0.14 2.61,0.07 4.85,-0.4 9.61,-1.2 14.17,-2.99 4.77,-1.88 9.02,-4.6 12.43,-8.38 5.15,-5.72 7.33,-12.64 7.48,-21.35 z m -65.74,-44.86 c -2.62,-0.12 -4.64,-0.06 -6.63,0.58 -3,0.97 -4.15,2.73 -3.52,5.73 0.36,1.71 1.27,3.13 3,3.65 2.3,0.7 4.66,0.71 6.73,-0.69 2.6,-1.76 4.27,-4.2 4.67,-7.39 0.13,-1.04 -0.33,-1.77 -1.34,-1.86 -1.15,-0.1 -2.33,-0.02 -2.91,-0.02 z m -3.67,-11.11 c -0.29,0 -0.68,-0.03 -1.07,0 -1.21,0.1 -1.91,0.57 -1.71,1.12 0.29,0.8 1.01,0.78 1.69,0.83 5.31,0.39 10.66,0.48 15.87,1.8 1.97,0.5 3.98,0.83 5.94,1.37 2.98,0.81 5.93,1.74 8.9,2.62 2.97,0.88 5.9,1.9 8.73,3.17 1.86,0.83 3.85,1.4 5.62,2.37 4.58,2.52 9.32,4.77 13.57,7.87 0.38,0.27 0.87,0.43 1.34,0.51 0.22,0.04 0.6,-0.16 0.71,-0.35 0.12,-0.2 0.11,-0.65 -0.04,-0.8 -0.47,-0.48 -0.99,-0.92 -1.55,-1.29 -3.54,-2.38 -7.22,-4.55 -11.08,-6.37 -2.45,-1.16 -4.87,-2.42 -7.39,-3.43 -7.03,-2.81 -14.21,-5.18 -21.61,-6.81 -5.88,-1.29 -11.83,-2.19 -17.94,-2.61 z m 9.01,-20.98 c 0,0.06 -0.02,0.12 -0.03,0.18 -0.58,0 -1.17,0 -1.75,0 -0.77,0.01 -1.55,0 -2.32,0.09 -0.22,0.03 -0.6,0.38 -0.57,0.52 0.05,0.32 0.25,0.71 0.52,0.88 0.31,0.19 0.74,0.21 1.12,0.24 1.45,0.13 2.9,0.29 4.36,0.33 5.66,0.17 11.21,1.08 16.67,2.52 1.31,0.35 2.56,0.93 3.87,1.25 5.67,1.38 11.15,3.31 16.48,5.67 5.86,2.59 11.59,5.4 16.79,9.19 0.53,0.39 1.2,0.62 1.83,0.82 0.19,0.06 0.59,-0.16 0.71,-0.37 0.12,-0.2 0.1,-0.57 0,-0.81 -0.1,-0.25 -0.34,-0.49 -0.57,-0.64 -2.77,-1.79 -5.42,-3.84 -8.36,-5.29 -5.04,-2.49 -10.2,-4.8 -15.44,-6.82 -4.24,-1.63 -8.71,-2.66 -13.04,-4.06 -3.99,-1.29 -8.11,-1.9 -12.21,-2.66 -2.66,-0.49 -5.38,-0.71 -8.07,-1.05 z m 4.33,5.73 c -0.23,0.07 -0.69,0.09 -0.93,0.32 -0.41,0.4 -0.19,0.9 0.12,1.3 0.96,1.28 1.43,2.78 1.63,4.32 0.31,2.31 -0.19,4.43 -2.08,6.02 -0.22,0.19 -0.57,0.37 -0.6,0.59 -0.04,0.31 0.15,0.66 0.26,0.98 0.02,0.07 0.16,0.11 0.25,0.13 2.83,0.64 5.66,1.29 8.5,1.89 0.44,0.09 0.74,-0.33 0.66,-0.74 -0.1,-0.56 -0.41,-1.09 -0.54,-1.65 -1.08,-4.9 -0.3,-6.84 2.93,-9.56 0.15,-0.12 0.39,-0.17 0.48,-0.32 0.18,-0.31 0.47,-0.72 0.39,-0.97 -0.1,-0.28 -0.55,-0.54 -0.88,-0.61 -1.42,-0.3 -2.85,-0.55 -4.28,-0.78 -1.91,-0.32 -3.83,-0.6 -5.91,-0.93 z m 44.65,15.36 c -0.2,-0.26 -0.33,-0.55 -0.55,-0.69 -0.65,-0.41 -1.33,-0.78 -2.02,-1.13 -2.32,-1.18 -4.64,-2.36 -6.98,-3.51 -0.7,-0.35 -1.19,0 -1.09,0.74 0.08,0.57 0.23,1.14 0.33,1.71 0.58,3.23 -0.3,5.93 -2.9,8 -0.53,0.42 -1.07,0.84 -1.66,1.16 -1.05,0.57 -0.78,1.15 0.16,1.62 2.08,1.03 4.17,2.03 6.27,3.01 0.87,0.4 1.53,-0.02 1.62,-0.97 0.03,-0.38 0,-0.77 0,-1.16 0.05,-3.33 1.7,-5.62 4.62,-7.09 0.6,-0.3 1.21,-0.6 1.77,-0.96 0.2,-0.13 0.28,-0.46 0.42,-0.73 z m -22.11,3.65 c 2.02,0.02 3.51,-0.34 5.03,-1.22 2.74,-1.59 3.58,-5.15 1.89,-7.84 -2.15,-3.42 -8.51,-7.54 -14.19,-5.73 -1.65,0.53 -3,1.38 -4.11,2.61 -1.03,1.13 -1.46,2.57 -1.08,4.06 0.41,1.61 1.17,3.09 2.4,4.25 2.83,2.65 6.25,3.79 10.08,3.87 z m -18.5,-26.69 c 1.09,-0.28 2.17,-0.39 3.12,-0.81 3.61,-1.61 7.17,-3.31 10.74,-5.01 0.17,-0.08 0.26,-0.45 0.28,-0.7 0,-0.1 -0.26,-0.33 -0.4,-0.33 -0.86,0.04 -1.75,0 -2.58,0.23 -3.07,0.81 -6.11,1.72 -9.18,2.55 -1.39,0.38 -2.82,0.63 -4.22,0.97 -0.56,0.13 -1.14,0.25 -1.64,0.51 -0.27,0.15 -0.47,0.59 -0.52,0.93 -0.03,0.19 0.27,0.57 0.5,0.63 1.28,0.38 2.59,0.69 3.9,1.03 z m 25.09,-0.53 c -0.07,-1.13 0,-1.93 -0.2,-2.66 -0.14,-0.49 -0.56,-1.03 -1.01,-1.28 -0.67,-0.37 -1.3,0.02 -1.78,0.56 -0.25,0.29 -0.49,0.6 -0.68,0.93 -0.82,1.41 -1.66,2.82 -2.43,4.27 -1.22,2.29 -0.84,3.23 1.61,4.06 0.45,0.15 0.94,0.23 1.41,0.26 1.35,0.08 2.04,-0.34 2.32,-1.64 0.35,-1.6 0.55,-3.23 0.75,-4.5 z m -3.19,-11.49 c -1.33,-0.03 -2.56,0.07 -3.32,1.38 -0.31,0.52 -0.12,1.24 0.42,1.48 0.18,0.08 0.36,0.13 0.55,0.2 2.56,0.88 5.13,1.77 7.69,2.64 0.83,0.28 1.65,0.59 2.5,0.76 0.41,0.08 1.05,0 1.29,-0.27 0.24,-0.27 0.21,-0.89 0.12,-1.33 -0.33,-1.56 -1.34,-2.52 -2.85,-3 -1.29,-0.42 -2.54,-0.96 -3.84,-1.35 -0.82,-0.25 -1.7,-0.34 -2.55,-0.5 z m 22.07,26.4 c 0.19,-0.09 0.66,-0.17 0.82,-0.44 0.15,-0.25 0.08,-0.78 -0.1,-1.04 -0.44,-0.62 -1,-1.15 -1.51,-1.72 -1.08,-1.23 -2.2,-2.41 -3.22,-3.69 -1.56,-1.96 -3,-4.01 -4.57,-5.97 -0.46,-0.58 -1.15,-0.98 -1.76,-1.42 -0.1,-0.07 -0.39,0.02 -0.51,0.12 -0.13,0.11 -0.24,0.35 -0.21,0.5 0.08,0.37 0.2,0.75 0.39,1.07 0.92,1.58 1.89,3.13 2.8,4.72 0.87,1.51 1.6,3.1 2.54,4.55 1.19,1.84 2.77,3.22 5.33,3.32 z m -33,-11.79 c 1.5,0.07 2.53,-0.34 3.27,-1.12 1.71,-1.83 3.32,-3.77 4.94,-5.69 0.14,-0.17 0.13,-0.6 0,-0.8 -0.12,-0.19 -0.49,-0.36 -0.73,-0.33 -0.47,0.05 -0.95,0.19 -1.38,0.39 -1.31,0.6 -2.62,1.23 -3.9,1.89 -1.63,0.85 -3.26,1.71 -4.84,2.66 -0.34,0.2 -0.66,0.8 -0.61,1.17 0.04,0.38 0.47,0.88 0.85,1.04 0.88,0.38 1.83,0.6 2.42,0.78 z m 22.59,-19.62 c -0.14,-0.28 -0.32,-0.84 -0.67,-1.28 -0.6,-0.75 -1.36,-1.37 -1.95,-2.13 -1.51,-1.95 -1.49,-1.95 -4.01,-1.27 -0.75,0.2 -1.51,0.32 -2.26,0.5 -0.46,0.11 -0.93,0.25 -1.37,0.43 -0.58,0.25 -0.73,1 -0.31,1.45 0.95,1 2.09,1.74 3.4,2.15 1.93,0.59 3.88,1.11 5.83,1.61 0.64,0.17 1.38,-0.54 1.33,-1.47 z m -5.53,14.64 c -0.26,0.42 -0.69,0.79 -0.66,1.12 0.18,2.4 0.41,4.8 0.73,7.19 0.17,1.32 0.93,2.31 2.19,2.86 0.71,0.31 1.39,0.66 2.09,1 0.46,0.22 0.96,0.37 1.31,-0.08 0.21,-0.27 0.24,-0.7 0.26,-1.07 0.01,-0.28 -0.08,-0.58 -0.21,-0.84 -1.61,-3.19 -3.23,-6.37 -4.87,-9.54 -0.12,-0.23 -0.43,-0.35 -0.83,-0.66 z m -43.05,21.81 c 1.84,0.05 3.45,-0.67 4.97,-1.53 1.76,-0.99 2.66,-2.59 2.48,-4.61 -0.25,-2.71 -1.74,-4.67 -4.08,-5.99 -0.17,-0.09 -0.6,0.05 -0.74,0.22 -0.15,0.18 -0.22,0.59 -0.11,0.79 0.21,0.42 0.6,0.75 0.85,1.16 0.56,0.9 1.23,1.76 1.57,2.74 0.67,1.93 0.04,3.42 -1.77,4.41 -0.84,0.46 -1.8,0.7 -2.71,1.03 -0.54,0.2 -1.1,0.35 -1.63,0.58 -0.13,0.06 -0.25,0.32 -0.24,0.48 0.01,0.16 0.16,0.4 0.3,0.45 0.35,0.13 0.74,0.18 1.11,0.25 z m 59.23,6.47 c -1.47,0.33 -3.04,0.54 -4.3,1.53 -1.77,1.4 -2.99,3.14 -2.39,5.53 0.53,2.15 2.01,3.7 3.62,5.13 0.07,0.06 0.19,0.1 0.27,0.08 0.26,-0.08 0.54,-0.14 0.75,-0.3 0.1,-0.07 0.12,-0.41 0.04,-0.53 -0.59,-0.89 -1.25,-1.72 -1.81,-2.63 -1.42,-2.3 -1.24,-3.95 0.73,-5.69 0.63,-0.55 1.51,-0.83 2.31,-1.16 0.53,-0.22 1.13,-0.27 1.65,-0.49 0.18,-0.08 0.27,-0.46 0.3,-0.72 0.02,-0.15 -0.15,-0.38 -0.29,-0.46 -0.25,-0.14 -0.54,-0.19 -0.88,-0.3 z m 4.88,-8.29 c 0.02,0.1 0.02,0.2 0.05,0.28 0.57,1.23 2.68,2.07 3.71,1.35 1.1,-0.76 2.09,-1.67 3.1,-2.55 0.46,-0.4 0.22,-1.21 -0.38,-1.39 -0.09,-0.03 -0.18,-0.08 -0.27,-0.09 -1.06,-0.16 -5.13,1.11 -5.97,1.89 -0.13,0.12 -0.16,0.33 -0.24,0.51 z m -60.22,-18.75 c 0.23,-0.01 0.42,-0.02 0.61,-0.03 0.94,-0.09 1.35,-0.78 0.97,-1.65 -0.85,-1.92 -2.24,-3.38 -3.97,-4.53 -0.23,-0.16 -0.73,-0.05 -1.03,0.09 -0.15,0.07 -0.24,0.54 -0.16,0.77 0.41,1.29 0.88,2.55 1.34,3.83 0.38,1.07 1.27,1.39 2.25,1.52 z m 36.31,-13.72 c -0.48,0.23 -1.02,0.33 -1.26,0.66 -0.37,0.51 0.11,0.92 0.52,1.15 0.84,0.47 1.72,0.9 2.6,1.28 0.34,0.14 0.81,0.25 1.11,0.12 0.4,-0.16 0.81,-0.51 0.99,-0.89 0.1,-0.21 -0.18,-0.81 -0.44,-0.93 -1.14,-0.52 -2.32,-0.93 -3.53,-1.39 z m -38.98,26.69 c -0.59,0.03 -1.18,0.61 -1.22,1.35 -0.02,0.31 0.19,0.79 0.44,0.92 0.24,0.12 0.75,-0.03 0.98,-0.23 0.61,-0.57 0.68,-1.24 0.28,-1.76 -0.1,-0.13 -0.31,-0.18 -0.48,-0.27 z m 57.42,21.47 c 0.36,-0.5 0.66,-0.82 0.82,-1.2 0.05,-0.11 -0.26,-0.54 -0.44,-0.56 -0.58,-0.08 -0.87,0.3 -0.85,0.84 0,0.23 0.22,0.45 0.47,0.92 z"
       id="path4" />
    <path
       d="m 159.12,564.53 c 0,-9.04 0,-18.08 0,-27.11 0,-0.97 0.03,-1.95 -0.06,-2.91 -0.14,-1.43 -0.7,-2.05 -2.14,-2.33 -2.77,-0.54 -5.45,-1.34 -8,-2.57 -4.9,-2.37 -8.55,-5.99 -11.03,-10.81 -0.18,-0.34 -0.35,-0.7 -0.47,-1.06 -0.45,-1.41 0.02,-2.16 1.54,-2.46 4.76,-0.97 9.41,-2.21 13.78,-4.48 5.42,-2.82 9.59,-6.84 12.74,-12.03 2.03,-3.34 3.67,-6.85 4.79,-10.58 1,-3.33 1.88,-6.7 2.41,-10.15 0.31,-2.01 0.73,-4 1.16,-5.99 1.03,-4.83 2.51,-9.54 4.24,-14.16 2.43,-6.5 5.62,-12.61 9.91,-18.07 4.12,-5.26 9.04,-9.62 15.31,-12.22 3.23,-1.34 6.55,-2.27 10.04,-2.83 3.54,-0.57 6.96,-0.3 10.43,0.2 0.67,0.09 1.31,0.35 1.97,0.5 0.56,0.13 1.14,0.31 1.71,0.32 1.08,0.02 1.75,-1.16 1.17,-2.04 -3.57,-5.45 -8.4,-8.97 -14.95,-10.14 -4.01,-0.72 -7.96,-0.54 -11.87,0.24 -4.5,0.9 -8.67,2.79 -12.55,5.27 -6.45,4.14 -11.64,9.57 -16.05,15.79 -2.82,3.97 -5.21,8.18 -7.21,12.63 -1.51,3.37 -2.3,3.74 -5.55,2.25 -5.74,-2.64 -10.7,-6.27 -14.04,-11.81 -0.5,-0.83 -1.08,-1.62 -1.56,-2.46 -2.26,-3.92 -3.54,-8.14 -4.19,-12.61 -0.49,-3.37 -1.01,-6.74 -0.68,-10.14 0.35,-3.66 0.89,-7.31 1.4,-10.95 0.6,-4.24 2.02,-8.28 3.28,-12.34 0.86,-2.78 2.02,-5.46 3.09,-8.17 1.47,-3.7 3.03,-7.36 4.46,-11.07 1.11,-2.89 2.27,-5.79 3.05,-8.77 1.4,-5.37 2.1,-10.87 1.59,-16.44 -0.37,-4 -1.48,-7.86 -3.5,-11.32 -2.3,-3.94 -5.73,-6.47 -10.3,-7.45 -3.49,-0.75 -6.98,-0.86 -10.39,0.04 -4.6,1.2 -8.72,3.34 -11.59,7.31 -2.7,3.74 -4.49,7.86 -5.35,12.44 -0.46,2.5 -0.76,4.98 -0.88,7.5 -0.04,0.96 -0.3,1.91 -0.42,2.88 -0.18,1.43 0.4,2.41 1.75,2.99 1.16,0.5 2.34,0.94 3.5,1.44 4.18,1.82 7.15,4.93 9.35,8.85 0.19,0.33 0.36,0.7 0.43,1.07 1.07,5.29 1.56,10.63 -0.18,15.84 -1.38,4.13 -3.88,7.62 -7.36,10.28 -3.18,2.43 -6.68,4.34 -10.56,5.44 -1.86,0.53 -3.77,0.91 -5.67,1.3 -0.62,0.13 -1.13,-0.19 -1.45,-0.74 -0.5,-0.87 -0.69,-1.78 -0.55,-2.8 0.13,-0.95 0.13,-1.92 0.14,-2.88 0.09,-10.2 0.16,-20.4 0.26,-30.6 0.03,-2.62 0.23,-5.25 0.2,-7.87 -0.06,-5 0.86,-9.89 2.03,-14.67 1.46,-5.98 3.94,-11.54 8.18,-16.21 6.53,-7.21 14.63,-10.67 24.31,-10.55 3.82,0.05 7.49,0.81 11.1,2.08 2.16,0.76 4.03,1.96 5.83,3.24 4.53,3.21 7.86,7.43 9.96,12.6 1.54,3.8 2.53,7.76 2.85,11.84 0.33,4.27 0.35,8.55 -0.26,12.8 -0.32,2.2 -0.51,4.42 -1.22,6.57 -0.42,1.27 -0.45,2.67 -0.69,4 -1.17,6.49 -2.51,12.98 -2.06,19.63 0.22,3.28 0.74,6.5 2.29,9.53 1.91,3.73 5,5.93 8.76,7.19 5.52,1.84 11.06,1.54 16.57,-0.32 4.98,-1.69 8.99,-4.65 11.66,-9.14 1.41,-2.37 2.43,-4.97 3.05,-7.77 0.94,-4.2 1.13,-8.43 1.42,-12.68 0.17,-2.52 -0.84,-4.27 -2.69,-5.77 -2.94,-2.38 -5.83,-4.83 -8.45,-7.56 -3.63,-3.78 -7.01,-7.77 -9.92,-12.13 -1.99,-2.99 -4.01,-5.96 -5.82,-9.06 -4.04,-6.9 -7,-14.3 -9.03,-22.02 -1.51,-5.73 -2.31,-11.61 -2.27,-17.56 0.03,-4.86 0,-9.72 0.32,-14.57 0.22,-3.37 0.87,-6.73 1.52,-10.06 1.25,-6.39 2.94,-12.66 5.56,-18.65 2.62,-5.97 5.65,-11.71 9.3,-17.11 0.27,-0.4 0.58,-0.78 0.91,-1.13 0.54,-0.57 1.35,-0.53 1.75,0.1 0.31,0.49 0.5,1.05 0.8,1.55 1.23,2.08 2.34,4.26 3.77,6.2 1.44,1.96 3.53,3.31 5.57,4.63 1.05,0.68 2.23,1.18 3.4,1.65 1.63,0.66 3.28,0.62 4.72,-0.44 1.79,-1.32 1.77,-1.95 0.44,-3.23 -0.28,-0.27 -0.55,-0.55 -0.79,-0.86 -0.39,-0.49 -0.5,-1.02 -0.19,-1.62 1.08,-2.06 0.89,-4.11 -0.02,-6.18 -0.23,-0.53 -0.41,-1.1 -0.46,-1.67 -0.17,-1.7 -0.99,-3.13 -1.73,-4.6 -0.43,-0.86 -0.88,-1.72 -1.22,-2.62 -0.49,-1.28 -0.95,-2.49 -2.27,-3.24 -0.99,-0.56 -1.39,-1.65 -1.31,-2.77 0.11,-1.52 -0.55,-2.63 -1.65,-3.54 -0.97,-0.8 -1.97,-1.57 -2.99,-2.31 -0.47,-0.34 -1.04,-0.54 -1.53,-0.85 -1.2,-0.76 -1.2,-1.69 0.03,-2.47 0.57,-0.36 1.2,-0.66 1.85,-0.83 2.16,-0.6 4.33,-1.13 6.6,-0.98 0.48,0.03 0.98,0.09 1.46,0.04 1.39,-0.13 2.57,-0.6 3.53,-1.75 3.17,-3.81 6.41,-7.55 9.64,-11.3 0.84,-0.98 1.45,-2.03 1.77,-3.29 0.59,-2.35 1.29,-4.67 1.92,-7.01 0.37,-1.38 0.15,-1.96 -1.01,-2.67 -0.25,-0.15 -0.54,-0.23 -0.79,-0.37 -1.24,-0.67 -1.7,-1.58 -1.2,-2.83 0.35,-0.88 0.85,-1.78 1.5,-2.46 1.84,-1.9 3.41,-3.98 4.68,-6.29 0.59,-1.08 1.27,-1.38 2.4,-0.83 2.65,1.3 5.49,1.9 8.3,2.66 0.99,0.27 1.95,0.86 2.76,1.5 0.8,0.64 0.76,1.45 0.17,2.32 -1.72,2.51 -1.7,2.63 0.63,4.34 0.94,0.69 1.93,1.34 2.76,2.14 2.25,2.18 4.97,3.3 7.96,3.98 3.69,0.84 7.37,1.73 11.03,2.7 2.34,0.63 4.37,0.4 6.2,-1.33 2.27,-2.14 5.15,-3.02 8.11,-3.68 0.62,-0.14 1.12,0.33 1.19,0.96 0.09,0.82 -0.18,1.52 -0.63,2.18 -0.84,1.23 -1.21,2.63 -1.53,4.06 -0.33,1.44 -0.04,2.61 0.99,3.74 1.53,1.69 1.6,2.48 0.32,4.35 -0.79,1.16 -0.79,2.2 -0.55,3.55 0.62,3.46 1.97,6.69 2.86,10.06 0.44,1.66 1.35,2.76 3.02,3.2 0.28,0.07 0.55,0.2 0.83,0.29 0.93,0.28 1.5,0.86 1.58,1.86 0.08,1.06 -0.32,1.87 -1.27,2.42 -0.75,0.43 -1.48,0.93 -2.16,1.46 -0.53,0.41 -0.38,1.15 0.22,1.41 0.18,0.07 0.36,0.15 0.54,0.2 5.57,1.34 10.87,3.55 16.36,5.15 3.62,1.05 7.27,2.13 11.11,2.14 0.38,0 0.81,-0.02 1.14,0.13 0.32,0.14 0.63,0.44 0.78,0.75 0.16,0.33 0.16,0.75 0.16,1.14 -0.01,4.08 0.13,8.16 -0.79,12.18 -0.21,0.93 -0.51,1.89 -0.99,2.71 -2.09,3.6 -4.92,6.18 -9.3,6.68 -2.42,0.28 -4.81,0.58 -7.25,0.5 -1.75,-0.06 -3.5,0.04 -5.25,0.12 -7.36,0.33 -12.29,4.23 -15.43,10.65 -0.72,1.47 -1.22,3.07 -1.68,4.65 -0.54,1.87 -0.11,2.46 1.79,2.77 0.57,0.09 1.16,0.17 1.74,0.18 2.43,0.03 4.86,0.01 7.29,0.05 2.05,0.03 3.54,-0.71 4.36,-2.71 1.55,-3.76 4.56,-5.95 8.23,-7.34 0.81,-0.3 1.67,-0.49 2.53,-0.6 5.61,-0.68 10.78,0.63 15.62,3.46 2.68,1.57 5.39,3.05 8.35,4.09 1.31,0.46 2.58,0.82 3.94,0.86 1.36,0.03 2.72,-0.04 4.08,0.04 3.57,0.22 7.92,-2.9 9.4,-7.49 0.49,-1.53 -0.14,-2.6 -1.71,-3.14 -1.65,-0.57 -3.34,-1.04 -4.93,-1.74 -3.19,-1.41 -5.67,-3.67 -7.49,-6.66 -1.68,-2.76 -3.02,-5.64 -3.34,-8.91 -0.04,-0.38 -0.09,-0.77 -0.06,-1.16 0.06,-1.01 0.68,-1.65 1.72,-1.54 5.89,0.61 11.86,0.14 17.71,1.36 3.32,0.69 6.19,2.14 8.62,4.5 2.43,2.36 3.53,5.32 3.85,8.58 0.26,2.62 0.08,5.21 -0.71,7.78 -0.58,1.89 -1.36,3.65 -2.58,5.18 -3.51,4.38 -7.92,7.22 -13.5,8.48 -5.02,1.13 -9.99,1.17 -15.05,0.7 -2.77,-0.26 -5.25,-1.37 -7.81,-2.25 -2.38,-0.82 -4.67,-1.89 -7.01,-2.84 -0.18,-0.07 -0.35,-0.18 -0.53,-0.25 -2.67,-1.04 -3.67,-0.46 -3.63,2.37 0.06,4.34 -1.09,8.45 -1.99,12.62 -0.23,1.07 -0.79,1.54 -1.83,1.5 -0.87,-0.03 -1.74,-0.17 -2.58,-0.38 -1.79,-0.44 -3.53,-1.1 -5.34,-1.4 -3.06,-0.52 -6.15,-0.82 -9.22,-1.23 -4.71,-0.63 -9.48,-0.99 -14.11,-1.98 -5.53,-1.19 -10.71,-3.52 -15.46,-6.61 -4.01,-2.62 -7.34,-6.05 -10.42,-9.7 -1.25,-1.48 -2.37,-3.08 -3.57,-4.6 -0.36,-0.45 -0.76,-0.91 -1.23,-1.22 -0.37,-0.24 -0.96,-0.44 -1.32,-0.3 -0.32,0.12 -0.64,0.73 -0.64,1.12 0.02,2.91 -0.15,5.86 0.26,8.73 1.37,9.57 6.5,16.64 14.8,21.51 4.23,2.48 8.81,4 13.53,5.19 4.34,1.1 8.76,1.59 13.22,1.99 4.44,0.4 8.9,0.87 13.25,1.78 6.69,1.39 13.11,3.72 18.65,7.8 6.15,4.53 10.71,10.34 12.93,17.83 1.78,6.01 2,12.11 0.68,18.14 -1.14,5.17 -3.6,9.83 -7.66,13.45 -0.29,0.26 -0.6,0.5 -0.89,0.76 -2.29,2.07 -2.53,2.61 -1.88,5.6 1.3,5.95 3.8,11.38 7.22,16.41 2.63,3.87 5.58,7.47 8.99,10.67 4.9,4.59 10.18,8.7 15.95,12.15 1.25,0.75 2.49,1.5 3.74,2.23 1.47,0.86 2.11,2.06 2.1,3.84 -0.06,9.33 -0.02,18.66 -0.02,27.99 0,3.11 0.03,6.22 -0.01,9.33 -0.03,1.84 -0.78,2.47 -2.61,2.06 -2.58,-0.58 -4.93,-1.73 -7.09,-3.27 -4.42,-3.15 -6.76,-7.65 -8.15,-12.73 -1,-3.66 -1.43,-7.43 -1.67,-11.2 -0.18,-2.83 -0.48,-5.65 -1.25,-8.33 -1.85,-6.46 -5.55,-11.37 -12.12,-13.89 -4.3,-1.65 -8.75,-2.5 -13.2,-3.49 -5.21,-1.16 -10.28,-2.68 -15.03,-5.24 -3.27,-1.76 -6.3,-3.83 -9.15,-6.16 -2.79,-2.29 -5.09,-5.06 -7.26,-7.94 -3.47,-4.6 -5.65,-9.83 -6.61,-15.39 -1.49,-8.58 -1.62,-17.19 1.53,-25.57 2.04,-5.43 5.11,-9.98 10.13,-13.12 2.1,-1.31 4.41,-2.2 6.75,-2.6 6.02,-1.04 11.87,-0.49 16.87,3.47 1.5,1.19 2.69,2.78 4.01,4.2 0.26,0.28 0.44,0.64 0.71,0.9 0.38,0.36 1.35,0.05 1.44,-0.45 0.07,-0.38 0.14,-0.78 0.07,-1.15 -1.59,-8.74 -6.34,-14.77 -14.89,-17.75 -6.59,-2.3 -13.15,-2.21 -19.77,-0.42 -4.56,1.23 -8.56,3.56 -12.2,6.54 -6.2,5.08 -10.3,11.55 -12.7,19.12 -0.73,2.3 -1.02,4.73 -1.62,7.06 -1.02,3.92 -0.88,7.91 -0.73,11.87 0.18,4.75 0.97,9.43 2.2,14.05 1.08,4.06 2.58,7.92 4.52,11.63 3.05,5.84 7.16,10.83 12.03,15.22 3.7,3.33 7.76,6.15 12.23,8.34 2.08,1.02 4.27,1.83 6.42,2.71 0.48,0.2 0.93,0.45 0.86,1 -0.05,0.33 -0.3,0.74 -0.58,0.92 -0.73,0.47 -1.5,0.9 -2.3,1.25 -6.19,2.66 -11.82,6.21 -17.18,10.28 -3.82,2.9 -7.22,6.19 -10.38,9.75 -3.94,4.44 -7.27,9.29 -10.08,14.55 -2.01,3.78 -3.81,7.65 -5.4,11.61 -1.26,3.14 -2.31,6.38 -3.26,9.63 -0.87,2.97 -1.59,5.99 -2.16,9.04 -0.74,3.9 -1.34,7.83 -1.84,11.77 -0.39,3.08 -0.5,6.19 -0.79,9.28 -0.16,1.64 -0.4,3.27 -0.67,4.9 -0.14,0.83 -0.68,1.38 -1.55,1.52 -1.53,0.26 -3.06,0.51 -4.59,0.78 -6.87,1.21 -13.36,3.48 -19.08,7.49 -6.06,4.26 -10.77,9.74 -13.54,16.73 -1.15,2.89 -1.9,5.86 -2.59,8.91 -0.89,3.96 -0.77,7.9 -0.84,11.86 -0.04,2.45 0.39,4.83 1,7.19 0.55,2.16 1.94,3.8 3.42,5.31 2.17,2.21 4.89,3.32 7.97,3.86 5.15,0.91 10.27,2.02 15.37,3.17 5.39,1.22 10.15,3.78 14.43,7.26 5.77,4.71 9.4,10.7 10.96,17.99 0.47,2.2 0.8,4.39 0.83,6.63 0.03,1.97 -0.6,2.6 -2.6,2.65 -1.26,0.03 -2.52,0.03 -3.79,0 -0.58,-0.01 -1.18,-0.05 -1.72,-0.22 -1.01,-0.31 -1.69,-0.96 -1.66,-2.11 0.06,-2.16 -0.44,-4.22 -0.87,-6.32 -0.46,-2.24 -1.66,-4.13 -2.38,-6.23 -0.4,-1.18 -1.46,-1.8 -2.71,-1.92 -0.77,-0.07 -1.55,-0.05 -2.33,-0.05 -3.11,0 -6.22,-0.01 -9.33,-0.02 -0.39,0 -0.78,-0.02 -1.16,0.03 -1.33,0.18 -1.94,1.17 -1.24,2.28 1.79,2.83 2.81,5.96 3.63,9.15 0.29,1.11 0.43,2.29 0.45,3.44 0.02,1.09 -0.72,1.86 -1.8,1.92 -1.65,0.09 -3.3,0.06 -4.95,0.04 -0.97,0 -1.68,-0.52 -2.02,-1.41 -0.31,-0.81 -0.64,-1.65 -0.75,-2.5 -0.52,-4.16 -2.38,-7.75 -4.64,-11.18 -0.77,-1.16 -1.79,-1.72 -3.16,-1.72 -3.79,-0.01 -7.58,-0.04 -11.37,-0.05 -0.38,0 -0.77,0.07 -1.14,0.18 -0.7,0.2 -1.11,0.97 -0.83,1.6 0.32,0.7 0.72,1.37 1.1,2.05 1.85,3.24 3.09,6.69 3.62,10.38 0.22,1.5 -0.22,2.23 -1.65,2.54 -0.56,0.12 -1.16,0.15 -1.74,0.12 -3.2,-0.18 -6.42,-0.23 -9.59,-0.64 -6.51,-0.84 -11.49,-5.98 -12.81,-12.59 -0.48,-2.41 -0.63,-4.8 -0.63,-7.22 0,-8.45 0,-16.91 0,-25.36 h -0.02 z m 22.24,-264.19 c 0,0 -0.04,0 -0.06,0 0,1.07 -0.04,2.14 0,3.2 0.09,1.94 0.02,3.91 0.39,5.8 0.65,3.32 1.54,6.6 2.39,9.87 2.11,8.15 6.41,15.15 11.84,21.44 2.72,3.15 5.85,5.95 8.86,8.84 0.97,0.93 2.13,1.68 3.27,2.43 0.99,0.65 1.87,0.42 2.47,-0.6 0.44,-0.75 0.81,-1.55 1.12,-2.36 2.26,-5.94 5.28,-11.44 9.4,-16.31 0.69,-0.81 1.36,-1.64 2.04,-2.46 1.16,-1.38 1.01,-2.35 -0.56,-3.23 -2.19,-1.24 -4.43,-2.39 -6.58,-3.7 -3.42,-2.09 -6.26,-4.89 -9.05,-7.74 -1.29,-1.32 -2.66,-2.61 -3.68,-4.13 -2.71,-4.03 -5.15,-8.24 -6.52,-12.94 -1.16,-4 -1.95,-8.08 -2.07,-12.29 -0.1,-3.43 0.42,-6.77 1,-10.11 0.2,-1.14 0.43,-2.29 0.82,-3.38 0.68,-1.92 1.52,-3.78 2.24,-5.68 0.31,-0.81 0.53,-1.65 0.73,-2.5 0.03,-0.12 -0.42,-0.51 -0.53,-0.47 -0.71,0.28 -1.47,0.54 -2.05,1 -1.21,0.97 -2.38,2 -3.45,3.12 -1.6,1.68 -3.2,3.39 -4.62,5.22 -2.67,3.41 -4.24,7.39 -5.44,11.51 -0.51,1.76 -0.63,3.64 -1.23,5.36 -0.53,1.51 -0.7,3.02 -0.73,4.57 -0.04,1.84 -0.01,3.69 -0.01,5.53 z m 57.71,15.47 c 0.49,-0.03 1.27,-0.03 2.03,-0.14 0.22,-0.03 0.52,-0.33 0.57,-0.56 0.05,-0.23 -0.1,-0.56 -0.25,-0.77 -0.16,-0.23 -0.42,-0.4 -0.67,-0.55 -4.37,-2.61 -8.14,-5.94 -11.42,-9.79 -5.38,-6.31 -8.47,-13.68 -9.27,-21.88 -0.71,-7.22 0.36,-14.29 2.81,-21.13 0.16,-0.46 0.34,-0.92 0.43,-1.39 0.18,-0.96 -0.62,-1.66 -1.62,-1.41 -0.37,0.09 -0.74,0.24 -1.08,0.41 -2.77,1.38 -5.54,2.69 -8.01,4.67 -3.07,2.46 -5,5.59 -6.49,9.09 -1.47,3.43 -2.07,7.06 -2.05,10.78 0.02,4.07 0.36,8.03 1.82,11.98 2.49,6.72 6.97,11.56 12.94,15.15 6.12,3.68 12.93,5.09 20.26,5.56 z m 31.89,-77.87 c 0,0.1 -0.01,0.2 -0.02,0.3 -1.36,0 -2.72,-0.09 -4.07,0.03 -1.19,0.11 -1.75,0.97 -1.4,2.07 0.48,1.47 0.96,2.98 1.72,4.32 1.73,3.02 5.7,4.91 9.26,3.61 2.1,-0.76 3.35,-2.31 3.62,-4.52 0.24,-1.97 -0.88,-3.32 -2.4,-4.34 -0.55,-0.37 -1.2,-0.71 -1.84,-0.83 -1.61,-0.28 -3.25,-0.43 -4.87,-0.63 z m 4.65,-9.37 c -0.54,-0.28 -1.02,-0.74 -1.47,-0.72 -2.81,0.11 -5.62,0.22 -8.41,0.53 -2.59,0.29 -5.16,0.85 -7.74,1.29 -1.15,0.2 -2.31,0.33 -3.43,0.63 -4.4,1.17 -8.78,2.4 -13.17,3.61 -5.82,1.61 -11.31,4.08 -16.69,6.76 -3.81,1.89 -7.43,4.15 -11.13,6.25 -0.25,0.14 -0.5,0.31 -0.7,0.51 -0.37,0.38 -0.55,0.87 -0.16,1.28 0.22,0.23 0.74,0.43 1.01,0.33 0.72,-0.26 1.41,-0.65 2.05,-1.07 6.99,-4.62 14.46,-8.28 22.36,-11.05 5.48,-1.92 11,-3.68 16.72,-4.87 6.1,-1.27 12.2,-2.25 18.42,-2.41 0.57,-0.01 1.16,-0.09 1.71,-0.25 0.21,-0.06 0.33,-0.42 0.63,-0.83 z m -52.9,9.79 c 0.37,-0.12 0.65,-0.17 0.91,-0.29 2.27,-1.06 4.54,-2.12 6.8,-3.21 0.56,-0.27 1.54,-0.21 1.44,-1.09 -0.04,-0.37 -0.79,-0.78 -1.29,-0.97 -3.02,-1.14 -5.3,-5.96 -3.95,-9.28 0.22,-0.53 0.36,-1.09 0.49,-1.65 0.09,-0.37 -0.42,-0.77 -0.76,-0.61 -2.61,1.24 -5.23,2.48 -7.82,3.74 -0.69,0.34 -1.36,0.74 -1.99,1.18 -0.79,0.55 -0.76,1.41 0.06,1.86 0.59,0.33 1.24,0.54 1.83,0.87 3.13,1.76 4.44,4.46 3.89,7.97 -0.04,0.28 -0.12,0.59 -0.05,0.85 0.06,0.23 0.29,0.41 0.45,0.62 z M 268.7,207.6 c -0.18,-0.26 -0.3,-0.61 -0.51,-0.68 -0.44,-0.16 -0.94,-0.25 -1.41,-0.22 -2.51,0.17 -5.04,0.28 -7.54,0.6 -3.27,0.41 -6.54,0.89 -9.77,1.53 -2.65,0.53 -5.25,1.33 -7.88,2.01 -1.22,0.31 -2.46,0.55 -3.65,0.95 -3.03,1 -6.08,1.98 -9.06,3.14 -3.71,1.44 -7.45,2.85 -11,4.62 -3.64,1.82 -7.07,4.05 -10.57,6.12 -1.15,0.68 -1.59,1.4 -1.35,2 0.24,0.59 1.2,0.47 2.31,-0.29 0.08,-0.06 0.15,-0.12 0.23,-0.18 3.55,-2.57 7.46,-4.54 11.35,-6.51 4.94,-2.51 10.18,-4.32 15.38,-6.21 1,-0.36 2,-0.73 3.03,-1.02 2.42,-0.67 4.85,-1.34 7.3,-1.93 2.64,-0.64 5.27,-1.4 7.95,-1.73 4.23,-0.52 8.45,-1.35 12.76,-1.06 0.64,0.04 1.32,-0.2 1.95,-0.4 0.21,-0.07 0.32,-0.44 0.49,-0.7 z m -15.08,20 c 0.1,0 0.2,0 0.29,-0.02 2.66,-0.53 5.32,-1.05 7.98,-1.59 0.68,-0.14 0.9,-0.86 0.34,-1.31 -2.85,-2.29 -2.98,-5.24 -2.11,-8.43 0.18,-0.64 0.55,-1.23 0.82,-1.85 0.26,-0.6 0.9,-1.25 0.3,-1.83 -0.32,-0.3 -1.08,-0.26 -1.63,-0.19 -2.21,0.28 -4.41,0.61 -6.6,0.96 -1.01,0.16 -2.46,-0.17 -2.78,1.01 -0.24,0.9 0.99,1.52 1.7,2.15 1.76,1.55 2.26,3.53 2.08,5.77 -0.11,1.46 -0.46,2.85 -1.19,4.15 -0.33,0.58 0.17,1.23 0.8,1.19 z m -16.7,3.5 c 2.91,0.07 5.66,-0.84 8.22,-2.29 1.34,-0.76 2.51,-1.85 3.3,-3.21 0.83,-1.44 1.32,-2.94 0.89,-4.69 -0.68,-2.74 -2.67,-3.96 -5.13,-4.51 -3.23,-0.71 -6.38,-0.25 -9.31,1.31 -1.91,1.01 -3.52,2.36 -4.65,4.27 -1.93,3.26 -1.16,6.23 2.1,8.14 1.42,0.83 2.95,0.87 4.59,0.99 z m -3.06,-20.87 c 0.46,-0.15 1.42,-0.36 2.27,-0.79 1.24,-0.63 1.6,-1.7 1.01,-2.94 -0.99,-2.11 -2.19,-4.11 -3.65,-5.93 -0.47,-0.59 -1.05,-0.85 -1.79,-0.61 -0.75,0.25 -1.07,0.88 -1.04,1.59 0.08,2.23 0.19,4.46 0.39,6.68 0.14,1.49 0.85,2.02 2.82,2 z m 21.93,-5.55 c 1.19,-0.28 2.32,-0.5 3.41,-0.84 0.27,-0.09 0.57,-0.59 0.57,-0.9 0,-0.3 -0.31,-0.77 -0.6,-0.87 -0.99,-0.38 -2.02,-0.66 -3.05,-0.92 -2.25,-0.57 -4.51,-1.06 -6.75,-1.66 -1.77,-0.47 -3.51,-1.07 -5.28,-1.58 -0.45,-0.13 -0.94,-0.15 -1.42,-0.15 -0.13,0 -0.32,0.22 -0.36,0.37 -0.05,0.16 -0.02,0.41 0.09,0.52 0.19,0.21 0.44,0.38 0.69,0.51 3.02,1.53 6.01,3.1 9.07,4.52 1.11,0.52 2.4,0.67 3.61,0.99 z m -21.76,-11.97 c -0.52,0.09 -1.1,0.14 -1.66,0.29 -1.87,0.49 -3.72,1.06 -5.61,1.5 -1.91,0.44 -2.63,1.83 -3.04,3.5 -0.19,0.78 0.42,1.41 1.15,1.19 3.43,-1.05 6.85,-2.11 10.26,-3.23 0.78,-0.26 2,-0.54 1.76,-1.55 -0.15,-0.64 -1.24,-1.08 -1.95,-1.55 -0.22,-0.14 -0.56,-0.09 -0.91,-0.14 z m -22.54,26.22 c 0,0 0.25,0.05 0.43,0 2.3,-0.67 4.23,-1.83 5.42,-4.01 1.25,-2.28 2.53,-4.55 3.79,-6.83 0.37,-0.68 0.75,-1.35 1.08,-2.05 0.23,-0.5 0.66,-1.11 0.02,-1.52 -0.19,-0.12 -0.77,0.36 -1.17,0.58 -0.08,0.04 -0.12,0.15 -0.18,0.22 -3.27,3.93 -6.54,7.86 -9.81,11.8 -0.18,0.22 -0.28,0.5 -0.4,0.76 -0.19,0.45 0.19,1.03 0.82,1.05 z m 11.47,-30.17 c 3.2,-0.3 6.07,-1.03 8.69,-2.59 0.53,-0.31 0.91,-0.73 0.79,-1.4 -0.12,-0.65 -0.59,-1 -1.2,-1.07 -1.44,-0.15 -2.84,-0.33 -4.14,-1.07 -0.59,-0.34 -1.39,-0.22 -1.87,0.34 -1.06,1.23 -2.07,2.51 -3.02,3.82 -0.24,0.34 -0.37,0.96 -0.22,1.31 0.14,0.34 0.72,0.49 0.98,0.65 z m 5.06,15.48 c 0,-0.29 0.02,-0.58 0,-0.87 -0.05,-0.5 -0.24,-1.02 -0.79,-1.03 -0.28,0 -0.67,0.36 -0.83,0.65 -1.68,3.25 -3.33,6.52 -4.95,9.81 -0.14,0.29 -0.13,0.81 0.04,1.05 0.19,0.25 0.68,0.43 1,0.39 2.99,-0.44 4.91,-2.39 5.24,-5.37 0.17,-1.53 0.2,-3.08 0.29,-4.63 z m 16.36,2.92 c 1.16,-0.39 2.26,-0.72 3.33,-1.12 0.43,-0.16 0.53,-0.95 0.2,-1.25 -0.28,-0.25 -0.59,-0.48 -0.92,-0.67 -2.94,-1.62 -5.89,-3.23 -8.85,-4.84 -0.25,-0.13 -0.54,-0.24 -0.82,-0.24 -0.26,0 -0.61,0.08 -0.76,0.26 -0.15,0.18 -0.25,0.62 -0.13,0.77 1.65,2.25 3.22,4.58 5.54,6.2 0.67,0.47 1.59,0.58 2.42,0.87 z m 25.23,17.03 c 0.46,0 0.66,0.01 0.85,0 0.52,-0.05 1.07,-0.27 1,-0.8 -0.04,-0.36 -0.51,-0.82 -0.88,-0.96 -0.72,-0.26 -1.54,-0.23 -2.26,-0.5 -1.29,-0.48 -2.57,-1.11 -2.9,-2.6 -0.32,-1.46 -0.19,-2.9 0.89,-4.1 0.52,-0.57 1.07,-1.14 1.49,-1.78 0.17,-0.25 0.12,-0.74 0,-1.06 -0.13,-0.38 -0.92,-0.44 -1.28,-0.1 -1.43,1.33 -2.72,2.77 -3.32,4.68 -0.36,1.14 -0.51,2.35 0.2,3.37 1.56,2.24 3.53,3.87 6.19,3.84 z m -58.19,6.25 c -0.46,0.03 -0.95,0.03 -1.42,0.1 -0.16,0.02 -0.4,0.22 -0.4,0.34 -0.01,0.26 0.03,0.59 0.19,0.78 0.63,0.77 1.6,0.55 2.43,0.75 2.32,0.56 3.47,2.03 3.38,4.37 -0.02,0.56 -0.18,1.17 -0.46,1.64 -0.55,0.9 -1.26,1.69 -1.84,2.58 -0.18,0.27 -0.27,0.79 -0.12,1.04 0.31,0.51 0.86,0.35 1.28,0.09 1.71,-1.1 2.76,-2.74 3.32,-4.62 0.71,-2.36 -0.24,-4.38 -2.39,-5.69 -0.41,-0.25 -0.86,-0.45 -1.23,-0.75 -0.81,-0.67 -1.7,-0.88 -2.73,-0.62 z m 54.95,-27.06 c 1.44,0.02 2.27,-0.15 2.61,-1.77 0.17,-0.83 0.64,-1.59 0.97,-2.39 0.15,-0.35 0.31,-0.7 0.42,-1.06 0.15,-0.47 -0.33,-1.04 -0.79,-0.9 -0.53,0.16 -1.2,0.31 -1.52,0.7 -1.08,1.34 -2.04,2.77 -3.01,4.2 -0.25,0.37 0.12,0.99 0.59,1.1 0.28,0.06 0.56,0.1 0.72,0.13 z m -66.2,16.03 c -0.28,0.03 -0.39,0.01 -0.46,0.05 -0.31,0.18 -0.8,0.32 -0.87,0.57 -0.07,0.26 0.19,0.73 0.45,0.93 0.97,0.77 2,1.47 3.01,2.18 0.9,0.63 2.25,0.63 3.24,-0.12 0.33,-0.25 0.62,-0.82 0.58,-1.2 -0.04,-0.36 -0.49,-0.83 -0.86,-0.98 -1.16,-0.46 -2.36,-0.82 -3.56,-1.17 -0.55,-0.16 -1.13,-0.21 -1.52,-0.28 z m 29.97,-29.77 c -1.34,0.52 -2.59,0.97 -3.81,1.51 -0.47,0.21 -0.7,0.77 -0.39,1.21 0.23,0.33 0.81,0.74 1.1,0.66 1.19,-0.33 2.36,-0.78 3.48,-1.31 0.33,-0.16 0.66,-0.77 0.62,-1.12 -0.04,-0.33 -0.59,-0.59 -1,-0.95 z m -17.7,46.97 c -0.38,-0.44 -0.77,-0.93 -1.2,-1.36 -0.09,-0.09 -0.43,-0.09 -0.52,0 -0.17,0.18 -0.39,0.5 -0.33,0.68 0.17,0.52 0.43,1.03 0.75,1.47 0.11,0.15 0.56,0.19 0.75,0.09 0.21,-0.11 0.29,-0.44 0.55,-0.87 z m 56.88,-20.09 c -0.86,0 -1.2,0.87 -0.78,1.56 0.16,0.26 0.6,0.54 0.86,0.5 0.22,-0.04 0.55,-0.56 0.5,-0.81 -0.09,-0.47 -0.41,-0.9 -0.59,-1.24 z"
       id="path5" />
    <path
       d="m 666.74,593.51 c -1.65,0 -3.31,0.05 -4.96,-0.01 -2.06,-0.09 -3.53,0.64 -4.43,2.59 -1.72,3.71 -3.24,7.47 -3.67,11.58 -0.2,1.9 -0.89,2.6 -2.75,2.68 -1.65,0.07 -3.3,0.06 -4.95,-0.03 -1.57,-0.09 -2.25,-0.89 -2.07,-2.52 0.35,-3.2 1.22,-6.27 2.51,-9.22 0.46,-1.06 0.93,-2.14 1.21,-3.26 0.28,-1.15 -0.36,-1.86 -1.57,-1.86 -3.5,0 -7,0 -10.49,0.05 -1.8,0.02 -3.01,0.85 -3.93,2.49 -2.08,3.68 -3.43,7.57 -4.19,11.71 -0.38,2.06 -1.09,2.61 -3.12,2.65 -1.26,0.03 -2.52,0.05 -3.78,-0.02 -0.66,-0.04 -1.32,-0.26 -1.95,-0.49 -0.71,-0.26 -1.05,-0.84 -1.03,-1.6 0.02,-0.78 -0.02,-1.57 0.11,-2.33 0.69,-3.82 1.57,-7.58 3.28,-11.12 1.46,-3.02 3.46,-5.64 5.79,-7.98 3.17,-3.17 6.76,-5.78 10.78,-7.87 4.16,-2.17 8.55,-3.7 13,-5.07 3.04,-0.94 6.22,-1.45 9.32,-2.18 4.91,-1.16 9.84,-2.28 14.37,-4.62 6.48,-3.35 11.13,-8.35 13.72,-15.21 1.14,-3.03 1.68,-6.15 1.74,-9.4 0.09,-4.13 -0.37,-8.15 -2.06,-11.95 -0.59,-1.32 -1.23,-2.65 -2.04,-3.85 -3.58,-5.27 -8.34,-9.17 -14.12,-11.81 -1.59,-0.72 -3.25,-1.28 -4.87,-1.93 -0.54,-0.22 -1.06,-0.49 -1.59,-0.73 -0.8,-0.36 -1.17,-0.98 -1.13,-1.85 0.11,-2.33 0.18,-4.66 0.34,-6.98 0.13,-1.94 0.45,-3.87 0.53,-5.8 0.25,-5.85 1.49,-11.54 2.61,-17.25 0.6,-3.07 1.65,-5.97 2.75,-8.87 1.1,-2.91 2.14,-5.83 3.69,-8.54 2.08,-3.62 4.29,-7.11 6.92,-10.39 3.87,-4.82 8.35,-8.93 13.39,-12.42 2.86,-1.99 5.97,-3.62 8.97,-5.41 1.07,-0.64 2.29,-0.67 3.4,-0.34 2.69,0.8 5.44,1.53 7.98,2.69 11.86,5.43 19.85,14.37 23.7,26.87 0.6,1.93 0.74,4.01 1.01,6.03 0.24,1.76 -0.18,2.49 -1.94,3.05 -2.72,0.87 -5.2,2.15 -7.46,3.86 -3.3,2.49 -5.94,5.55 -7.94,9.17 -1.84,3.33 -3.26,6.81 -4.21,10.51 -0.83,3.22 -1.08,3.23 -3.72,1.46 -5.48,-3.66 -8.45,-8.96 -9.94,-15.2 -0.54,-2.26 -0.81,-4.58 -1.2,-6.87 -0.08,-0.48 -0.11,-0.97 -0.22,-1.44 -0.16,-0.66 -0.32,-1.35 -1.09,-1.59 -0.51,-0.16 -1,0.38 -1.42,1.55 -0.95,2.64 -2.2,5.16 -2.85,7.93 -0.93,4.01 -1.4,8.05 -1.09,12.13 0.22,2.89 0.35,5.78 1.17,8.63 2.55,8.84 7.37,15.95 15.1,21.07 4.09,2.71 8.5,4.67 13.15,6.13 4.35,1.36 8.78,2.42 13.3,3.07 1.39,0.2 1.78,1.12 0.88,2.26 -1.77,2.23 -3.96,3.97 -6.44,5.39 -3.87,2.21 -8.07,3.31 -12.46,3.68 -1.91,0.16 -2.88,0.94 -3.53,2.79 -1.32,3.75 -2.97,7.38 -4.49,11.06 -1.07,2.6 -2.17,5.19 -3.25,7.78 -1.6,3.85 -3.21,7.69 -4.79,11.55 -2.25,5.47 -4.44,10.97 -6.74,16.42 -1.13,2.68 -2.26,5.36 -4.02,7.73 -3.37,4.54 -7.79,7.13 -13.42,7.8 -3.2,0.38 -6.39,0.46 -9.59,0.44 -1.4,0 -1.81,-0.42 -1.65,-1.72 0.14,-1.15 0.39,-2.29 0.71,-3.4 0.89,-3.08 2.01,-6.07 3.71,-8.82 0.2,-0.33 0.38,-0.68 0.5,-1.05 0.25,-0.78 -0.25,-1.62 -1.06,-1.76 -0.47,-0.08 -0.96,-0.07 -1.45,-0.07 -1.65,0 -3.3,0 -4.96,0 v 0.05 z"
       id="path8" />
    <path
       d="m 328.45,503.77 c 0,1.85 0,3.69 0,5.54 0,2.49 -0.21,2.9 -2.48,3.62 -3.74,1.18 -7.2,2.89 -10.37,5.18 -3.71,2.69 -7.14,5.64 -9.39,9.77 -3.77,6.92 -4.53,14.12 -2.3,21.67 1.58,5.35 4.42,9.87 8.6,13.59 2.36,2.1 5,3.73 7.9,4.84 2.97,1.14 6.02,2.1 9.14,2.87 6.49,1.59 13,3.16 19.33,5.34 8.31,2.87 15.31,7.62 20.48,14.72 2.87,3.94 4.61,8.53 5.26,13.43 0.17,1.25 0.36,2.5 0.43,3.76 0.08,1.45 -0.58,2.16 -2.04,2.21 -1.75,0.06 -3.5,0.08 -5.24,0 -1.63,-0.08 -2.48,-0.88 -2.67,-2.53 -0.4,-3.41 -1.44,-6.61 -2.93,-9.69 -0.17,-0.35 -0.31,-0.71 -0.51,-1.05 -1.9,-3.24 -2.44,-3.54 -6.29,-3.55 -2.72,0 -5.44,-0.01 -8.16,-0.02 -0.29,0 -0.59,-0.02 -0.87,0.01 -1.53,0.17 -2.05,1.25 -1.37,2.45 0.38,0.67 0.65,1.41 0.99,2.11 1.56,3.18 2.26,6.58 2.59,10.08 0.11,1.16 -0.42,1.99 -1.53,2.07 -1.93,0.14 -3.87,0.13 -5.81,0.08 -0.96,-0.02 -1.61,-0.66 -1.87,-1.59 -0.23,-0.84 -0.42,-1.7 -0.55,-2.56 -0.52,-3.5 -2.01,-6.67 -3.44,-9.85 -0.82,-1.84 -2.21,-2.88 -4.34,-2.84 -3.4,0.07 -6.8,0.05 -10.2,0.1 -0.57,0 -1.16,0.08 -1.71,0.23 -0.76,0.2 -1.06,0.89 -0.72,1.57 0.62,1.21 1.34,2.37 1.91,3.6 1.18,2.55 2.33,5.12 2.67,7.96 0.06,0.48 0.14,0.97 0.14,1.45 0,1.34 -0.58,2.02 -1.91,2.01 -2.04,-0.02 -4.07,-0.14 -6.11,-0.25 -0.87,-0.05 -1.74,-0.21 -2.61,-0.28 -4.2,-0.35 -7.82,-1.9 -10.99,-4.76 -2.98,-2.69 -4.9,-6 -6.45,-9.58 -1.31,-3.03 -2.5,-6.11 -3.76,-9.15 -1.78,-4.3 -3.61,-8.59 -5.36,-12.9 -2.82,-6.92 -5.58,-13.86 -8.38,-20.79 -0.8,-1.98 -1.68,-3.92 -2.46,-5.91 -0.48,-1.21 -1.22,-1.85 -2.58,-1.95 -2.51,-0.19 -4.98,-0.66 -7.41,-1.42 -3.86,-1.21 -7.39,-2.94 -10.35,-5.72 -0.77,-0.72 -1.41,-1.59 -2.03,-2.45 -0.45,-0.62 -0.12,-1.43 0.63,-1.61 1.41,-0.35 2.83,-0.71 4.26,-0.93 5.61,-0.85 10.96,-2.57 16.14,-4.8 3.75,-1.62 7.26,-3.71 10.28,-6.51 2.93,-2.72 5.65,-5.62 7.57,-9.17 2,-3.68 3.42,-7.53 4.28,-11.68 0.9,-4.36 0.96,-8.67 0.47,-13.02 -0.54,-4.75 -1.86,-9.3 -4.17,-13.52 -0.28,-0.5 -0.5,-1.08 -1.21,-1.08 -0.52,0 -1.02,0.59 -0.99,1.56 0.12,3.26 -0.74,6.34 -1.58,9.43 -0.85,3.12 -2.18,6.05 -4.01,8.69 -1.78,2.57 -4.1,4.67 -6.84,6.22 -1.53,0.87 -2.44,0.47 -2.59,-1.32 -0.34,-3.98 -1.95,-7.51 -3.82,-10.9 -3.44,-6.23 -8.33,-10.91 -15.14,-13.38 -2.21,-0.8 -2.4,-1.11 -2.28,-3.39 0.14,-2.63 0.73,-5.14 1.47,-7.69 2.15,-7.37 6.66,-13.1 12.21,-18.07 4.82,-4.32 10.48,-7.21 16.76,-9.04 4.51,-1.31 4.65,-0.94 8.45,1.18 3.13,1.75 5.99,3.92 8.84,6.12 3.64,2.81 6.91,5.98 9.88,9.43 3.17,3.68 5.79,7.74 8.02,12.09 2.13,4.18 3.77,8.53 4.98,13.01 0.95,3.54 2.07,7.06 2.34,10.79 0.2,2.79 0.94,5.54 1.25,8.33 0.29,2.6 0.33,5.23 0.48,7.84 0.03,0 0.05,0 0.08,0 z"
       id="path9" />
    <path
       d="m 496.4,396.45 c -5.37,-0.63 -10.35,-1.35 -14.7,-4.26 -0.56,-0.38 -1.16,-0.7 -1.78,-0.98 -1.14,-0.52 -1.48,-0.46 -2.1,0.64 -0.7,1.23 -1.68,2.13 -2.83,2.86 -1.44,0.92 -2.68,0.83 -4.03,-0.25 -0.52,-0.42 -0.98,-0.94 -1.37,-1.49 -0.82,-1.15 -0.89,-2.39 0.02,-3.49 0.86,-1.03 1.82,-1.99 2.83,-2.88 1,-0.87 1.19,-1.31 0.64,-2.44 -0.21,-0.43 -0.52,-0.82 -0.75,-1.24 -0.61,-1.1 -1.26,-2.17 -1.79,-3.3 -2.36,-5.08 -2.81,-10.34 -1.89,-15.88 0.64,-3.82 1.9,-7.29 3.95,-10.52 0.36,-0.57 0.69,-1.17 0.94,-1.8 0.19,-0.46 0.18,-1.02 -0.41,-1.21 -1.4,-0.46 -2.05,-1.68 -2.98,-2.66 -1.26,-1.33 -0.95,-2.62 -0.27,-3.98 0.8,-1.62 2.32,-2.53 4.01,-2.3 0.64,0.09 1.36,0.32 1.84,0.73 0.88,0.74 1.7,1.59 2.4,2.5 0.92,1.2 0.86,1.26 2.21,0.63 0.61,-0.29 1.23,-0.58 1.78,-0.98 2.82,-2.04 6.07,-3 9.39,-3.67 3.75,-0.76 7.56,-0.57 11.28,0.15 2.95,0.58 5.74,1.76 8.28,3.44 0.8,0.53 1.67,0.97 2.55,1.38 0.36,0.17 0.76,0.09 0.89,-0.43 0.47,-1.88 2.06,-2.84 3.48,-3.71 2.17,-1.32 5.28,0.78 5.39,3.45 0.04,1 -0.14,1.96 -0.91,2.68 -0.91,0.86 -1.83,1.72 -2.81,2.5 -0.56,0.45 -0.67,0.89 -0.34,1.49 0.51,0.94 0.96,1.91 1.52,2.82 4.25,6.92 4.23,17.37 1.81,23.31 -0.73,1.8 -1.35,3.61 -2.52,5.19 -0.4,0.54 -0.66,1.18 -0.94,1.8 -0.28,0.6 -0.14,1.07 0.4,1.52 0.96,0.8 1.99,1.57 2.74,2.55 1.36,1.76 1.11,3.31 -0.27,4.99 -1.11,1.34 -3.44,1.7 -5.04,0.7 -1.09,-0.69 -1.94,-1.55 -2.52,-2.74 -0.53,-1.1 -0.7,-1.11 -1.78,-0.57 -0.78,0.39 -1.53,0.84 -2.27,1.29 -2.77,1.65 -5.7,2.86 -8.92,3.32 -1.81,0.26 -3.61,0.61 -5.12,0.86 z m 0.21,-51.23 c -2.66,0.06 -5.26,0.18 -7.77,1.09 -3.83,1.39 -7.09,3.63 -9.79,6.61 -2.1,2.31 -3.63,5.05 -4.54,8.04 -0.61,2.02 -1,4.13 -1.29,6.23 -0.3,2.23 0.23,4.41 0.7,6.61 1.1,5.09 3.93,9.02 7.76,12.32 3.17,2.74 7.01,4.17 11.05,4.92 2.28,0.42 4.67,0.54 6.96,0 3.02,-0.72 5.95,-1.65 8.65,-3.33 3.29,-2.06 6,-4.68 7.88,-7.99 3.68,-6.52 4.31,-13.39 1.56,-20.43 -3.18,-8.13 -12.46,-14.85 -21.17,-14.06 z"
       id="path41" />
    <path
       d="m 441.41,345.27 c -0.22,0.52 -0.48,1.35 -0.92,2.07 -0.34,0.57 -0.91,1 -1.34,1.52 -0.6,0.72 -2.06,0.8 -1.96,1.91 0.08,0.89 0.77,1.75 1.27,2.57 2.74,4.52 3.94,9.48 4,14.71 0.06,5.16 -1.43,9.94 -4.08,14.36 -0.3,0.5 -0.64,0.97 -0.92,1.48 -0.7,1.28 -0.68,1.28 0.57,2.35 0.73,0.63 1.49,1.27 2.1,2.01 1.54,1.87 1.44,3.84 -0.19,5.47 -1.54,1.54 -4.1,1.61 -5.77,0.02 -0.83,-0.79 -1.4,-1.83 -2.15,-2.7 -0.19,-0.22 -0.74,-0.4 -0.97,-0.28 -0.87,0.41 -1.69,0.95 -2.52,1.45 -4.7,2.79 -9.81,4.22 -15.25,4.06 -4,-0.12 -7.86,-1.12 -11.47,-2.92 -1.56,-0.78 -3.11,-1.59 -4.69,-2.32 -0.44,-0.21 -1,-0.2 -1.16,0.45 -0.44,1.8 -2,2.57 -3.33,3.46 -1.22,0.82 -2.47,0.15 -3.56,-0.48 -1.92,-1.12 -2.42,-3.39 -1.22,-5.24 0.69,-1.07 1.55,-1.97 2.69,-2.61 1.33,-0.75 1.31,-0.79 0.58,-2.15 -0.74,-1.36 -1.62,-2.67 -2.23,-4.09 -1.74,-4.04 -2.97,-8.23 -2.72,-12.68 0.29,-4.99 1.46,-9.76 4.19,-14.05 0.47,-0.74 0.93,-1.48 1.36,-2.24 0.39,-0.69 0.32,-1.02 -0.53,-1.25 -1.71,-0.45 -2.47,-1.81 -3.23,-3.15 -0.79,-1.39 -0.69,-2.78 0.35,-4.07 1.14,-1.42 2.56,-2.07 4.36,-1.57 0.45,0.12 0.91,0.37 1.26,0.67 0.73,0.64 1.42,1.32 2.07,2.04 0.38,0.42 0.64,1.33 0.95,1.33 0.72,0 1.47,-0.36 2.14,-0.7 1.47,-0.75 2.84,-1.69 4.34,-2.37 5.29,-2.42 10.85,-2.88 16.51,-1.86 3.16,0.57 6.2,1.55 8.85,3.49 0.54,0.4 1.15,0.72 1.76,1 0.43,0.2 0.98,0.47 1.37,0.35 0.33,-0.1 0.46,-0.75 0.76,-1.09 0.72,-0.79 1.44,-1.58 2.24,-2.28 1.31,-1.16 2.92,-1.17 4.39,-0.58 1.49,0.59 1.95,2.05 2.12,3.92 z m -26.98,-0.21 c -2.11,0.27 -4.3,0.29 -6.32,0.86 -5.84,1.65 -10.3,5.21 -13.5,10.37 -1.5,2.42 -2.34,5.02 -2.99,7.8 -1,4.26 -0.48,8.28 1.02,12.24 1.21,3.22 3.15,5.94 5.57,8.42 3.86,3.96 8.68,6.02 13.96,6.39 8.7,0.61 15.95,-2.62 21.02,-9.95 2.75,-3.98 4.51,-8.35 4.12,-13.34 -0.02,-0.29 -0.02,-0.58 0,-0.87 0.22,-4.36 -1.24,-8.31 -3.65,-11.73 -4.62,-6.55 -10.84,-10.44 -19.21,-10.21 z"
       id="path42" />
    <path
       d="m 577.37,396.45 c -5.15,-0.59 -9.89,-1.45 -14.08,-4.2 -0.32,-0.21 -0.66,-0.41 -1,-0.59 -1.79,-0.97 -2.32,-0.85 -3.31,0.82 -0.66,1.11 -1.57,1.95 -2.82,2.4 -1.74,0.63 -3.69,0.15 -4.7,-1.24 -1.02,-1.39 -1.03,-3.55 0.07,-4.89 0.61,-0.74 1.35,-1.39 2.09,-2 0.41,-0.34 1.27,-0.21 1.28,-0.97 0,-0.56 -0.19,-1.15 -0.44,-1.66 -0.61,-1.21 -1.3,-2.39 -1.96,-3.57 -1.53,-2.75 -2.36,-5.71 -2.67,-8.83 -0.56,-5.64 0.16,-11.03 2.93,-16.06 0.61,-1.1 1.26,-2.19 1.85,-3.3 0.66,-1.25 0.78,-1.87 -0.64,-2.6 -1.35,-0.69 -2.32,-1.75 -2.81,-3.2 -0.9,-2.65 0.85,-5.29 3.63,-5.37 0.73,-0.02 1.56,0.21 2.18,0.6 1.25,0.77 2.33,1.77 2.82,3.22 0.27,0.8 0.76,0.78 1.35,0.48 0.69,-0.36 1.38,-0.73 2.02,-1.16 3.36,-2.27 7.09,-3.46 11.08,-4.04 3.03,-0.44 6.02,-0.26 9,0.13 3.41,0.45 6.47,2 9.44,3.67 0.42,0.24 0.79,0.57 1.21,0.81 1.13,0.65 1.34,0.55 2.25,-0.59 0.67,-0.83 1.37,-1.65 2.18,-2.34 1.48,-1.28 3.68,-1.3 5.1,-0.15 1.38,1.11 1.77,2.92 1.07,4.75 -0.59,1.56 -1.79,2.47 -3.15,3.29 -0.8,0.49 -0.87,1.15 -0.39,2.01 0.05,0.08 0.1,0.17 0.15,0.25 3.07,4.21 4.3,9.08 4.86,14.14 0.18,1.61 -0.06,3.29 -0.27,4.91 -0.21,1.63 -0.55,3.24 -0.97,4.83 -0.75,2.84 -2.18,5.38 -3.73,7.87 -0.84,1.35 -0.78,1.36 0.41,2.31 0.68,0.54 1.35,1.11 1.97,1.72 0.8,0.78 1.2,1.79 1.25,2.88 0.1,2.44 -1.43,4.46 -4.44,4.06 -1.59,-0.21 -3.12,-0.95 -3.9,-2.67 -0.65,-1.41 -1.57,-1.76 -2.71,-0.85 -1.17,0.94 -2.53,1.41 -3.8,2.08 -2.34,1.23 -4.81,2.05 -7.46,2.33 -1.73,0.18 -3.44,0.49 -4.91,0.71 z m -0.15,-5.15 c 12.58,0.25 23.47,-9.87 23.78,-23.27 0.14,-5.96 -2.09,-11.22 -6.07,-15.6 -4.14,-4.56 -9.33,-6.91 -15.6,-7.28 -13.94,-0.82 -24.74,10.16 -24.64,23.35 0.1,12.89 10.03,22.38 22.54,22.79 z"
       id="path43" />
    <path
       d="m 499.83,280.3 c -0.07,2.07 -1.68,3.61 -3.75,3.59 -2.17,-0.02 -3.88,-1.73 -3.84,-3.85 0.03,-1.84 1.93,-3.62 3.84,-3.6 2.27,0.02 3.83,1.63 3.75,3.86 z"
       id="path44" />
    <path
       d="m 753.82,229.22 c -3.1,0.53 -7.41,-2.22 -8.69,-5.74 -0.73,-2.01 0.57,-4.38 2.84,-5.35 2.38,-1.02 4.74,-0.76 7.04,0.14 1.82,0.72 3.41,1.81 4.5,3.52 2.07,3.25 0.39,6.82 -3.48,7.3 -0.77,0.1 -1.55,0.09 -2.22,0.13 z m -1.99,-8.86 c -0.31,0 -0.6,-0.03 -0.89,0 -2.09,0.22 -3.02,2.31 -1.81,4.05 1.4,2.01 4.54,2.87 6.73,1.84 1.17,-0.55 1.69,-2.19 0.85,-3.2 -1.26,-1.51 -2.72,-2.79 -4.88,-2.69 z"
       id="path45" />
    <path
       d="m 238.25,229.63 c -1.87,0.16 -3.4,-0.42 -4.82,-1.31 -1.45,-0.91 -2.03,-2.37 -1.65,-4.02 0.31,-1.35 0.94,-2.56 1.96,-3.51 2.67,-2.51 5.84,-3.39 9.4,-2.65 1.45,0.3 2.65,1.18 3.5,2.45 0.9,1.36 0.64,3.32 -0.38,4.91 -1.93,2.99 -4.75,4.11 -8,4.13 z m 1.83,-9.14 c -0.37,0.14 -1.17,0.44 -1.97,0.75 -0.06,0.02 -0.1,0.18 -0.08,0.26 0.02,0.08 0.12,0.19 0.19,0.2 0.58,0.01 1.16,-0.06 1.73,0.02 0.93,0.13 1.7,0.96 1.67,1.73 -0.03,0.82 -0.72,1.07 -1.29,1.41 -0.72,0.43 -1.44,0.44 -2.21,0.1 -0.67,-0.3 -1.16,-0.64 -1.12,-1.48 0.02,-0.4 -0.19,-0.84 -0.68,-0.68 -0.3,0.1 -0.64,0.48 -0.71,0.8 -0.41,1.78 0.2,2.8 1.93,3.28 1.62,0.45 3.05,-0.06 4.41,-0.9 1.54,-0.96 2.28,-2.36 1.89,-3.56 -0.4,-1.21 -1.49,-1.85 -3.77,-1.92 z"
       id="path46" />
    <path
       d="m 496.39,388.37 c -6.51,0.12 -11.8,-2.5 -15.81,-7.39 -4.02,-4.9 -5.55,-10.7 -4.05,-16.94 1.98,-8.27 7.26,-13.42 15.52,-15.64 4.27,-1.15 8.35,-0.56 12.21,1.11 5.24,2.26 9.31,5.94 11.23,11.5 1.56,4.52 1.67,9.07 -0.06,13.64 -2.51,6.64 -7.18,10.92 -13.87,13 -1.64,0.51 -3.43,0.49 -5.16,0.72 z m 16.47,-20.42 c 0.3,-3.38 -0.73,-6.65 -2.83,-9.59 -2.93,-4.09 -6.88,-6.38 -11.94,-6.86 -6.38,-0.61 -11.55,1.82 -15.25,6.74 -5.1,6.79 -4.51,16.89 2.9,23.02 2.17,1.79 4.64,2.71 7.34,3.26 4.31,0.87 8.31,0.14 11.98,-2.21 5.11,-3.28 7.81,-7.95 7.8,-14.36 z"
       id="path47" />
    <path
       d="m 413.9,388.24 c -2.95,0.02 -5.91,-0.39 -8.63,-1.86 -2.93,-1.58 -5.54,-3.61 -7.54,-6.28 -0.97,-1.29 -1.76,-2.81 -2.29,-4.34 -2.21,-6.39 -1.96,-12.73 1.81,-18.41 3.13,-4.7 7.55,-7.81 13.34,-9.06 5.44,-1.18 10.25,0.09 14.75,2.76 3.84,2.28 6.64,5.78 8.12,9.99 1.75,5 1.55,10.05 -0.57,15.03 -3.08,7.23 -11.23,12.55 -18.99,12.17 z m 16.99,-19.99 c 0.01,-2.57 -0.24,-4.95 -1.31,-7.22 -1.59,-3.36 -3.92,-5.99 -7.21,-7.73 -4.06,-2.14 -8.39,-2.49 -12.72,-1.25 -4.24,1.22 -7.57,3.83 -9.76,7.77 -1.44,2.59 -2.32,5.35 -2.34,8.31 -0.04,5.52 2.39,9.88 6.57,13.35 1.91,1.58 4.1,2.43 6.53,2.95 5.77,1.22 10.83,-0.14 15.07,-4.1 3.47,-3.24 5.32,-7.34 5.17,-12.08 z"
       id="path48" />
    <path
       d="m 577.6,388.22 c -10.65,0.48 -19.62,-8.17 -20.05,-18.82 -0.5,-12.28 8.64,-21.59 20.58,-21.52 10.98,0.06 19.49,8.32 19.9,19.36 0.45,12.12 -9.79,21.46 -20.43,20.98 z m 17,-20.32 c 0.04,-7.71 -5.95,-16.55 -16.45,-16.58 -10.3,-0.03 -17.28,8.22 -17.15,17.18 0.16,10.19 8.72,16.79 17.17,16.41 10.84,-0.49 16.42,-9.28 16.43,-17.01 z"
       id="path49" />
    <path
       d="m 752.86,225.03 c -0.41,-0.24 -1.21,-0.57 -1.83,-1.1 -0.76,-0.65 -0.45,-1.96 0.45,-2.4 1.29,-0.63 3.06,0.22 3.37,1.62 0.21,0.96 -0.61,1.94 -2,1.88 z"
       id="path50" />
    <path
       d="m 496.5,375.51 c -4.34,0.04 -7.47,-2.94 -7.71,-7.02 -0.23,-3.95 3.22,-7.86 7.49,-7.95 3.93,-0.08 7.67,3.5 7.64,7.59 -0.02,3.66 -2.98,7.57 -7.42,7.38 z"
       id="path51" />
    <path
       d="m 406.86,368.19 c -0.17,-4.16 3.29,-7.71 7.44,-7.6 4.26,0.11 7.6,3.42 7.64,7.53 0.04,4.38 -4.37,7.66 -8.09,7.45 -3.99,-0.23 -7.03,-3.3 -6.99,-7.38 z"
       id="path52" />
    <path
       d="m 585.3,368.08 c -0.03,4.42 -3.32,7.53 -7.85,7.45 -3.84,-0.07 -7.18,-3.29 -7.29,-6.83 -0.13,-4.42 3.79,-8.34 8,-8.13 4.14,0.21 7.17,3.26 7.14,7.52 z"
       id="path53" />
    <path
       class="cls-3"
       d="m 611.95,457.33 c -0.49,3.24 -1.07,6.59 -1.74,10.02 -3.71,18.85 -10.34,40.31 -22.05,60.94 0,0.02 -0.03,0.05 -0.04,0.07 -1.91,3.37 -3.96,6.71 -6.16,10.02 -17.72,26.69 -44.87,50.94 -86.41,64.89 l -0.08,0.02 -0.08,-0.02 c -41.54,-13.95 -68.7,-38.2 -86.42,-64.89 -2.19,-3.31 -4.24,-6.65 -6.16,-10.02 -0.01,-0.02 -0.03,-0.05 -0.04,-0.07 -11.71,-20.63 -18.34,-42.09 -22.05,-60.94 -0.67,-3.43 -1.25,-6.78 -1.74,-10.02 -4.13,-27.07 -2.39,-46.65 -2.39,-46.65 l 118.8,-0.49 h 0.16 l 118.79,0.49 c 0,0 1.74,19.59 -2.39,46.65 z"
       id="path54" />
    <path
       class="cls-2"
       d="m 588.16,528.29 c 0,0 -0.03,0.05 -0.04,0.07 -1.91,3.37 -3.96,6.71 -6.16,10.02 -17.72,26.69 -44.87,50.94 -86.41,64.89 l -0.08,0.02 -0.08,-0.02 c -41.54,-13.95 -68.7,-38.2 -86.42,-64.89 -2.19,-3.31 -4.24,-6.65 -6.16,-10.02 -0.01,-0.02 -0.03,-0.05 -0.04,-0.07 z"
       id="path55" />
    <path
       class="cls-1"
       d="m 610.21,467.35 c -3.71,18.87 -10.35,40.36 -22.09,61.01 -1.91,3.37 -3.96,6.71 -6.16,10.02 H 408.97 c -2.19,-3.31 -4.24,-6.65 -6.16,-10.02 -11.74,-20.65 -18.38,-42.14 -22.09,-61.01 z"
       id="path56" />
    <g
       id="g59">
      <path
         d="m 494.14,264.45 c 0,0 0.14,0.05 0.16,0.05 0,0.03 -0.05,0.05 0,0.13 -0.02,0 -0.1,-0.08 -0.16,-0.05 -0.02,0 -0.01,0.03 0.01,0.1 -0.21,0 -0.38,0.05 -0.5,0.18 0.03,0.03 0.09,0.05 0.13,0.05 0.03,-0.1 0.23,-0.13 0.3,-0.21 l 0.03,0.08 c 0,0 0.14,-0.08 0.23,-0.08 -0.16,0.13 -0.47,0.31 -0.93,0.55 -0.45,0.24 -0.76,0.42 -0.93,0.55 0.05,0.08 0.14,-0.08 0.16,0 -0.04,0.08 -0.23,0.13 -0.23,0.21 -0.1,-0.08 0.07,-0.13 0.06,-0.16 -0.1,-0.03 -0.24,0.18 -0.33,0.18 0.05,0.08 0.05,0.13 -0.02,0.16 -0.03,-0.08 0.01,-0.1 -0.02,-0.13 -0.07,0 -0.05,0.05 0,0.13 -0.06,0.03 -0.22,0.18 -0.3,0.21 -0.03,-0.08 0.08,-0.1 0.07,-0.13 -0.13,-0.1 -0.1,0.1 -0.22,0.1 0,0.03 0.07,0.05 0.07,0.13 h -0.07 c -0.19,-0.16 -0.11,0.08 -0.28,0.08 0.12,0.08 0.18,-0.08 0.28,-0.08 -0.08,0.1 -0.32,0.29 -0.41,0.37 -0.04,-0.05 -0.05,-0.08 -0.04,-0.1 -0.07,0 -0.05,0.05 0,0.13 -0.1,0.05 -0.16,0.13 -0.2,0.24 -0.02,0 -0.05,0 -0.08,-0.03 -0.03,-0.03 -0.02,0 -0.04,0.03 -0.03,-0.03 -0.02,0 -0.01,0.03 0.03,0.03 0.02,0 0.01,-0.03 0.06,0.05 0.05,0.08 -0.01,0.1 -0.06,0.03 -0.07,0.08 -0.08,0.1 -0.02,0 -0.06,-0.03 -0.06,-0.05 -0.02,0 -0.04,0.03 -0.01,0.1 -0.07,0 -0.11,-0.05 -0.13,-0.05 0.12,0.13 0.1,0.21 -0.1,0.24 l -0.04,-0.05 c 0,0 -0.01,0.03 0,0.05 -0.05,0 -0.07,0 -0.08,0.03 0,0.03 0.03,0.03 0.08,0.03 0,0.03 -0.04,0.03 -0.13,0.03 v 0.03 c 0.03,0.05 0.04,0.08 0.02,0.1 -0.13,-0.03 -0.22,0.18 -0.3,0.16 -0.06,0.1 -0.22,0.44 -0.38,0.31 0.02,0 0.05,-0.05 0.08,-0.03 -0.04,-0.05 -0.06,-0.05 -0.08,0.03 -0.02,0 -0.04,0.03 -0.05,0.05 0,0.03 0.05,0 0.06,0.03 0,0.05 -0.13,0.16 -0.35,0.34 q 0,0 0,-0.05 v -0.03 c 0,0 -0.08,0 -0.09,0.03 0,0.03 0.04,0.05 0.09,0.05 -0.04,0.08 -0.09,0.13 -0.12,0.13 -0.03,-0.03 -0.02,-0.05 0,-0.05 q 0,0 0,-0.05 c -0.06,-0.03 -0.07,0 -0.07,0.08 v 0.1 c 0,0 -0.05,-0.1 -0.11,-0.08 -0.07,0 0.04,0.1 0.04,0.13 -0.05,0 -0.06,0.03 -0.05,0.05 -0.02,0 -0.08,-0.1 -0.1,-0.08 0.06,0.1 0,0.21 -0.15,0.23 l -0.02,-0.05 c 0,0 0.06,-0.03 0.05,-0.05 -0.01,-0.02 -0.02,0 -0.05,0.05 -0.02,0 0,0.05 0.02,0.05 0,0.03 -0.01,0.03 0,0.05 -0.02,0 -0.08,0.05 -0.15,0.05 -0.31,0.39 -0.79,0.34 -1.44,-0.1 -0.12,-0.16 -0.29,-0.29 -0.54,-0.42 -0.09,-0.18 -0.34,-0.31 -0.37,-0.39 -0.02,-1.33 0.2,-2.51 0.67,-4.1 0.22,-0.78 0.37,-1.36 0.45,-1.72 l 0.03,-0.05 c 0,0 0.03,-0.05 0.06,-0.03 0.06,-0.5 0.23,-1.15 0.51,-1.96 0.28,-0.81 0.45,-1.38 0.54,-1.72 0.14,-0.08 0.2,-0.16 0.19,-0.26 0.06,-0.03 0.15,-0.03 0.32,-0.03 0,0.03 0.06,0.05 0.07,0.13 0.35,0.05 0.76,0.57 1.02,0.78 0,0.03 -0.01,0.03 -0.03,0.05 l -0.04,0.03 c 0,0 0.04,0.05 0.06,0.03 0.02,-0.02 0.04,-0.03 0.07,0 0.03,0.08 -0.05,0.18 -0.08,0.24 -0.05,0.31 -0.28,1.07 -0.33,1.46 -0.02,0 -0.07,0.08 -0.09,0.08 l 0.04,0.1 c -0.12,0.13 -0.17,0.31 -0.16,0.55 -0.03,-0.03 -0.06,0.03 -0.08,0.03 -0.02,0.29 -0.12,0.6 -0.27,0.89 0.02,0.39 -0.29,0.99 -0.29,1.31 -0.05,0.13 -0.29,1.04 -0.73,2.74 0.11,-0.03 0.29,-0.18 0.5,-0.44 0.11,-0.03 0.17,-0.1 0.22,-0.23 0.9,-0.7 1.9,-1.38 2.98,-2.04 0.06,0.1 0.06,-0.03 0.13,-0.03 0.03,0.08 -0.11,0.16 -0.07,0.26 l -0.04,-0.05 c 0,0 -0.09,-0.05 -0.1,-0.03 -0.01,0.02 0.02,0.05 0.1,0.08 0.03,0.03 0.04,0.05 0.05,0.08 0.06,-0.03 0.1,-0.05 0.12,-0.05 0,0.03 0,0.08 0.01,0.1 0.11,-0.03 0.23,-0.08 0.37,-0.21 0,0 0,0.03 0.04,0.05 0,0.03 0.03,0.03 0.06,0.03 -0.04,-0.1 0.03,-0.18 0.21,-0.21 0,0.03 -0.06,0.1 0,0.21 0.04,-0.08 0.05,-0.13 0.04,-0.21 0.03,0.03 0.07,0 0.13,-0.03 -0.02,-0.05 -0.04,-0.05 -0.06,-0.03 0.01,-0.03 0.36,-0.03 0.39,-0.21 0.03,0.08 0,0.16 -0.05,0.18 0.08,0.03 0.1,0.08 0.09,0.13 0.06,-0.03 0.37,-0.21 0.53,-0.24 0.03,0.03 -0.05,0.05 0.04,0.13 0.1,-0.05 0.16,-0.08 0.19,-0.05 -0.04,0.08 -0.37,0.13 -0.37,0.34 0.02,0 0.33,-0.31 0.47,-0.13 l 0.02,-0.08 c 0,-0.08 0.03,-0.1 0.11,-0.08 0.05,0.08 0,0.1 0,0.13 0.09,-0.08 0.43,-0.1 0.54,-0.13 -0.01,0.03 -0.16,0.13 -0.1,0.26 -0.02,0 -0.03,-0.03 -0.06,-0.1 q 0,0 -0.04,0.03 c -0.05,0.05 -0.1,0.05 -0.14,0 -0.01,0.03 0,0.05 0.05,0.08 l 0.03,0.03 h -0.16 c 0,0 0.04,0.1 -0.03,0.1 -0.08,-0.16 -0.18,-0.18 -0.26,-0.08 z m -5.97,2.04 c 0,0.08 -0.15,0.37 -0.09,0.55 0.02,-0.16 0.13,-0.42 0.09,-0.55 z m 0.13,-0.44 c 0,0 -0.04,0.03 -0.03,0.05 -0.05,0.18 -0.09,0.29 -0.08,0.37 0.09,-0.08 0.11,-0.21 0.08,-0.37 0.02,0 0.04,-0.03 0.03,-0.05 l 0.05,-0.13 c -0.06,-0.03 -0.07,0 -0.04,0.08 -0.02,0 -0.01,0.03 0,0.05 z m -0.03,3.34 c 0,0 0.04,-0.03 0,-0.05 -0.02,0 -0.04,0.03 -0.04,0.08 0,-0.03 0.01,-0.03 0.04,-0.03 z m 0.32,-4.7 c 0,0 -0.03,0.05 0,0.13 -0.03,-0.03 -0.02,0 -0.01,0.03 h -0.02 c -0.06,0.1 -0.07,0.21 -0.05,0.31 h -0.02 c 0,0 -0.15,0.31 -0.1,0.52 -0.12,0 -0.05,0.18 -0.02,0.21 0,-0.08 0.03,-0.18 0.02,-0.21 0,-0.08 0.16,-0.34 0.12,-0.52 0.04,-0.08 0.04,-0.24 0.08,-0.31 v -0.03 h 0.04 c 0,0 0,-0.1 0,-0.13 h 0.02 c 0,0 0,-0.03 0.01,-0.03 l -0.02,-0.05 c 0,0 -0.05,0 -0.02,0.08 h -0.02 z m -0.14,4.57 c 0,0 -0.06,0.03 -0.05,0.05 0.05,0 0.06,-0.03 0.05,-0.05 z m 0.27,-0.1 c -0.09,0 -0.14,0 -0.13,0.03 0.06,0.03 0.1,0.03 0.13,-0.03 z m -0.02,-4.75 c -0.07,0 -0.08,0.03 -0.06,0.1 z m 0.03,-0.13 h 0.05 l -0.02,-0.05 h -0.05 z m 0.12,-0.39 c -0.07,0 -0.1,0.05 -0.08,0.18 0.06,-0.03 0.09,-0.08 0.08,-0.18 z m 0,-0.18 c 0,0 -0.04,0.03 0,0.05 0.05,0 0.06,-0.03 0.07,-0.08 0.03,-0.05 0.02,-0.08 -0.03,-0.08 -0.02,0 -0.01,0.03 0,0.08 z m 0.11,-0.21 c 0,0 -0.06,0.03 -0.05,0.05 0.05,0 0.06,-0.03 0.05,-0.05 z m 0.04,-0.21 c -0.08,0.03 -0.13,0.1 -0.03,0.18 -0.03,-0.08 0.04,-0.16 0.03,-0.18 z m 0.02,-0.16 h 0.02 c 0,0 0.02,0 0.01,-0.03 -0.02,0 -0.05,0 -0.04,0.03 z m 0.57,5.25 c 0,0 -0.05,0 -0.08,-0.03 l -0.08,0.05 c -0.03,0.05 -0.03,0.1 -0.05,0.13 0.11,-0.08 0.19,-0.13 0.2,-0.16 z m 0.23,-0.21 c -0.02,-0.05 -0.05,-0.08 -0.06,-0.05 0,0.03 0.02,0.05 0.05,0.08 0,-0.03 -0.02,-0.05 0.01,-0.03 z m 0.7,-2.74 c -0.08,-0.03 -0.24,0.1 -0.19,0.18 0.06,-0.03 0.2,-0.1 0.19,-0.18 z m -0.04,-0.18 c -0.08,-0.03 -0.09,0.08 -0.01,0.1 0,-0.03 0.04,-0.08 0.01,-0.1 z m 0,2.35 c 0,0 -0.04,0.03 -0.05,0 z m 0.05,-2.01 c 0,0 0.06,-0.03 0.05,-0.05 h -0.05 v 0.03 c 0,0 0,0.03 0,0.03 z m 0.17,-0.31 c -0.12,0 -0.17,0.05 -0.16,0.16 0.09,-0.08 0.14,-0.13 0.16,-0.16 z m 0.15,-0.1 c -0.08,0.05 -0.11,0.08 -0.1,0.1 0.08,-0.05 0.11,-0.08 0.1,-0.1 z m -0.03,-0.16 h 0.05 l -0.02,-0.05 h -0.05 z m 0.19,0.29 -0.02,-0.05 -0.03,-0.03 h -0.02 c 0,0 -0.08,0.05 -0.05,0.13 0.02,0 0.04,-0.08 0.12,-0.05 z m -0.11,1.75 c 0,0 0.06,-0.03 0.05,-0.05 0.05,0 0.06,-0.03 0.04,-0.08 -0.06,-0.03 -0.07,0 -0.04,0.08 -0.06,-0.03 -0.08,-0.03 -0.05,0.05 z m 0.12,-2.01 c 0,0 0,-0.05 -0.05,-0.08 0.06,0.11 -0.09,0.13 -0.07,0.21 0.07,0 0.12,-0.05 0.12,-0.13 z m 0.14,-0.08 c 0,0 -0.06,0.03 -0.05,0.05 0.05,0 0.06,-0.03 0.05,-0.05 z m 0,0.16 h 0.05 l -0.02,-0.05 h -0.05 z m 0.14,-0.34 c 0,0 -0.09,0.08 -0.08,0.16 0.09,0 0.18,-0.08 0.08,-0.16 z m 0.03,1.57 c -0.08,-0.03 -0.09,0.08 -0.01,0.1 0,-0.03 0.04,-0.08 0.01,-0.1 z m 0.58,-1.7 c -0.26,0.13 -0.45,0.26 -0.59,0.39 0.16,0 0.35,-0.26 0.51,-0.26 0,-0.03 0.1,-0.05 0.07,-0.13 z m -0.43,0.1 c 0,0 -0.02,0 -0.03,-0.03 h -0.05 c 0,0 -0.06,0.1 0.02,0.13 z m 0.09,1.54 c -0.01,-0.1 -0.13,-0.1 -0.09,0 z m -0.09,-1.67 c 0,0 0,0.13 0.08,0.16 0.01,-0.03 0,-0.08 -0.03,-0.16 0.05,0 0.06,-0.03 0.04,-0.08 -0.06,-0.03 -0.07,0 -0.04,0.08 z m 0.22,-0.05 c 0,0 -0.08,0.03 -0.06,0.1 0.07,0 0.08,-0.03 0.06,-0.1 z m -0.03,1.54 h 0.02 c 0,0 0.02,0 0.01,-0.03 -0.02,0 -0.05,0 -0.04,0.03 z m 0.05,0.29 h 0.05 l 0.02,0.05 h -0.05 z m 0.14,-0.34 c -0.02,-0.05 -0.05,-0.08 -0.06,-0.05 0,0.03 0.02,0.05 0.05,0.08 0,-0.03 -0.02,-0.05 0.01,-0.03 z m 0.08,-1.51 c -0.02,-0.05 -0.05,-0.08 -0.07,-0.08 0,0.03 -0.07,0.08 -0.06,0.1 0.07,0 0.11,-0.03 0.13,-0.03 z m 0.02,1.67 -0.02,-0.05 c -0.04,0.08 -0.03,0.1 0,0.13 -0.03,-0.03 -0.02,-0.05 0.02,-0.08 z m 0.08,-1.64 c -0.07,0 -0.11,0.03 -0.11,0.08 0.07,0 0.11,-0.03 0.11,-0.08 z m 0.08,-0.31 c -0.08,-0.03 -0.09,-0.05 -0.05,-0.13 0.01,-0.03 0.04,-0.03 0.06,-0.03 0,0.03 -0.03,0.13 -0.02,0.16 z m -0.01,0.1 c 0.06,-0.03 0.07,0 0.11,0.1 -0.07,0 -0.1,-0.03 -0.12,-0.08 v -0.03 z m 0.02,0.31 h 0.05 l -0.02,-0.05 h -0.05 z m 0.11,-0.29 c 0.03,-0.13 0.1,-0.18 0.25,-0.16 -0.01,0.03 -0.09,0.08 -0.25,0.16 z m 0.11,-0.37 c 0,0 0.06,0.03 0.05,0.08 h -0.05 l -0.02,-0.05 v -0.03 z m 0.09,0.47 c 0,0 -0.05,0 -0.04,0.03 v -0.03 z m 0.15,-0.31 c 0,0 -0.06,0.03 -0.08,0.05 0,-0.03 0.04,-0.08 0.16,-0.13 -0.01,0.03 -0.03,0.05 -0.09,0.08 z m -0.02,0.29 v 0.03 c 0,0 -0.05,0.03 -0.02,0.05 0.02,0 0.04,-0.03 0.02,-0.08 z m 0.17,1.31 -0.02,-0.05 0.03,0.03 h 0.05 c 0,0.05 -0.03,0.05 -0.06,0.03 z m -0.02,-1.72 c 0,0 0.07,0 0.09,0.05 h -0.07 z m 0.09,1.25 c -0.06,0.03 0.08,0.16 0.06,0.05 h 0.05 l -0.03,-0.08 c 0,0 -0.05,0 -0.02,0.08 z m 0.13,0.31 c 0,0.05 -0.03,0.1 -0.14,0.13 0,-0.05 0.03,-0.1 0.14,-0.13 z m -0.06,-1.25 c 0,0 0.02,0 0.04,-0.03 l -0.04,-0.05 c 0,0 0,0.03 -0.01,0.03 l 0.02,0.05 z m 0.11,0.91 h -0.05 z m 0.25,-0.97 c 0,0 -0.05,-0.16 -0.09,-0.18 0.01,0.1 -0.17,0.05 -0.16,0.13 0.02,0 0.21,-0.05 0.25,0.05 z m -0.14,0.99 c 0,0 0.06,-0.03 0.03,-0.1 h -0.07 z m 0,0.29 c -0.02,-0.05 0,-0.08 0.07,-0.08 -0.03,0.05 -0.04,0.08 -0.07,0.08 z m 0.19,-0.47 c 0.11,-0.03 0.12,-0.05 0.04,-0.08 l -0.04,0.03 c 0,0 -0.05,0.05 -0.04,0.08 z m 0.07,-0.94 c 0,0 0.03,-0.05 0.1,-0.1 0,0.03 -0.03,0.05 -0.1,0.1 z m 0.14,-0.21 c 0,0 0,-0.05 0.08,-0.05 -0.01,0.03 -0.05,0.05 -0.08,0.05 z m 0.11,0.26 c -0.07,0 -0.11,0.03 -0.11,0.08 0.07,0 0.11,-0.03 0.11,-0.08 z m -0.05,0.18 h -0.05 c 0,0 -0.01,0.03 0,0.05 0.05,0 0.06,-0.03 0.05,-0.05 z m 0.12,0.55 h -0.09 c 0,0 -0.03,0.11 0.04,0.11 -0.05,-0.08 0.07,-0.08 0.06,-0.11 z m 0.1,-0.86 c 0,0 0,0.08 0.06,0.1 0,-0.08 -0.01,-0.1 -0.06,-0.1 z m 0,0.5 c -0.02,0.08 -0.01,0.1 0.04,0.1 z m 0.22,-0.57 c 0,0 -0.05,0 -0.04,0.03 -0.06,-0.03 -0.06,-0.05 0,-0.08 h 0.05 c 0,0 0.02,0.05 0,0.05 z m 0.08,0.03 h 0.05 l 0.02,0.05 h -0.05 z m 0.2,-0.03 c 0,-0.08 0.04,-0.08 0.08,-0.05 -0.01,0.03 -0.05,0.05 -0.08,0.05 z m 0.2,0.37 c -0.02,-0.05 -0.05,-0.08 -0.06,-0.05 0,0.03 0.02,0.05 0.05,0.08 0,-0.03 -0.02,-0.05 0.01,-0.03 z"
         id="path57" />
      <path
         d="m 495.67,270.09 c -0.1,-0.05 0.02,0.32 -0.17,0.2 0.09,-0.44 0.13,-0.81 0.14,-1.1 -0.02,0 -0.04,0.02 -0.06,0.07 -0.02,0.07 -0.05,0.1 -0.08,0.07 0,-0.07 0.02,-0.12 0.07,-0.12 -0.09,-0.32 0.09,-0.81 0.05,-0.98 -0.01,0.02 -0.03,0.17 -0.11,0.2 -0.06,-0.1 0.03,-0.34 -0.1,-0.46 0.14,-0.05 0.12,-0.29 0.17,-0.39 0,-0.07 -0.04,-0.12 -0.09,-0.2 0.04,-0.02 0.03,-0.1 -0.01,-0.22 0.06,-0.02 0.05,-0.1 0.08,-0.1 -0.06,-0.22 0.03,-0.54 0,-0.71 0.1,-0.27 0.2,-1.37 0.27,-1.61 0,-0.39 0.02,-0.69 0.1,-0.86 l -0.05,-0.15 c 0.08,-0.2 0.16,-1.25 0.28,-1.47 -0.04,-0.29 0.04,-0.91 0.02,-1.12 0.16,-0.1 0.14,-0.46 0.16,-0.69 -0.25,0.02 -0.43,0.02 -0.53,0 -0.2,0.12 -0.59,0.07 -0.76,0.15 0,-0.02 -0.02,-0.05 -0.04,-0.05 l -0.04,0.07 c -0.07,0 -0.66,0 -0.81,0.12 -0.35,-0.07 -1.38,0.12 -1.67,0.1 -0.06,-0.12 -0.16,-0.2 -0.28,-0.24 -0.26,-0.56 -0.42,-0.9 -0.45,-1.05 0,-0.02 -0.09,-0.07 -0.1,-0.1 -0.03,-0.07 -0.02,-0.2 -0.08,-0.29 0.03,-0.22 0.11,-0.37 0.21,-0.42 h 0.31 c 0.36,0.22 0.8,0.29 1.48,0.22 0.34,-0.02 0.55,-0.05 0.62,-0.05 0.56,-0.07 1.66,-0.24 2.44,-0.34 0.38,-0.02 0.75,-0.05 1.11,-0.02 0.11,-0.07 0.32,-0.07 0.62,-0.05 0.19,-0.07 0.37,-0.07 0.52,-0.02 0.03,-0.1 0.17,-0.02 0.23,-0.02 0.03,0.02 0,0.07 0.01,0.1 0.02,0 0.04,-0.12 0.1,-0.02 0,-0.07 0.05,-0.1 0.13,-0.07 0,0.02 0,0.05 0,0.12 0.06,-0.02 0.23,-0.02 0.22,-0.12 0.07,0 0.1,0.17 0.13,0.2 0.09,0 0.34,0.02 0.42,0 l 0.02,0.05 c 0.05,0.07 0.08,0.1 0.13,0.07 l 0.03,0.07 c 0.03,0.07 0.05,0.07 0.07,0.07 0.06,-0.02 -0.04,-0.12 -0.03,-0.15 0.11,0 0.15,0 0.17,-0.02 0.07,0.02 0.17,0.05 0.28,0.05 0.05,0.07 0,0.12 0,0.15 0.08,-0.02 0.11,-0.05 0.14,-0.02 0,-0.07 -0.06,-0.12 -0.07,-0.15 0.07,0.02 0.11,0.07 0.16,0.2 h -0.13 c 0,0 0.13,0.07 0.24,0.07 0.07,0 -0.02,-0.2 0.07,-0.17 0,0.02 0,0.07 0,0.15 0,0.02 0.16,0.02 0.17,0.05 0.02,0 0,-0.05 -0.03,-0.15 0.06,-0.02 0.09,0.07 0.08,0.1 l 0.02,0.05 c 0.06,-0.07 0.32,0.1 0.41,0.1 0.05,0.07 -0.07,0.05 -0.06,0.07 0.03,0.02 0.08,-0.02 0.15,0 0.07,0 -0.03,-0.07 0,-0.07 0.06,-0.02 0.12,-0.02 0.2,0 0,0.02 0.02,0.05 0.05,0.1 0.03,0.1 0.08,0.1 0.05,0.02 -0.02,-0.05 0,-0.07 0.03,-0.05 0.01,0.1 0.16,0.27 0.19,0.37 -0.08,0.02 -0.2,0.05 -0.27,0.05 0.05,0.07 0.06,0.12 0.07,0.2 -0.02,0 -0.09,-0.15 -0.16,-0.15 -0.02,0.27 -0.74,0.12 -0.9,0.24 -0.01,0.02 -0.04,0 -0.08,-0.05 0,-0.02 -0.02,-0.05 -0.05,-0.07 -0.23,0.17 -1.03,0.12 -1.26,0.22 -0.01,0.02 -0.04,0 -0.08,-0.05 -0.03,-0.02 -0.04,-0.05 -0.06,-0.05 -0.04,0 -0.06,0.02 -0.03,0.1 -0.2,0 -0.3,0.02 -0.3,0.07 -0.18,-0.15 -0.4,-0.15 -0.62,0.02 -0.06,-0.12 -0.51,0.05 -0.62,0.05 -0.08,0.27 -0.14,1.37 -0.17,1.64 l 0.05,0.15 c -0.08,0.51 -0.14,1.1 -0.17,1.79 -0.03,-0.02 -0.05,0.05 -0.07,0.05 l 0.04,0.12 c -0.09,0.29 -0.13,0.51 -0.09,0.69 -0.12,0.66 -0.18,1.25 -0.21,1.71 -0.05,0.1 -0.07,0.61 -0.18,0.73 0.03,0.1 0.02,0.2 -0.02,0.27 -0.01,0.46 -0.25,1.78 -0.27,2.13 -0.01,0.02 -0.05,0.05 -0.06,0.07 l -0.04,0.07 c 0.07,0.15 0.08,0.22 -0.02,0.24 0.07,0.27 -0.15,0.64 -0.07,0.93 -0.07,0 -0.08,0.15 -0.16,0.17 l 0.03,0.02 c 0.05,0.02 0.06,0.05 0.03,0.07 -0.02,0 -0.05,-0.02 -0.07,-0.07 -0.03,0.1 0.03,0.46 -0.01,0.59 -0.15,0.27 -0.26,0.51 -0.33,0.73 h -0.13 c -0.02,-0.12 -0.07,-0.2 -0.14,-0.27 -0.02,0 -0.05,0.1 -0.15,0.07 -0.01,-0.22 -0.04,-0.37 -0.1,-0.46 0.04,-0.39 0.04,-0.64 0,-0.76 0.14,-0.17 0.12,-0.34 -0.05,-0.51 -0.02,-0.12 -0.03,-0.22 -0.03,-0.27 z m -0.24,-1.2 0.02,0.05 -0.06,-0.05 z m 0.04,-0.07 c -0.1,-0.02 -0.08,-0.24 0,-0.24 0.03,0.07 0.03,0.15 0,0.24 z m 0.03,0.59 c 0.02,0.12 -0.06,0.32 -0.04,0.44 -0.1,-0.1 0,-0.37 -0.02,-0.44 h 0.07 z m 0.04,1.25 v 0.02 c 0,0 -0.02,-0.02 -0.02,-0.02 0,-0.02 -0.02,-0.05 -0.04,-0.05 0.02,0 0.05,0.02 0.06,0.05 z m 0,-0.24 c 0,0 0.02,0.05 0,0.07 v -0.02 c 0,0 -0.03,-0.05 -0.06,-0.07 0.03,-0.02 0.07,0 0.05,0.02 z m 0.07,-1.3 c 0.09,0 0.07,-0.05 0.09,-0.17 l -0.02,-0.12 c 0,0 -0.09,0 -0.1,0.02 0.04,0.12 0,0.2 0.03,0.27 z m 0.03,-0.37 0.05,0.02 c 0,0 -0.05,-0.07 -0.07,-0.07 z m 0,1.79 c -0.04,-0.12 -0.02,-0.17 0.05,-0.17 0,0.12 -0.03,0.17 -0.05,0.17 z m -0.01,-2.62 c 0,0 0.04,0 0.03,0.02 h 0.04 c 0,0 -0.03,-0.07 -0.05,-0.07 l -0.03,0.05 z m 0.16,2.4 c 0,0 0,-0.07 -0.07,-0.07 z m 3.77,-11.71 c 0,0 -0.06,0.02 -0.07,0.05 0.07,0.02 0.12,0.02 0.07,-0.05 z m 0.17,-0.02 c 0,-0.07 0.14,-0.1 0.25,-0.02 0.03,0.07 -0.14,0.1 -0.25,0.02 z m 1.11,0.42 c 0,0 -0.03,-0.02 -0.04,0 z m 0.22,0 c -0.06,-0.05 -0.07,-0.07 -0.06,-0.1 0.07,0 0.11,0.07 0.06,0.1 z m 0.33,0.25 c 0,0 0,-0.02 0,-0.05 0.01,-0.02 -0.02,-0.05 -0.06,-0.05 0.03,0.02 0.04,0.05 0.05,0.07 v 0.02 z m 0.26,-0.07 h -0.04 c 0,0 0.05,0.07 0.09,0.07 0.01,-0.02 -0.02,-0.05 -0.05,-0.07 z m 0.52,0.24 v 0.02 c 0,0 0.13,0.02 0.12,0 z m 0.21,-0.1 c 0,0 -0.01,0.02 -0.04,0.02 z"
         id="path58" />
      <path
         d="m 504.86,264.03 c -1.34,0.98 -2.36,1.64 -3.04,2.01 -0.13,0.81 -0.2,1.37 -0.22,1.69 h -0.07 c 0.06,0.29 0.03,0.66 -0.1,1.1 -0.01,0.22 -0.07,0.73 -0.07,0.93 -0.09,0 -0.17,0.02 -0.25,0.1 -0.09,-0.12 -0.15,-0.17 -0.18,-0.2 v -0.1 c 0,0 -0.06,0 -0.06,0 -0.06,-0.12 -0.09,-0.27 -0.11,-0.44 0,-0.02 -0.03,-0.02 -0.07,-0.02 0,-0.02 0,-0.12 0,-0.2 -0.03,-0.02 -0.04,0.15 -0.11,0.12 0,-0.02 -0.02,-0.05 0,-0.07 0.02,-0.07 0.02,-0.15 0,-0.2 -0.03,-0.02 -0.04,0.02 0,0.1 -0.02,0 -0.04,-0.05 -0.05,-0.15 l -0.02,-0.12 c 0,0 -0.03,-0.02 -0.03,0.05 -0.01,0.02 0,0.05 0,0.07 -0.06,-0.25 -0.06,-0.49 -0.03,-0.71 0,-0.02 -0.03,-0.02 -0.07,-0.02 0.01,-0.15 0.04,-0.39 0.04,-0.71 -0.07,-0.02 0.01,0.1 -0.06,0.07 -0.03,-0.27 0.06,-0.76 0.02,-1.08 0.02,0 0.02,-0.12 0.1,-0.1 -0.03,-0.07 -0.04,-0.17 -0.05,-0.27 -0.03,-0.02 -0.12,-0.22 -0.21,-0.22 -0.03,-0.07 -0.02,-0.12 0,-0.12 -0.15,-0.12 -0.27,-0.27 -0.29,-0.39 0.05,-0.17 0.53,-0.29 0.64,-0.42 0.02,-0.32 0.07,-0.73 0.17,-1.27 0.11,-0.51 0.14,-0.9 0.18,-1.12 -0.37,-0.49 -1.04,-1.3 -0.66,-1.71 0.17,-0.07 0.54,-0.22 1.08,-0.46 0.54,-0.22 0.96,-0.39 1.24,-0.51 0.61,-0.2 1.82,-0.49 2.97,-0.51 0.81,0 1.33,0.56 1.99,1.64 -0.02,0.32 -0.16,0.61 -0.26,0.83 -0.04,0.12 -0.3,0.39 -0.33,0.44 -0.01,0.02 -0.1,0.1 -0.21,0.22 l -0.18,0.17 c -0.06,0.2 -0.16,0.24 -0.25,0.17 0,0.02 0.05,0.07 0.06,0.1 -0.07,0.05 -0.25,0.22 -0.57,0.49 -0.31,0.29 -0.55,0.49 -0.76,0.59 0.03,0.1 -0.03,0.17 -0.2,0.2 l 0.02,0.05 z m -2.09,-1.98 c -0.06,0.07 -0.16,0.37 -0.31,0.44 -0.03,0.22 -0.22,0.93 -0.27,1.25 1.45,-0.93 2.67,-1.96 3.62,-3.06 h -0.04 c -1.29,0.12 -2.33,0.42 -3.1,0.91 0.02,0.12 0.08,0.34 0.1,0.46 z m 3.47,0.66 c 0,0 -0.06,0.02 -0.05,0.05 0.04,0 0.06,-0.02 0.05,-0.05 z"
         id="path59" />
    </g>
  </g>
</svg>
