<?xml version="1.0" encoding="UTF-8" standalone="no"?>
<svg
   id="Layer_1"
   data-name="Layer 1"
   viewBox="0 0 1058.2677 264.56692"
   version="1.1"
   sodipodi:docname="Text only white SVG.svg"
   width="28cm"
   height="7cm"
   inkscape:version="1.3.2 (091e20e, 2023-11-25, custom)"
   xmlns:inkscape="http://www.inkscape.org/namespaces/inkscape"
   xmlns:sodipodi="http://sodipodi.sourceforge.net/DTD/sodipodi-0.dtd"
   xmlns="http://www.w3.org/2000/svg"
   xmlns:svg="http://www.w3.org/2000/svg">
  <sodipodi:namedview
     id="namedview59"
     pagecolor="#ffffff"
     bordercolor="#000000"
     borderopacity="0.25"
     inkscape:showpageshadow="true"
     inkscape:pageopacity="0.0"
     inkscape:pagecheckerboard="true"
     inkscape:deskcolor="#d1d1d1"
     inkscape:document-units="px"
     showguides="false"
     inkscape:zoom="0.821"
     inkscape:cx="450.66991"
     inkscape:cy="72.472594"
     inkscape:window-width="1920"
     inkscape:window-height="1017"
     inkscape:window-x="-8"
     inkscape:window-y="-8"
     inkscape:window-maximized="1"
     inkscape:current-layer="g53"
     borderlayer="true"
     showborder="true">
    <sodipodi:guide
       position="188.96483,502.47003"
       orientation="1,0"
       id="guide59"
       inkscape:locked="false" />
  </sodipodi:namedview>
  <defs
     id="defs1">
    <style
       id="style1">
      .cls-1 {
        fill: #fcb72b;
      }

      .cls-2 {
        fill: #07892f;
      }

      .cls-3 {
        fill: #da131a;
      }
    </style>
  </defs>
  <g
     id="g56"
     transform="translate(-81.437124,-393.70122)">
    <g
       id="g53"
       transform="translate(110.5869,-202.17033)">
      <path
         d="m 521.48,796.56 c -0.29,2.35 -0.31,4.77 0.35,7.15 0.37,1.34 0.03,2.5 -0.93,3.48 -0.6,0.62 -1.39,0.7 -2.12,0.25 -1.65,-1.01 -2.35,-2.77 -1.91,-4.76 0.95,-4.31 1.08,-8.64 0.18,-12.98 -0.19,-0.93 -0.25,-2.11 -1.31,-2.44 -1.31,-0.41 -1.77,0.83 -2.45,1.63 -0.56,0.66 -1.26,1.19 -1.89,1.79 -5.04,4.86 -10.54,9.16 -16.3,13.11 -2.97,2.04 -6.35,3.28 -9.79,4.37 -3.09,0.97 -6.3,1.21 -9.48,1.34 -5.76,0.24 -11.26,-0.9 -15.89,-4.58 -1.88,-1.5 -3.56,-3.32 -5.07,-5.21 -2.7,-3.37 -4.15,-7.43 -5.77,-11.37 -0.18,-0.44 -0.27,-0.94 -0.31,-1.42 -0.12,-1.61 -0.55,-3.01 -2.01,-4 -0.39,-0.27 -0.56,-0.98 -0.66,-1.53 -0.15,-0.75 0.05,-1.62 -0.24,-2.29 -0.82,-1.89 -0.75,-3.78 -0.41,-5.72 0.25,-1.39 -0.11,-2.7 -0.47,-4.01 -0.06,-0.23 -0.35,-0.51 -0.58,-0.55 -0.17,-0.04 -0.52,0.22 -0.6,0.42 -0.62,1.44 -1,2.96 -0.96,4.53 0.03,1.1 -0.21,2.1 -0.54,3.13 -0.53,1.65 -1.26,3.23 -1.31,5.04 -0.03,1.05 -0.48,2.14 -1.47,2.73 -1.23,0.73 -1.66,1.92 -1.85,3.15 -0.21,1.36 -0.6,2.62 -1.12,3.88 -0.37,0.89 -0.54,1.87 -0.69,2.83 -0.7,4.5 -1.28,9.03 -2.09,13.51 -0.57,3.14 -1.38,6.24 -2.2,9.32 -0.24,0.92 -0.75,1.81 -1.3,2.59 -0.81,1.16 -1.18,2.42 -1.32,3.8 -0.23,2.32 -0.49,4.63 -0.78,6.95 -0.12,0.96 -0.3,1.91 -0.51,2.86 -0.11,0.49 -0.4,0.94 -0.98,0.89 -0.55,-0.06 -0.83,-0.49 -0.82,-1.03 0.08,-2.81 -0.03,-5.64 0.71,-8.39 0.1,-0.37 0.28,-0.75 0.28,-1.13 0,-2.6 1.06,-4.86 2.05,-7.2 0.78,-1.85 1.19,-3.87 1.65,-5.84 0.15,-0.62 -0.06,-1.33 -0.15,-1.99 -0.02,-0.14 -0.26,-0.32 -0.41,-0.34 -0.15,-0.02 -0.39,0.09 -0.49,0.22 -0.17,0.22 -0.29,0.5 -0.38,0.77 -0.94,2.75 -1.88,5.5 -2.82,8.25 -0.06,0.18 -0.12,0.41 -0.25,0.51 -0.22,0.16 -0.51,0.35 -0.75,0.32 -0.24,-0.03 -0.57,-0.28 -0.64,-0.5 -0.14,-0.44 -0.27,-0.97 -0.17,-1.4 0.28,-1.12 0.66,-2.23 1.05,-3.32 0.95,-2.64 1.98,-5.26 2.89,-7.92 0.3,-0.9 0.46,-1.89 0.44,-2.84 -0.03,-1.56 -0.25,-3.1 0.4,-4.59 0.04,-0.08 0.06,-0.21 0.02,-0.28 -0.18,-0.31 -0.33,-0.69 -0.6,-0.89 -0.15,-0.11 -0.59,-0.03 -0.77,0.12 -0.77,0.63 -1.23,1.45 -1.43,2.46 -0.53,2.65 -1.13,5.3 -1.72,7.94 -0.38,1.73 -0.93,3.33 -2.52,4.43 -0.58,0.4 -1.02,1.2 -1.24,1.9 -0.41,1.29 -0.62,2.64 -0.88,3.97 -0.36,1.8 -0.68,3.61 -1.04,5.41 -0.04,0.18 -0.14,0.38 -0.28,0.5 -0.21,0.17 -0.51,0.43 -0.71,0.38 -0.33,-0.08 -0.82,-0.33 -0.87,-0.58 -0.13,-0.64 -0.24,-1.39 -0.04,-1.98 0.71,-2.07 0.64,-4.21 0.88,-6.32 0.18,-1.61 0.88,-3.15 1.23,-4.75 0.43,-1.96 1.14,-3.89 0.98,-5.95 0,-0.13 -0.23,-0.34 -0.35,-0.34 -0.15,0 -0.42,0.16 -0.44,0.28 -0.26,1.42 -0.9,2.43 -2.29,3.13 -1.32,0.67 -1.58,2.15 -1.62,3.54 -0.06,1.77 -0.37,3.47 -1.02,5.11 -0.14,0.36 -0.25,0.8 -0.52,1.02 -0.34,0.27 -0.85,0.49 -1.26,0.46 -0.56,-0.05 -0.81,-0.67 -0.63,-1.12 0.88,-2.29 1.19,-4.64 1.25,-7.09 0.02,-1.01 0.71,-1.99 1.01,-3.01 0.16,-0.54 0.2,-1.15 0.11,-1.7 -0.05,-0.31 -0.44,-0.7 -0.75,-0.79 -0.26,-0.07 -0.78,0.17 -0.91,0.42 -0.39,0.77 -0.83,1.58 -0.92,2.42 -0.51,4.61 -2.25,8.83 -4.19,12.96 -0.88,1.87 -1.7,3.71 -1.43,5.85 0.02,0.18 0,0.41 -0.1,0.56 -0.14,0.23 -0.34,0.57 -0.55,0.6 -0.34,0.04 -0.78,-0.03 -1.04,-0.24 -0.68,-0.55 -0.74,-1.4 -0.55,-2.15 0.41,-1.59 0.91,-3.16 1.47,-4.71 0.49,-1.37 0.99,-2.76 1.71,-4.01 1.34,-2.34 1.66,-4.95 2.22,-7.5 0.06,-0.28 0.1,-0.58 0.1,-0.86 -0.01,-1.07 -0.81,-1.87 -1.86,-1.81 -0.67,0.04 -1.35,0.19 -2.01,0.34 -3.41,0.77 -6.8,1.58 -10.21,2.32 -4.16,0.91 -8.33,1.79 -12.51,2.63 -3.52,0.7 -7.05,1.36 -10.59,1.95 -1.19,0.2 -2.06,0.63 -2.26,1.87 -0.34,2.15 -1.91,3.36 -3.52,4.41 -2.35,1.55 -4.93,2.72 -7.56,3.73 -2.07,0.79 -3.98,0.47 -5.72,-0.98 -2.93,-2.44 -5.44,-5.28 -7.73,-8.3 -3.05,-4.02 -5.96,-8.14 -8.86,-12.26 -3.85,-5.47 -7.6,-11.02 -11.48,-16.47 -2.87,-4.03 -5.86,-7.97 -8.9,-11.88 -0.64,-0.82 -1.21,-2.44 -2.59,-1.8 -1.13,0.53 -0.3,1.95 -0.36,2.96 -0.06,1.06 0.06,2.14 0.08,3.2 0.02,2.04 0.28,4.04 0.57,6.06 0.41,2.86 0.42,5.81 0.32,8.71 -0.18,5.14 -0.56,10.27 -0.91,15.41 -0.07,1.05 -0.23,2.15 -0.62,3.12 -1.2,3.06 -1.49,6.21 -1.27,9.44 0.04,0.67 0.02,1.36 -0.07,2.03 -0.03,0.22 -0.41,0.61 -0.54,0.57 -0.31,-0.09 -0.75,-0.33 -0.82,-0.59 -0.43,-1.6 -0.72,-3.22 -0.4,-4.89 0.11,-0.57 0.19,-1.15 0.26,-1.73 0.18,-1.44 -0.08,-2.75 -1.37,-3.6 -1.01,-0.66 -1.12,-1.52 -0.76,-2.53 0.74,-2.1 0.78,-4.38 1.69,-6.45 0.25,-0.56 0.17,-1.34 0.03,-1.97 -0.12,-0.51 -0.49,-1.23 -0.89,-1.34 -0.73,-0.19 -0.78,0.64 -0.97,1.16 -0.1,0.27 -0.21,0.55 -0.26,0.83 -0.43,2.66 -0.67,5.32 -2.04,7.8 -0.65,1.18 -0.43,2.84 -0.61,4.28 -0.07,0.58 -0.11,1.16 -0.26,1.72 -0.06,0.2 -0.44,0.44 -0.65,0.42 -0.22,-0.02 -0.54,-0.32 -0.57,-0.54 -0.11,-0.66 -0.16,-1.35 -0.12,-2.02 0.07,-1.16 0.25,-2.29 -0.04,-3.47 -0.15,-0.61 0.12,-1.32 0.2,-1.98 0.05,-0.38 0.18,-0.76 0.15,-1.13 -0.05,-0.56 -0.46,-0.89 -0.99,-0.83 -0.32,0.04 -0.77,0.3 -0.88,0.57 -0.21,0.52 -0.26,1.13 -0.3,1.7 -0.05,0.77 0.01,1.56 -0.03,2.33 -0.05,0.94 -0.54,1.57 -1.07,1.45 -0.74,-0.17 -0.7,-0.83 -0.84,-1.37 -0.12,-0.47 -0.21,-0.94 -0.37,-1.4 -0.05,-0.13 -0.29,-0.28 -0.44,-0.27 -0.16,0 -0.41,0.15 -0.45,0.29 -0.67,2.21 -1.37,4.42 -1.93,6.66 -0.23,0.92 -0.1,1.93 -0.24,2.89 -0.05,0.32 -0.35,0.79 -0.62,0.86 -0.55,0.15 -0.83,-0.32 -1.01,-0.8 -0.28,-0.76 -0.29,-1.49 -0.04,-2.28 0.47,-1.48 0.78,-3.02 1.32,-4.47 0.87,-2.33 1.06,-4.72 0.9,-7.17 -0.15,-2.33 -0.33,-4.64 0.15,-6.97 0.17,-0.83 -0.02,-1.74 -0.07,-2.61 -0.05,-0.77 -0.26,-1.57 -0.16,-2.32 0.25,-1.82 0.1,-3.37 -1.38,-4.77 -1,-0.95 -1,-2.43 -0.03,-3.46 1.65,-1.75 1.34,-3.6 1,-5.7 -0.52,-3.16 -1.02,-6.31 -1.92,-9.39 -0.82,-2.79 -1.5,-5.61 -2.39,-8.37 -1.56,-4.79 -3.22,-9.55 -4.88,-14.3 -0.41,-1.18 -0.96,-2.32 -1.46,-3.48 -0.65,-1.52 -1.22,-3.07 -1.97,-4.53 -0.85,-1.64 -0.43,-3.04 0.62,-4.31 1.3,-1.57 2.64,-3.11 4.09,-4.55 1.45,-1.43 3.03,-2.73 4.58,-4.06 1.51,-1.29 3.31,-2.02 5.21,-2.49 1.33,-0.33 2.57,0.11 3.56,0.9 1.04,0.84 2.06,1.82 2.76,2.95 1.9,3.08 4.35,5.71 6.66,8.45 2.62,3.11 5.23,6.23 7.9,9.31 3.3,3.82 6.66,7.59 9.98,11.39 0.51,0.58 0.94,1.23 1.43,1.82 0.31,0.37 0.62,0.74 1,1.04 0.59,0.47 1.53,0.13 1.57,-0.59 0.06,-1.16 0.21,-2.37 -0.03,-3.48 -0.48,-2.22 -0.39,-4.44 -0.48,-6.67 -0.12,-3.2 -0.27,-6.41 -0.39,-9.61 -0.03,-0.87 0.05,-1.75 0.03,-2.62 -0.05,-4.09 2.37,-6.74 5.51,-8.68 2.28,-1.41 4.87,-2.42 7.61,-2.79 0.38,-0.05 0.77,-0.13 1.16,-0.13 1.46,0 2.45,0.73 2.65,2.17 0.16,1.15 0.27,2.35 0.12,3.48 -0.83,6.03 -0.22,12.04 0.21,18.04 0.23,3.28 0.92,6.52 1.41,9.78 0.37,2.49 0.73,4.99 1.12,7.47 0.31,1.91 0.7,3.8 1,5.71 0.88,5.48 2.26,10.81 4.38,15.95 1.52,3.67 2.88,7.42 4.54,11.03 1.13,2.46 2.6,4.77 4.01,7.08 0.68,1.11 2.06,1.66 3.29,0.94 0.08,-0.05 0.18,-0.07 0.27,-0.11 2.91,-1.45 3.39,-1.35 3.06,-5.08 -0.25,-2.8 -0.74,-5.57 -1.15,-8.35 -0.62,-4.22 -1.33,-8.42 -1.74,-12.67 -0.37,-3.86 -1,-7.69 -1.45,-11.54 -0.22,-1.93 -0.29,-3.87 -0.4,-5.81 -0.2,-3.49 -0.83,-6.95 -0.6,-10.46 0.09,-1.45 0.17,-2.9 0.39,-4.33 0.27,-1.81 -0.05,-3.51 -0.88,-5.08 -1.22,-2.31 -2.53,-4.58 -3.86,-6.83 -0.8,-1.37 -1.27,-2.8 -1.41,-4.39 -0.24,-2.68 0.87,-4.76 2.91,-6.28 1.79,-1.33 3.83,-2.26 6.14,-2.48 1.19,-0.11 2.12,0.2 2.83,1.1 0.66,0.83 1.47,1.65 1.82,2.61 0.89,2.45 2.74,4 4.76,5.33 4.7,3.1 9.46,6.1 14.23,9.09 3.86,2.42 7.72,4.82 11.32,7.62 1.99,1.55 4.13,2.89 6.19,4.34 4.85,3.4 9.6,6.92 14.2,10.65 3.33,2.7 6.56,5.47 9.46,8.62 0.25,0.27 0.6,0.51 0.95,0.62 0.18,0.06 0.59,-0.15 0.67,-0.33 0.14,-0.34 0.18,-0.75 0.15,-1.12 -0.29,-3.47 -0.54,-6.95 -0.91,-10.42 -0.39,-3.63 0,-7.17 1.2,-10.59 0.48,-1.36 1.24,-2.59 2.34,-3.64 3.22,-3.09 6.25,-6.38 9.55,-9.38 3.59,-3.26 7.49,-6.12 11.71,-8.55 4.63,-2.67 9.47,-4.89 14.54,-6.55 2.76,-0.9 5.64,-1.41 8.48,-2.02 1.42,-0.31 2.86,-0.6 4.3,-0.65 7.19,-0.24 14.05,1.05 19.58,5.96 4.3,3.82 7.4,8.57 7.74,14.54 0.3,5.21 -1.04,10.01 -4.71,13.93 -1.53,1.63 -3.24,3.08 -5.2,4.19 -0.75,0.42 -1.56,0.8 -2.39,1 -2.67,0.66 -4.4,-0.38 -4.91,-3.07 -0.42,-2.19 -0.67,-4.41 -0.89,-6.63 -0.15,-1.48 -0.36,-2.91 -1.32,-4.09 -0.2,-0.24 -0.62,-0.34 -0.96,-0.39 -0.08,-0.01 -0.34,0.46 -0.33,0.7 0.07,1.95 -0.17,3.87 -0.62,5.76 -0.26,1.13 -0.49,2.26 -0.72,3.4 -0.12,0.57 -0.25,1.14 -0.29,1.72 -0.1,1.76 0.79,2.94 2.54,3.39 0.38,0.1 0.76,0.16 1.15,0.18 2.67,0.14 5.08,1.19 7.53,2.12 1.63,0.62 3.27,1.2 4.95,1.66 2.36,0.65 4.6,1.57 6.66,2.88 2.54,1.61 4.52,3.66 4.87,6.87 0.05,0.47 0.24,0.94 0.43,1.38 0.1,0.24 0.39,0.64 0.51,0.61 0.33,-0.09 0.73,-0.28 0.91,-0.56 0.8,-1.21 1.61,-2.43 2.28,-3.72 2.2,-4.22 4.46,-8.41 6.46,-12.72 1.3,-2.8 2.36,-5.7 2.79,-8.83 0.46,-3.37 0.07,-6.61 -0.92,-9.76 -1.18,-3.74 -3.2,-7.05 -5.91,-9.92 -0.86,-0.92 -1.63,-1.93 -2.37,-2.95 -0.71,-0.98 -0.66,-1.56 0.14,-2.31 2.68,-2.5 6.5,-3.95 11.06,-2.28 3.42,1.25 5.96,3.48 8.02,6.46 3.05,4.42 4.37,9.19 3.93,14.56 -0.31,3.83 -1.34,7.42 -2.67,10.97 -2.46,6.57 -5.91,12.63 -9.55,18.59 -0.86,1.41 -1.63,2.87 -2.34,4.36 -0.53,1.11 -0.01,1.96 1.24,1.99 1.25,0.03 2.57,0.05 3.76,-0.27 5.62,-1.54 11.05,-3.62 16.39,-5.96 0.18,-0.08 0.35,-0.17 0.52,-0.26 2.12,-1.13 2.73,-2.45 1.64,-4.51 -2.5,-4.76 -3.94,-9.91 -5.7,-14.94 -0.7,-2.01 -1.3,-4.06 -1.44,-6.22 -0.09,-1.44 -0.61,-2.86 -0.68,-4.29 -0.2,-3.85 1.03,-7.31 3.56,-10.17 1.26,-1.43 2.95,-2.42 5.02,-2.66 1.76,-0.21 3.04,0.4 4.08,1.69 0.42,0.52 0.76,1.13 1.05,1.74 1.17,2.49 1.82,5.15 2.06,7.85 0.21,2.37 0.81,4.55 1.73,6.71 2.31,5.46 5.03,10.71 7.81,15.93 1.41,2.65 2.74,5.35 4.13,8.01 0.36,0.69 0.79,1.33 1.22,1.97 0.07,0.11 0.36,0.16 0.51,0.11 0.14,-0.05 0.3,-0.26 0.32,-0.41 0.05,-0.38 0.11,-0.79 0.03,-1.16 -0.55,-2.49 -0.54,-5.01 -0.56,-7.54 0,-0.58 -0.08,-1.17 -0.22,-1.73 -0.97,-3.87 -0.66,-7.71 0.27,-11.53 0.57,-2.35 1.94,-4.22 3.63,-5.87 3.33,-3.26 6.61,-6.58 10.08,-9.68 2.38,-2.12 4.97,-4.05 7.61,-5.83 3.54,-2.39 7.33,-4.36 11.28,-6.02 5.4,-2.26 10.95,-3.83 16.77,-4.63 3.95,-0.55 7.81,-0.34 11.57,0.51 5.99,1.35 10.8,4.71 14.21,9.89 0.91,1.38 1.66,2.85 2.5,4.27 0.69,1.16 1.21,1.34 2.35,0.59 2.29,-1.5 4.74,-2.66 7.31,-3.57 2.74,-0.97 5.46,-2 8.23,-2.85 5.84,-1.78 11.7,-3.5 17.58,-5.16 2.42,-0.68 4.87,-1.28 7.4,-1.48 2.81,-0.22 5.6,-0.6 8.39,-0.95 1.25,-0.15 1.8,-0.88 1.75,-2.23 -0.04,-1.07 -0.21,-2.13 -0.19,-3.19 0.05,-2.31 0.79,-4.3 2.46,-6.03 2.16,-2.23 4.74,-3.67 7.62,-4.67 0.82,-0.29 1.51,-0.03 2.19,0.42 1.84,1.2 3.01,2.99 4.2,4.75 1.42,2.08 2.67,4.29 4.2,6.28 2.41,3.13 5.65,5.32 9.08,7.18 5.4,2.93 11.19,4.9 17.11,6.5 1.21,0.33 2.47,0.49 3.71,0.7 2.77,0.49 5.54,0.95 8.3,1.45 2.48,0.45 4.95,0.93 7.42,1.4 0.48,0.09 0.95,0.23 1.43,0.27 4.25,0.34 8.51,0.66 12.76,0.99 1.26,0.1 2.52,0.22 3.77,0.34 1.26,0.12 2.51,0.3 3.77,0.39 5.33,0.36 10.67,0.65 15.99,1.08 2.21,0.18 4.43,0.52 6.59,1.04 2.9,0.69 3.81,3.98 1.78,6.19 -0.91,1 -1.97,1.77 -3.27,2.34 -3.04,1.34 -6.12,2.41 -9.43,2.81 -1.85,0.23 -2.54,0.99 -2.65,2.86 -0.09,1.55 -0.02,3.11 -0.03,4.66 -0.01,2.23 0,4.47 -0.06,6.7 -0.04,1.45 -0.09,2.9 -0.78,4.26 -0.29,0.57 -0.31,1.32 -0.31,1.99 0,1.84 0.08,3.69 0.1,5.53 0,0.77 -0.03,1.54 -0.14,2.3 -0.02,0.17 -0.43,0.33 -0.69,0.39 -0.13,0.03 -0.37,-0.13 -0.47,-0.28 -0.16,-0.23 -0.32,-0.51 -0.34,-0.78 -0.14,-1.64 -0.44,-3.3 -0.3,-4.92 0.11,-1.41 -0.15,-2.69 -0.42,-4.02 -0.1,-0.5 -0.31,-0.92 -0.93,-0.92 -0.9,0 -1.23,-0.53 -1.12,-1.32 0.22,-1.53 0.41,-3.08 0.79,-4.57 0.69,-2.71 0.69,-5.38 -0.07,-8.06 -0.04,-0.14 -0.26,-0.31 -0.39,-0.31 -0.15,0 -0.4,0.16 -0.43,0.29 -0.3,1.22 -0.64,2.44 -0.8,3.68 -0.16,1.25 -0.1,2.52 -0.21,3.78 -0.06,0.66 -0.14,1.4 -0.47,1.95 -1.05,1.76 -1.22,3.66 -1.17,5.62 0.02,0.68 0.02,1.36 0,2.04 -0.03,0.76 -0.46,1.4 -0.86,1.29 -0.7,-0.19 -0.78,-0.8 -0.79,-1.39 -0.03,-2.13 -0.02,-4.27 -0.04,-6.41 0,-0.67 -0.02,-1.35 -0.1,-2.02 -0.05,-0.46 -0.79,-0.63 -1.17,-0.33 -0.77,0.6 -0.92,1.44 -0.96,2.34 -0.05,1.16 -0.05,2.33 -0.18,3.48 -0.03,0.24 -0.49,0.52 -0.8,0.6 -0.14,0.04 -0.53,-0.3 -0.58,-0.52 -0.14,-0.56 -0.11,-1.16 -0.24,-1.72 -0.05,-0.21 -0.36,-0.53 -0.52,-0.52 -0.22,0.02 -0.56,0.28 -0.61,0.5 -0.59,2.73 -1.94,5.31 -1.72,8.21 0.03,0.38 0.01,0.79 -0.11,1.15 -0.07,0.21 -0.39,0.46 -0.61,0.47 -0.22,0 -0.59,-0.2 -0.66,-0.4 -0.27,-0.72 -0.42,-1.49 -0.66,-2.22 -0.23,-0.72 -0.83,-1.07 -1.58,-0.91 -0.37,0.08 -0.74,0.22 -1.1,0.37 -1.7,0.71 -3.39,1.43 -5.08,2.17 -0.53,0.23 -1.04,0.52 -1.52,0.85 -0.78,0.53 -1.16,1.29 -1.04,2.25 0.32,2.5 0.63,5.01 0.96,7.51 0.18,1.34 0.41,2.68 0.6,4.02 0.18,1.24 0.62,1.71 1.91,1.67 0.75,-0.02 1.54,-0.19 2.24,-0.46 2.98,-1.17 5.89,-2.51 8.89,-3.58 5.93,-2.11 11.92,-4.01 18.12,-5.3 2.67,-0.56 5.35,-0.93 8.03,-1.37 2,-0.33 4.06,-0.42 6.05,0.32 2.35,0.88 3.34,2.89 1.83,4.78 -1.73,2.17 -1.67,4.46 -1.52,6.88 0.22,3.58 0.5,7.17 0.79,10.75 0.12,1.49 -0.17,2.91 -0.68,4.28 -0.39,1.04 -1.32,1.52 -2.31,1.3 -0.95,-0.2 -1.72,-1.12 -1.65,-2.12 0.05,-0.67 0.26,-1.33 0.43,-1.98 0.58,-2.22 0.43,-4.43 0.01,-6.65 -0.19,-0.99 -0.65,-1.82 -1.49,-2.42 -0.75,-0.53 -1.58,-0.65 -2.16,-0.23 -0.67,0.48 -1.08,1.15 -0.97,1.99 0.08,0.57 0.35,1.11 0.44,1.68 0.13,0.86 0.33,1.75 0.21,2.59 -0.2,1.4 -0.76,2.53 -2.46,2.8 -1.47,0.23 -1.77,0.75 -1.72,2.18 0.04,1.16 0.19,2.32 0.29,3.48 0.08,0.97 0.18,1.93 0.25,2.9 0.03,0.39 0.05,0.78 0.01,1.16 -0.13,1.43 -1.15,2.62 -2.25,2.66 -1.21,0.04 -2.44,-1.18 -2.57,-2.69 -0.07,-0.86 0.05,-1.74 0.06,-2.62 0.04,-2.32 0.35,-4.63 0.06,-6.97 -0.36,-2.86 -2.12,-4.47 -4.51,-5.58 -0.49,-0.23 -1.14,-0.2 -1.71,-0.17 -1.06,0.05 -1.68,0.79 -1.32,1.75 0.74,1.97 0.82,4 0.66,6.03 -0.15,1.93 0.85,3.57 1.11,5.38 0.14,0.95 0.41,1.9 0.45,2.86 0.04,0.95 -0.48,1.7 -1.4,2 -0.91,0.3 -1.8,0.07 -2.34,-0.73 -0.53,-0.79 -1,-1.66 -1.28,-2.56 -0.22,-0.72 -0.23,-1.55 -0.14,-2.31 0.35,-3.04 -0.09,-6.01 -0.69,-8.96 -0.27,-1.32 -0.69,-2.62 -1.13,-3.9 -0.35,-1.02 -1.14,-1.6 -2.25,-1.48 -1.44,0.16 -2.91,0.26 -4.29,0.64 -5.96,1.62 -11.39,4.4 -16.5,7.81 -1.85,1.24 -3.62,2.61 -5.43,3.91 -1.02,0.73 -2.03,1.49 -3.09,2.17 -1.81,1.16 -3.83,1.33 -5.9,1.04 -1.34,-0.19 -1.82,-0.98 -1.41,-2.29 0.14,-0.46 0.37,-0.9 0.62,-1.31 0.45,-0.75 0.97,-1.45 1.44,-2.19 0.78,-1.25 1.38,-2.55 1.41,-4.07 0.11,-6.06 -0.55,-12 -2.54,-17.76 -0.19,-0.54 -0.4,-1.1 -0.73,-1.55 -0.51,-0.71 -1.3,-0.94 -2.06,-0.58 -1.49,0.71 -2.94,1.48 -4.4,2.25 -1.03,0.54 -2.01,1.17 -3.05,1.69 -1.27,0.63 -2.63,0.65 -3.98,0.32 -1.11,-0.27 -1.55,-1.46 -0.77,-2.25 1.57,-1.58 3.19,-3.13 4.91,-4.53 1.43,-1.16 2.95,-2.27 4.59,-3.09 2.93,-1.48 3.25,-4.77 2.18,-7.28 -1.17,-2.77 -2.31,-5.55 -3.6,-8.26 -1.79,-3.77 -3.73,-7.46 -5.56,-11.21 -1.05,-2.16 -2.62,-3.84 -4.55,-5.21 -0.47,-0.33 -0.98,-0.68 -1.53,-0.81 -2.7,-0.67 -3.07,-0.12 -3.52,2.01 -0.14,0.66 -0.25,1.35 -0.52,1.96 -0.38,0.86 -1.41,1.41 -2.12,1.22 -0.93,-0.25 -1.54,-0.9 -1.65,-1.83 -0.08,-0.65 0.08,-1.34 0.18,-2 0.1,-0.67 0.37,-1.33 0.38,-1.99 0.03,-1.55 -1.92,-2.86 -3.33,-2.22 -0.37,0.16 -0.76,0.71 -0.79,1.11 -0.15,1.93 -0.4,3.89 -0.19,5.79 0.31,2.71 0.48,5.4 0.46,8.13 -0.01,1.63 0.32,3.27 0.5,4.9 0.04,0.39 0.11,0.77 0.16,1.15 0.45,3.46 0.9,6.92 1.36,10.38 0.03,0.19 0.09,0.38 0.11,0.57 0.11,0.87 -0.28,1.81 -0.7,1.67 -0.5,-0.17 -0.99,-0.55 -1.32,-0.97 -0.28,-0.36 -0.36,-0.89 -0.47,-1.35 -0.13,-0.57 -0.06,-1.21 -0.3,-1.71 -1.41,-2.96 -1.73,-6.1 -1.83,-9.33 -0.06,-1.92 -0.59,-3.82 -0.97,-5.72 -0.12,-0.62 -0.53,-0.63 -1.03,-0.16 -0.48,0.45 -0.93,1.07 -1.51,1.24 -1.45,0.45 -2.72,-0.5 -2.83,-2.06 -0.08,-1.16 0.04,-2.33 0.06,-3.49 0.01,-0.68 0.07,-1.36 0.01,-2.03 -0.05,-0.62 -0.36,-1.14 -1.07,-1.16 -1.77,-0.05 -2.23,-1.24 -2.49,-2.69 -0.32,-1.81 -0.67,-3.61 -1.05,-5.41 -0.17,-0.84 -0.99,-1.4 -1.7,-1.23 -0.74,0.17 -1.49,1.01 -1.25,1.73 0.95,2.83 0.63,5.77 0.94,8.65 0.16,1.52 0.85,2.97 1.3,4.46 0.33,1.11 0.19,2.12 -0.67,2.96 -0.53,0.51 -1.14,0.69 -1.87,0.44 -1.65,-0.59 -2.51,-1.82 -2.67,-3.49 -0.12,-1.25 -0.07,-2.52 -0.02,-3.79 0.08,-2.25 -0.07,-4.45 -0.74,-6.63 -0.51,-1.66 -0.84,-3.38 -1.29,-5.06 -0.17,-0.65 -0.42,-1.28 -0.69,-1.89 -1.11,-2.47 -1.12,-2.48 -3.86,-2.45 -1.07,0.01 -2.14,0.07 -3.19,0.21 -0.62,0.08 -1.01,0.54 -1.1,1.19 -0.04,0.29 -0.08,0.58 -0.07,0.87 0.15,3.88 -0.09,7.78 0.81,11.61 0.11,0.47 0.14,0.96 0.18,1.44 0.59,6.09 1.49,12.13 2.57,18.15 0.77,4.3 1.5,8.6 2.1,12.93 0.66,4.74 2.17,9.23 3.64,13.75 0.87,2.67 1.54,5.4 2.36,8.08 0.66,2.17 0,4.02 -1.27,5.72 -0.52,0.7 -1.12,1.36 -1.78,1.92 -1.11,0.95 -1.58,2.18 -1.79,3.56 -0.16,1.06 -0.28,2.12 -0.42,3.18 -0.06,0.48 -0.07,0.97 -0.17,1.45 -0.28,1.26 -0.99,2.02 -1.57,1.7 -0.88,-0.49 -0.63,-1.33 -0.55,-2.08 0.09,-0.87 0.25,-1.73 0.34,-2.6 0.05,-0.53 -0.19,-1.04 -0.72,-1.1 -0.42,-0.05 -1.04,0.07 -1.29,0.36 -0.35,0.4 -0.57,1.01 -0.63,1.56 -0.09,0.76 0.02,1.55 0.03,2.33 0.02,0.83 -0.29,1.53 -0.95,2.02 -0.2,0.15 -0.56,0.24 -0.79,0.16 -0.22,-0.07 -0.5,-0.38 -0.51,-0.6 -0.05,-0.57 0.09,-1.16 0.05,-1.74 -0.1,-1.17 -0.9,-2.01 -2.04,-2.09 -0.67,-0.05 -1.36,0.02 -2.03,0.1 -0.53,0.07 -0.86,0.44 -0.91,0.98 -0.06,0.77 -0.07,1.55 -0.12,2.33 -0.06,0.93 -0.52,1.65 -1.21,2.24 -0.53,0.46 -1.46,0.16 -1.64,-0.53 -0.05,-0.19 -0.11,-0.38 -0.11,-0.57 0.08,-2.93 -0.5,-5.79 -0.97,-8.66 -0.4,-2.49 -0.84,-4.97 -1.27,-7.46 -0.52,-3.06 -1.04,-6.11 -1.58,-9.17 -0.51,-2.86 -1.04,-5.72 -1.56,-8.58 -0.09,-0.48 -0.19,-0.95 -0.23,-1.44 -0.41,-5.03 -0.74,-10.07 -1.24,-15.09 -0.96,-9.5 -0.74,-19.01 -0.55,-28.53 0.02,-0.97 0.03,-1.94 -0.04,-2.91 -0.05,-0.64 -0.52,-1.08 -1.16,-1.11 -0.77,-0.04 -1.56,-0.01 -2.31,0.11 -1.36,0.23 -2.07,0.97 -2.17,2.34 -0.08,1.06 0.06,2.13 0.05,3.2 -0.03,5.64 -0.07,11.27 -0.11,16.91 -0.01,1.95 -0.11,3.87 -0.76,5.75 -0.48,1.39 -0.65,2.82 -0.42,4.31 0.16,1.05 0.21,2.13 0.25,3.2 0.02,0.57 -0.05,1.16 -0.19,1.72 -0.05,0.21 -0.4,0.47 -0.62,0.49 -0.21,0.01 -0.61,-0.24 -0.64,-0.42 -0.21,-1.23 -0.41,-2.48 -0.5,-3.73 -0.06,-0.87 0.19,-1.77 0.06,-2.61 -0.22,-1.48 -0.11,-3.16 -1.94,-3.92 -0.3,-0.13 -0.57,-0.81 -0.54,-1.21 0.11,-1.34 0.23,-2.71 0.58,-4.01 0.8,-2.98 0.8,-5.94 0.07,-8.92 -0.02,-0.09 -0.05,-0.21 -0.12,-0.26 -0.13,-0.1 -0.31,-0.26 -0.43,-0.23 -0.15,0.04 -0.36,0.22 -0.38,0.37 -0.1,0.77 -0.16,1.54 -0.21,2.32 -0.17,2.91 -0.48,5.73 -1.72,8.48 -0.68,1.51 -0.49,3.42 -0.67,5.15 -0.09,0.86 -0.11,1.73 -0.25,2.59 -0.03,0.19 -0.43,0.45 -0.66,0.46 -0.23,0 -0.47,-0.27 -0.69,-0.44 -0.06,-0.05 -0.1,-0.18 -0.1,-0.27 -0.05,-2.59 -1.1,-5.16 -0.25,-7.78 0.09,-0.27 0.1,-0.57 0.12,-0.86 0.06,-0.71 -0.35,-1.39 -0.8,-1.33 -0.64,0.09 -1.13,0.49 -1.23,1.08 -0.13,0.76 -0.03,1.55 -0.09,2.32 -0.07,0.86 -0.17,1.73 -0.38,2.57 -0.06,0.24 -0.55,0.46 -0.87,0.52 -0.14,0.03 -0.46,-0.34 -0.53,-0.58 -0.2,-0.74 -0.3,-1.51 -0.48,-2.26 -0.03,-0.13 -0.29,-0.27 -0.45,-0.28 -0.16,0 -0.33,0.14 -0.48,0.25 -0.08,0.05 -0.15,0.15 -0.17,0.23 -0.29,1.71 -0.59,3.42 -0.84,5.14 -0.05,0.36 0.07,0.77 0.19,1.13 0.12,0.36 0.31,0.72 0.54,1.03 3.01,4.28 2.06,8.47 -0.35,12.57 -1.08,1.84 -2.37,3.53 -3.85,5.1 -3.88,4.1 -8.01,7.93 -12.47,11.38 -2.3,1.78 -4.6,3.58 -7.06,5.13 -4.56,2.89 -9.52,4.81 -14.91,5.48 -0.58,0.07 -1.18,0.05 -1.74,0.18 -3.41,0.82 -6.83,0.31 -10.12,-0.39 -4.94,-1.06 -9.14,-3.54 -12.43,-7.57 -3.44,-4.22 -5.58,-9.04 -7.28,-14.12 -0.18,-0.55 -0.37,-1.12 -0.42,-1.69 -0.09,-1.05 -0.38,-1.86 -1.53,-2.19 -0.89,-0.26 -1.07,-1 -0.97,-1.87 0.07,-0.56 0.17,-1.2 0,-1.7 -0.74,-2.1 -0.61,-4.21 -0.32,-6.34 0.24,-1.71 -0.04,-3.29 -1.01,-4.73 -0.09,-0.13 -0.31,-0.26 -0.47,-0.25 -0.16,0 -0.4,0.15 -0.45,0.29 -0.19,0.54 -0.39,1.1 -0.47,1.67 -0.24,1.63 -0.41,3.27 -0.62,4.91 -0.05,0.39 -0.03,0.81 -0.18,1.15 -1.07,2.42 -1.22,5.09 -2.12,7.54 -0.5,1.36 -0.57,2.63 -0.38,3.98 0.2,1.44 0.61,2.88 0.59,4.32 -0.07,5.3 -0.85,10.46 -3.72,15.06 -0.71,1.15 -1.53,2.25 -2.46,3.24 -2.73,2.92 -5.76,5.48 -9.33,7.35 -1.49,0.78 -3.08,1.1 -4.74,1.26 -7.3,0.72 -12.8,-2.44 -17.17,-7.94 -1.32,-1.66 -2.26,-3.61 -3.4,-5.4 -0.63,-0.98 -1.2,-2.06 -2.03,-2.83 -1.35,-1.25 -1.4,-2.65 -1.06,-4.26 0.41,-1.89 0.79,-3.8 1.08,-5.71 0.23,-1.5 -0.18,-2.89 -1.15,-4.06 -0.44,-0.54 -1.06,-0.85 -1.81,-0.7 -0.73,0.15 -1.34,0.81 -1.45,1.63 -0.06,0.48 -0.04,0.97 -0.04,1.45 0,0.87 0.06,1.75 0.03,2.62 -0.08,2.36 -0.51,2.81 -2.88,3.05 -0.1,0 -0.2,0 -0.29,0 -1.18,0.14 -1.42,0.4 -1.54,1.67 -0.2,2.22 -0.39,4.45 -0.61,6.67 -0.07,0.67 -0.19,1.35 -0.38,2 -0.29,1.01 -0.99,1.55 -1.86,1.56 -0.95,0.01 -1.95,-0.65 -2.21,-1.59 -0.15,-0.55 -0.21,-1.16 -0.13,-1.72 0.22,-1.53 0.6,-3.04 0.8,-4.57 0.22,-1.63 0.51,-3.28 0.41,-4.91 -0.15,-2.6 -1.56,-4.54 -3.82,-5.84 -0.33,-0.19 -0.7,-0.34 -1.07,-0.44 -0.92,-0.23 -1.77,0.35 -1.89,1.32 -0.07,0.57 0,1.16 0,1.74 0,1.16 0,2.33 0,3.57 z m -126.37,2.12 c 4.59,-0.09 9.02,-1.26 13.51,-2.02 0.47,-0.08 0.92,-0.3 1.38,-0.45 1.16,-0.36 1.75,-1.19 1.83,-2.36 0.04,-0.57 0.07,-1.2 -0.15,-1.7 -0.72,-1.66 -0.39,-3.23 0.14,-4.83 0.24,-0.73 0.52,-1.47 0.62,-2.23 0.13,-1.01 -0.04,-1.95 -1.19,-2.37 -1.08,-0.4 -1.34,-1.31 -1.36,-2.35 -0.01,-0.49 -0.07,-0.97 -0.03,-1.46 0.13,-1.71 -0.57,-3.01 -1.89,-4.03 -0.54,-0.42 -1.08,-0.83 -1.62,-1.24 -4.72,-3.57 -9.43,-7.16 -14.18,-10.69 -1.79,-1.33 -3.66,-2.56 -5.53,-3.78 -0.9,-0.59 -1.81,-0.08 -1.83,0.97 -0.02,0.68 0.03,1.36 0.13,2.03 0.5,3.25 1.19,6.49 1.51,9.75 0.4,4.07 1.52,7.99 2.24,12 0.73,4 1.66,7.97 2.45,11.96 0.52,2.66 0.74,2.89 3.39,2.81 0.19,0 0.39,-0.02 0.58,-0.03 z M 634.56,785.3 c 0,0 -0.03,0 -0.04,0 0.04,0.78 0.1,1.55 0.11,2.33 0.02,0.78 0.07,1.56 -0.03,2.32 -0.2,1.61 -1.44,2.29 -2.96,1.7 -0.91,-0.35 -1.41,-1.07 -1.49,-1.99 -0.08,-0.86 0.02,-1.74 0.04,-2.61 0.06,-2.33 0.3,-4.66 0.14,-6.97 -0.22,-3.22 -2.1,-5.35 -5.14,-6.38 -1.62,-0.55 -2.86,0.49 -2.37,2.08 0.61,2 0.6,4.02 0.62,6.05 0.01,1.26 0.11,2.47 0.59,3.69 0.48,1.25 0.62,2.64 0.79,3.98 0.14,1.09 -0.31,1.86 -1.08,2.18 -0.89,0.37 -1.74,0.21 -2.46,-0.37 -0.37,-0.29 -0.71,-0.7 -0.9,-1.12 -0.57,-1.34 -1.17,-2.73 -0.87,-4.22 0.46,-2.25 0.08,-4.43 -0.12,-6.66 -0.18,-1.97 -0.82,-3.77 -1.42,-5.61 -0.55,-1.66 -1.62,-2.54 -3.37,-2.76 -1.24,-0.16 -2.47,-0.51 -3.68,-0.83 -2.62,-0.69 -5.24,-1.39 -7.85,-2.13 -1.31,-0.37 -2.58,-0.86 -3.89,-1.21 -1.41,-0.37 -2.31,0.3 -2.36,1.69 -0.02,0.68 0,1.36 0.04,2.04 0.1,1.44 0.99,2.05 2.39,1.61 0.64,-0.2 1.23,-0.59 1.88,-0.77 1.78,-0.5 2.88,0.24 3.05,2.03 0.05,0.58 -0.05,1.17 0.02,1.74 0.1,0.76 0.18,1.57 0.51,2.24 0.6,1.21 1.36,2.35 2.1,3.48 2.05,3.1 4.81,5.56 7.36,8.23 3.39,3.56 7.5,5.84 12.08,7.28 3.09,0.97 6.36,1 9.48,0.04 4.8,-1.46 8.12,-4.77 10.56,-9.04 0.51,-0.89 0.57,-1.85 0.42,-2.82 -0.08,-0.53 -0.39,-0.88 -0.97,-0.88 -0.29,0 -0.57,0.09 -0.86,0.11 -1.78,0.08 -2.58,-0.55 -2.74,-2.2 -0.06,-0.58 0.03,-1.17 -0.02,-1.75 -0.11,-1.33 -0.78,-1.91 -2.11,-1.81 -0.48,0.03 -0.96,0.15 -1.41,0.32 -1.07,0.42 -2.12,0.91 -3.19,1.35 -0.71,0.29 -1.1,0.8 -1.07,1.56 0.05,1.36 0.13,2.72 0.2,4.07 z m -158.38,-0.25 c 0.42,-4.25 -0.82,-8.05 -1.98,-11.84 -0.43,-1.41 -1.64,-2.08 -3.1,-2.32 -4.41,-0.72 -8.64,-2.15 -12.92,-3.36 -1.03,-0.29 -2.04,-0.62 -3.08,-0.86 -0.84,-0.2 -1.62,0.26 -1.75,1.1 -0.16,1.05 -0.21,2.12 -0.21,3.18 0,0.85 0.69,1.43 1.57,1.29 0.65,-0.11 1.27,-0.42 1.89,-0.65 2.59,-0.94 3.65,-0.35 3.88,2.31 0.19,2.17 0.84,4.13 2.06,5.96 1.89,2.85 4.19,5.32 6.49,7.81 2.81,3.04 6.1,5.34 9.79,7.18 3.13,1.56 6.35,2.25 9.83,2.09 3.11,-0.14 5.96,-0.97 8.3,-3.03 1.73,-1.54 3.32,-3.26 4.83,-5.02 0.67,-0.78 1.11,-1.83 1.46,-2.82 0.45,-1.28 -0.36,-2.32 -1.7,-2.38 -0.19,0 -0.38,0.07 -0.58,0.07 -1.62,-0.02 -2.14,-0.47 -2.23,-1.98 -0.02,-0.39 0.02,-0.78 0.06,-1.16 0.21,-2.38 -2.36,-3.49 -3.97,-2.14 -0.7,0.59 -1.45,0.88 -2.35,1 -1.7,0.22 -1.99,0.62 -1.86,2.24 0.1,1.16 0.31,2.31 0.37,3.47 0.08,1.55 0.12,3.1 0.06,4.65 -0.04,1 -0.72,1.72 -1.52,1.92 -1.09,0.26 -2.24,-0.18 -2.76,-1.13 -0.22,-0.41 -0.41,-0.91 -0.4,-1.37 0.02,-1.65 -0.03,-3.32 0.25,-4.93 0.29,-1.67 0.13,-3.25 -0.1,-4.9 -0.42,-2.96 -2.21,-4.65 -4.83,-5.65 -1.76,-0.67 -2.56,0 -2.32,1.92 0.19,1.54 0.68,3.09 0.57,4.61 -0.18,2.29 0.27,4.41 0.88,6.57 0.29,1 0.36,2.1 0.36,3.15 0,0.82 -0.52,1.45 -1.32,1.76 -0.81,0.31 -1.86,0.11 -2.4,-0.57 -0.72,-0.92 -1.36,-1.88 -1.3,-3.15 0.05,-1.06 0,-2.13 0,-3.01 z m 0.8,-43.28 c 0.68,-2.6 0.26,-4.93 -0.72,-7.22 -0.31,-0.74 -0.81,-1.14 -1.53,-1.09 -1.74,0.12 -3.5,0.18 -5.19,0.54 -4.95,1.03 -9.23,3.45 -13.09,6.64 -0.66,0.55 -1.28,1.19 -1.76,1.9 -1.26,1.86 -1.01,3.55 0.8,4.78 1.27,0.86 2.67,1.6 4.11,2.13 3.18,1.16 6.42,2.18 9.64,3.21 1.57,0.5 3.15,0.98 4.75,1.34 2.26,0.5 3.23,-0.26 3.55,-2.54 0.22,-1.55 0.18,-3.06 -0.11,-4.62 -0.31,-1.71 -0.33,-3.46 -0.47,-5.07 z m 140.12,-8.34 c -2.98,0.31 -6.23,0.85 -9.24,2.32 -3.41,1.67 -6.63,3.62 -9.26,6.44 -1.48,1.58 -1.16,3.97 0.5,5.07 0.73,0.48 1.5,0.9 2.28,1.29 4.18,2.1 8.7,3.28 13.16,4.59 1.02,0.3 2.03,0.66 3.07,0.86 2.3,0.45 3.3,-0.32 3.49,-2.63 0.2,-2.33 0.17,-4.64 -0.41,-6.95 -0.25,-1 -0.38,-2.19 -0.07,-3.14 0.64,-2 0.23,-3.82 -0.33,-5.7 -0.53,-1.79 -1.08,-2.22 -3.19,-2.16 z m -49.69,63.56 c -0.07,-0.97 -0.07,-1.95 -0.23,-2.9 -0.86,-4.91 -2.69,-9.5 -4.92,-13.93 -1.17,-2.33 -2.29,-2.71 -4.77,-1.83 -3.28,1.16 -6.44,2.65 -9.67,3.94 -1.55,0.61 -2.23,1.77 -2.44,3.31 -0.12,0.86 -0.22,1.73 -0.24,2.6 -0.02,0.8 0.44,1.37 1.21,1.34 1.15,-0.05 2.31,-0.2 3.43,-0.46 2.41,-0.55 4.18,0.13 5.29,2.37 0.68,1.38 1.25,2.84 1.66,4.32 0.94,3.41 3.1,5.99 5.45,8.46 0.38,0.4 0.93,0.7 1.45,0.92 1.38,0.56 2.38,0.14 2.69,-1.26 0.5,-2.26 1.25,-4.5 1.1,-6.88 z m 212.18,-46.91 c 0,-0.06 0,-0.12 0,-0.18 -0.97,0 -1.94,0.01 -2.91,0 -1.74,-0.03 -3.49,-0.1 -5.23,-0.1 -0.98,0 -1.44,0.57 -1.29,1.48 0.06,0.38 0.15,0.76 0.28,1.12 0.97,2.63 1.93,5.27 2.96,7.88 0.46,1.17 0.97,2.33 1.6,3.42 0.8,1.37 1.96,1.96 3.63,1.66 3.13,-0.56 6.35,-0.97 9.54,-0.55 2.33,0.31 2.78,-0.57 2.68,-2.55 -0.02,-0.39 -0.02,-0.78 -0.07,-1.16 -0.28,-2.6 -0.49,-5.19 -0.11,-7.82 0.25,-1.68 -0.68,-2.74 -2.36,-3.1 -0.56,-0.12 -1.15,-0.09 -1.73,-0.09 -2.33,0 -4.65,0 -6.98,0 z m -118.45,0.45 c -0.05,-0.46 0.01,-1.08 -0.19,-1.6 -0.52,-1.39 -0.68,-2.82 -0.71,-4.28 0,-0.19 -0.05,-0.4 -0.16,-0.55 -0.1,-0.14 -0.29,-0.28 -0.45,-0.3 -0.16,-0.02 -0.46,0.05 -0.5,0.16 -0.25,0.63 -0.51,1.27 -0.63,1.92 -0.75,4.36 -3.21,7.65 -6.52,10.35 -1.64,1.33 -3.32,2.7 -5.52,3.09 -2.09,0.38 -3.6,-0.46 -4.4,-2.39 -0.76,-1.84 -0.98,-3.74 -0.92,-5.7 0.06,-1.78 -0.22,-3.49 -1.07,-5.07 -0.18,-0.33 -0.46,-0.61 -0.74,-0.87 -0.35,-0.33 -1.13,-0.11 -1.19,0.34 -0.1,0.76 -0.14,1.54 -0.15,2.31 -0.04,2.03 0.02,4.06 -0.85,6 -0.35,0.78 -0.42,1.7 -0.51,2.56 -0.17,1.62 0.4,2.55 1.94,3.16 0.71,0.28 1.48,0.55 2.23,0.6 1.88,0.12 3.59,0.78 5.31,1.44 1.9,0.73 3.79,1.54 5.76,2.02 2.28,0.56 4.45,1.33 6.55,2.37 1.28,0.63 2.02,0.3 2.39,-1.02 0.81,-2.86 0.89,-5.75 0.22,-8.63 -0.32,-1.36 -0.34,-2.68 -0.13,-4.04 0.09,-0.58 0.15,-1.16 0.23,-1.86 z m -170.63,-8.09 c -0.28,-0.74 -0.63,-1.73 -1.03,-2.7 -0.04,-0.1 -0.34,-0.12 -0.52,-0.13 -0.06,0 -0.16,0.12 -0.19,0.2 -0.11,0.37 -0.24,0.73 -0.29,1.11 -0.38,3.06 -0.74,6.09 -1.87,9.05 -0.63,1.65 -0.58,3.63 -0.51,5.45 0.07,1.9 1.65,3.11 3.58,3.08 0.35,0 0.81,-0.17 1.02,-0.42 1.11,-1.34 1.02,-4.04 -0.47,-5 -1.41,-0.9 -1.42,-1.9 -1.13,-3.2 0.12,-0.57 0.29,-1.13 0.4,-1.7 0.33,-1.81 0.64,-3.62 1.02,-5.72 z m 139.25,11.04 c 0,0.48 0,0.97 0,1.45 0.04,1.94 1.25,3.36 3.14,3.51 0.5,0.04 1.22,-0.19 1.53,-0.55 1.08,-1.27 0.88,-3.45 -0.54,-4.34 -1.13,-0.71 -1.34,-1.59 -1.19,-2.69 0.21,-1.53 0.48,-3.06 0.82,-4.57 0.45,-2.01 0.66,-4.02 0.1,-6.03 -0.07,-0.23 -0.38,-0.53 -0.61,-0.54 -0.19,-0.02 -0.55,0.3 -0.59,0.51 -0.29,1.72 -0.49,3.45 -0.78,5.17 -0.17,1.04 -0.23,2.19 -0.73,3.06 -0.93,1.6 -1.17,3.25 -1.16,5.02 z m -145.31,-2.37 c 0,0 -0.05,0 -0.08,0 0.04,-0.77 0.12,-1.54 0.12,-2.31 0,-0.57 -0.1,-1.15 -0.21,-1.72 -0.1,-0.5 -0.81,-0.7 -1.13,-0.3 -0.34,0.44 -0.75,0.93 -0.84,1.45 -0.16,0.94 -0.09,1.92 -0.12,2.89 -0.02,0.57 0.05,1.17 -0.1,1.71 -0.07,0.25 -0.55,0.47 -0.88,0.53 -0.19,0.03 -0.57,-0.24 -0.64,-0.45 -0.2,-0.62 -0.27,-1.28 -0.43,-1.92 -0.02,-0.07 -0.45,-0.13 -0.46,-0.1 -0.14,0.35 -0.25,0.71 -0.35,1.08 -0.87,3.15 -0.6,3.61 2.52,4.45 1.45,0.39 2.52,-0.33 2.58,-1.82 0.05,-1.16 0.01,-2.32 0.01,-3.48 z m 138,1.55 c -0.35,2.45 -0.12,2.95 2.29,3.42 0.19,0.04 0.36,0.15 0.54,0.21 1.75,0.57 2.63,0 2.7,-1.75 0.01,-0.29 -0.08,-0.58 -0.09,-0.87 -0.03,-1.93 -0.36,-3.86 0.16,-5.78 0.09,-0.34 0.04,-0.83 -0.16,-1.1 -0.14,-0.2 -0.76,-0.34 -0.91,-0.2 -0.35,0.29 -0.69,0.74 -0.77,1.17 -0.19,0.94 -0.2,1.92 -0.3,2.88 -0.08,0.76 -0.13,1.54 -0.34,2.28 -0.07,0.26 -0.56,0.58 -0.85,0.57 -0.31,0 -0.67,-0.32 -0.89,-0.6 -0.15,-0.19 -0.14,-0.55 -0.13,-0.83 0,-0.56 0.21,-1.18 -0.46,-1.53 -0.42,-0.22 -0.73,0.38 -0.79,1.53 -0.01,0.19 0,0.39 0,0.58 z m -30.63,20.69 c -0.16,1.36 -0.24,2.03 -0.31,2.71 -0.08,0.71 0,1.37 0.77,1.69 0.56,0.23 1.12,-0.13 1.56,-0.93 1.59,-2.91 1.05,-6.56 -1.35,-9.09 -0.1,-0.11 -0.36,-0.16 -0.5,-0.11 -0.16,0.05 -0.35,0.23 -0.38,0.37 -0.07,0.37 -0.09,0.77 -0.07,1.15 0.1,1.63 0.22,3.26 0.28,4.21 z m -140.7,-0.05 c -0.22,-2.07 -0.93,-3.84 -2.22,-5.34 -0.16,-0.18 -0.57,-0.33 -0.75,-0.25 -0.18,0.08 -0.34,0.51 -0.29,0.73 0.65,2.57 0.62,5.14 0.14,7.72 -0.03,0.18 -0.04,0.42 0.05,0.56 0.2,0.31 0.42,0.72 0.71,0.81 0.29,0.08 0.77,-0.1 1,-0.33 1.11,-1.1 1.12,-2.6 1.35,-3.9 z m 212.22,-21.23 c 0,0 -0.08,0 -0.13,0.01 0.13,1.53 0.25,3.06 0.42,4.58 0.02,0.16 0.36,0.33 0.58,0.41 0.06,0.02 0.32,-0.24 0.34,-0.39 0.37,-2.79 0.38,-5.57 -0.57,-8.27 -0.04,-0.12 -0.26,-0.18 -0.4,-0.28 -0.08,0.16 -0.23,0.31 -0.24,0.47 -0.02,1.15 -0.01,2.31 -0.01,3.47 z m -39.88,-10.62 c -0.17,1.14 -0.37,2.27 -0.5,3.41 -0.03,0.24 0.18,0.51 0.28,0.77 0.21,-0.13 0.54,-0.22 0.62,-0.41 1.1,-2.61 1.09,-5.24 0,-7.86 -0.09,-0.22 -0.36,-0.37 -0.55,-0.55 -0.15,0.3 -0.44,0.63 -0.41,0.91 0.13,1.24 0.36,2.46 0.56,3.73 z m -206.51,47.89 c 0,0 0.04,0 0.06,0 0,-0.67 0.02,-1.34 -0.02,-2.01 0,-0.12 -0.24,-0.31 -0.37,-0.31 -0.16,0 -0.41,0.14 -0.45,0.26 -0.55,1.82 -1.09,3.65 -1.57,5.49 -0.12,0.46 0.08,1.07 0.66,1.07 0.39,0 0.93,-0.28 1.15,-0.61 0.3,-0.45 0.45,-1.05 0.51,-1.6 0.08,-0.76 0.02,-1.53 0.02,-2.3 z m 62.41,-48.88 c 0.11,1.86 0.17,3.12 0.26,4.37 0.01,0.14 0.22,0.32 0.37,0.36 0.12,0.03 0.41,-0.09 0.43,-0.18 0.58,-2.59 0.43,-5.18 -0.06,-7.76 -0.02,-0.12 -0.29,-0.27 -0.44,-0.26 -0.14,0 -0.37,0.19 -0.38,0.31 -0.09,1.25 -0.15,2.51 -0.18,3.16 z m 313.54,16.22 c 0,0 0.03,0 0.04,0 0,0.96 -0.03,1.92 0.02,2.88 0.01,0.21 0.31,0.4 0.48,0.6 0.19,-0.18 0.52,-0.35 0.55,-0.56 0.29,-2.19 0.64,-4.38 0.2,-6.59 -0.04,-0.21 -0.33,-0.49 -0.54,-0.53 -0.16,-0.02 -0.51,0.29 -0.53,0.47 -0.11,1.24 -0.15,2.48 -0.22,3.72 z m -208.52,9.27 v 0 c 0,-0.86 0.06,-1.72 -0.04,-2.57 -0.03,-0.24 -0.56,-0.64 -0.76,-0.58 -0.27,0.07 -0.66,0.52 -0.64,0.78 0.08,1.43 0.25,2.85 0.44,4.27 0.03,0.22 0.3,0.41 0.46,0.61 0.18,-0.17 0.49,-0.33 0.51,-0.51 0.06,-0.66 0.02,-1.34 0.02,-2.01 z m -143.81,-0.47 c 0.08,0 0.15,-0.01 0.23,-0.02 -0.11,-0.85 -0.21,-1.7 -0.36,-2.54 -0.02,-0.12 -0.3,-0.28 -0.45,-0.28 -0.15,0 -0.38,0.16 -0.44,0.31 -0.66,1.58 0.1,3.02 0.5,4.49 0.02,0.07 0.2,0.16 0.21,0.15 0.11,-0.12 0.29,-0.25 0.29,-0.39 0.03,-0.58 0.01,-1.16 0.01,-1.73 z M 300.36,803.3 c -0.36,-0.3 -0.55,-0.46 -0.75,-0.63 -0.19,0.27 -0.46,0.52 -0.55,0.82 -0.04,0.13 0.3,0.37 0.46,0.56 0.25,-0.22 0.5,-0.45 0.83,-0.75 z m 425.61,-50.91 c -0.04,-0.07 -0.07,-0.15 -0.11,-0.22 -0.02,0.13 -0.03,0.27 -0.05,0.4 0.05,-0.06 0.1,-0.12 0.16,-0.18 z"
         id="path6"
         style="fill:#ffffff;fill-opacity:1" />
      <path
         d="m 258.72,753.51 c 0,-1.85 -0.01,-3.69 0,-5.54 0,-0.87 -0.06,-1.78 0.14,-2.61 0.66,-2.72 0.27,-5.41 -0.02,-8.11 -0.04,-0.39 -0.14,-0.76 -0.21,-1.15 -0.5,-2.72 0.47,-4.75 2.87,-6.11 1.01,-0.57 2.01,-1.17 3.05,-1.68 4.03,-1.98 7.63,-0.82 10.74,1.91 2.11,1.84 3.69,4.21 5.07,6.68 2.58,4.63 3.88,9.68 5.16,14.76 1.62,6.4 1.72,12.89 1.39,19.39 -0.28,5.52 -2.21,10.58 -5.12,15.28 -2.11,3.4 -4.57,6.51 -7.42,9.31 -0.6,0.59 -1.56,1.13 -1.19,2.14 0.42,1.19 1.53,0.9 2.5,0.87 1.14,-0.04 1.58,0.41 1.69,1.51 0.04,0.38 0.04,0.78 0,1.16 -0.13,1.23 -0.95,1.93 -2.19,1.77 -1.45,-0.19 -2.84,-0.58 -4.12,-1.35 -1.89,-1.15 -3.86,-1.15 -5.84,-0.21 -0.35,0.17 -0.77,0.21 -1.09,0.4 -1.37,0.84 -2.89,1.07 -4.44,1.26 -1.64,0.2 -3.27,0.43 -4.68,1.42 -0.97,0.68 -2,0.65 -3.04,0.16 -1.05,-0.49 -2.15,-0.91 -3.16,-1.47 -1.02,-0.56 -1.97,-0.74 -3,-0.04 -0.31,0.21 -0.72,0.3 -1.09,0.39 -1.15,0.27 -1.79,-0.22 -1.94,-1.48 -0.04,-0.38 0.01,-0.78 -0.04,-1.16 -0.15,-0.96 -0.73,-1.6 -1.66,-1.81 -1.43,-0.32 -2.87,-0.53 -4.25,0.29 -0.63,0.38 -1.3,0.5 -1.81,-0.2 -0.5,-0.69 -0.5,-1.52 0.05,-2.14 0.64,-0.71 1.7,-1.25 1.46,-2.34 -0.18,-0.81 -0.84,-1.5 -1.24,-2.26 -1.68,-3.17 -3.35,-6.35 -5.03,-9.53 -0.45,-0.85 -0.88,-1.72 -1.35,-2.56 -0.06,-0.11 -0.35,-0.17 -0.5,-0.13 -0.15,0.04 -0.34,0.22 -0.36,0.36 -0.09,0.47 -0.13,0.96 -0.15,1.44 -0.13,3.41 -0.6,6.77 -1.57,10.04 -0.86,2.89 -2.15,5.59 -3.86,8.1 -2.26,3.32 -4.9,6.28 -8.05,8.76 -1.27,1 -1.81,2.23 -1.83,3.76 -0.01,0.97 0.06,1.94 0.05,2.91 -0.01,2.43 -0.03,4.86 -0.09,7.28 -0.03,0.97 -0.19,1.93 -0.86,2.73 -0.55,0.65 -1.22,0.94 -2.06,0.77 -0.8,-0.16 -1.38,-0.71 -1.38,-1.64 0,-1.05 0.03,-2.17 0.4,-3.13 0.72,-1.9 0.55,-3.83 0.51,-5.76 -0.02,-1.23 -0.69,-1.97 -1.61,-2.13 -0.99,-0.17 -2.14,0.47 -2.55,1.52 -0.21,0.53 -0.29,1.12 -0.36,1.7 -0.08,0.67 -0.04,1.36 -0.11,2.04 -0.18,1.78 -0.58,2.17 -2.32,2.3 -1.69,0.13 -2.03,0.49 -1.96,2.07 0.08,2.04 0.17,4.07 0.22,6.11 0.02,0.68 0,1.37 -0.13,2.03 -0.3,1.48 -1.22,2.12 -2.73,1.98 -1.32,-0.12 -2.02,-0.65 -2,-2.02 0.03,-1.93 0.22,-3.87 0.55,-5.77 0.35,-2.05 0.41,-4.03 -0.2,-6.04 -0.4,-1.32 -1.11,-2.22 -2.55,-2.47 -0.76,-0.13 -1.48,-0.46 -2.24,-0.62 -0.85,-0.18 -1.68,0.36 -1.62,1.21 0.23,3.67 -0.56,7.39 0.61,11 0.2,0.63 0.29,1.34 0.24,2 -0.08,0.93 -0.62,1.64 -1.54,1.94 -0.9,0.3 -1.7,0.09 -2.4,-0.61 -0.73,-0.73 -1.14,-1.58 -1.12,-2.6 0.03,-1.46 0.13,-2.91 0.17,-4.37 0.08,-3.01 0.15,-5.99 -0.71,-8.96 -0.37,-1.29 -0.92,-2.31 -1.88,-3.18 -1.15,-1.05 -2.29,-2.1 -3.41,-3.18 -2.53,-2.43 -4.6,-5.24 -6.54,-8.15 -0.61,-0.92 -1.34,-1.31 -2.46,-1.03 -0.74,0.19 -1.52,0.32 -2.29,0.33 -0.92,0 -1.51,-1.14 -1.03,-1.94 0.24,-0.4 0.59,-0.77 0.97,-1.05 1.1,-0.8 1.36,-1.91 1.06,-3.1 -0.4,-1.61 -1,-3.16 -2.74,-3.86 -0.36,-0.14 -0.79,-0.28 -1,-0.57 -0.26,-0.35 -0.38,-0.84 -0.43,-1.28 -0.03,-0.25 0.16,-0.56 0.33,-0.79 1.31,-1.73 0.54,-3.3 -0.35,-4.86 -0.32,-0.56 -1.02,-0.59 -1.48,-0.1 -0.2,0.21 -0.37,0.45 -0.53,0.69 -2.48,3.53 -5.61,6.43 -8.89,9.18 -2.68,2.24 -5.26,4.62 -8.08,6.66 -3.53,2.54 -6.91,5.41 -11.13,6.8 -3.21,1.06 -6.41,2.22 -9.86,2.39 -2.72,0.13 -5.42,0.29 -8.15,0.02 -5.32,-0.53 -9.92,-2.56 -13.65,-6.41 -4.29,-4.43 -6.86,-9.83 -8.77,-15.6 -0.09,-0.27 -0.17,-0.57 -0.15,-0.86 0.1,-1.51 -0.42,-2.6 -1.87,-3.26 -0.66,-0.3 -0.8,-1.07 -0.77,-1.78 0.05,-1.28 -0.2,-2.48 -0.58,-3.71 -0.24,-0.79 -0.25,-1.76 -0.03,-2.56 0.36,-1.36 0.52,-2.66 0,-3.99 -0.35,-0.88 0.03,-1.97 -0.81,-2.7 -1.35,0.37 -0.81,1.79 -1.42,2.58 -0.11,0.14 -0.17,0.37 -0.15,0.55 0.32,3.79 -1.65,7.12 -2.19,10.75 -0.1,0.65 -0.42,1.28 -0.73,1.88 -0.28,0.54 -1.21,0.47 -1.42,-0.1 -0.22,-0.63 -0.53,-1.33 -0.43,-1.95 0.42,-2.58 -0.42,-5.03 -0.81,-7.49 -0.42,-2.6 -0.58,-5.2 -0.75,-7.81 -0.08,-1.25 -0.3,-2.49 -0.51,-3.73 -0.91,-5.43 -0.62,-10.68 2.6,-15.37 1.08,-1.58 2.53,-2.92 3.91,-4.27 2.15,-2.09 4.3,-4.19 6.61,-6.11 2.91,-2.42 5.82,-4.87 8.98,-6.92 4.81,-3.11 9.93,-5.65 15.37,-7.56 3.97,-1.4 8.04,-2.11 12.14,-2.92 4.16,-0.83 8.17,-0.19 12.12,0.56 3.62,0.69 6.88,2.63 9.74,5.04 2.79,2.36 4.97,5.28 6.32,8.63 1.3,3.22 2.04,6.58 1.27,10.22 -0.74,3.52 -1.94,6.71 -4.27,9.43 -2.05,2.4 -4.56,4.24 -7.54,5.28 -2.53,0.88 -4.14,0.09 -5.08,-2.39 -0.37,-0.97 -0.45,-2.07 -0.6,-3.12 -0.27,-1.92 -0.46,-3.85 -0.76,-5.76 -0.1,-0.65 -0.38,-1.3 -0.7,-1.88 -0.22,-0.38 -0.68,-0.9 -1.01,-0.88 -0.83,0.04 -0.65,0.85 -0.61,1.36 0.21,3.06 -0.79,5.92 -1.38,8.85 -0.1,0.47 -0.24,0.94 -0.27,1.42 -0.1,1.47 0.45,2.44 1.78,3.02 0.61,0.27 1.3,0.46 1.96,0.49 2.48,0.1 4.71,0.98 6.95,1.93 0.98,0.41 2.01,0.71 3.01,1.05 2.02,0.69 4.03,1.37 6.05,2.05 0.64,0.22 1.28,0.47 1.94,0.61 0.92,0.19 1.43,-0.27 1.52,-1.26 0,-0.1 0.02,-0.19 0.01,-0.29 -0.29,-3.81 0.58,-7.54 0.86,-11.31 0.12,-1.71 0.61,-3.46 1.23,-5.07 1.23,-3.17 2.73,-6.25 4.95,-8.86 3.61,-4.24 7.68,-7.97 12.51,-10.8 4.09,-2.4 8.53,-3.07 13.19,-2.53 2.02,0.93 4.18,1.66 6.04,2.85 4.01,2.56 7.8,5.43 11.15,8.86 2.4,2.45 4.37,5.16 6.11,8.1 1.99,3.36 3.57,6.88 4.93,10.51 0.64,1.72 1.05,3.52 1.61,5.28 0.08,0.24 0.42,0.62 0.54,0.59 0.31,-0.1 0.75,-0.34 0.81,-0.6 0.24,-1.13 0.43,-2.28 0.5,-3.42 0.26,-4.09 0.91,-8.09 2.35,-11.94 1.97,-5.27 5.48,-9.05 10.61,-11.41 1.47,-0.68 2.99,-0.83 4.52,-0.92 1.44,-0.08 2.09,0.8 1.75,2.26 -0.72,3.11 -1.48,6.22 -2.29,9.3 -0.76,2.87 -0.74,5.76 -0.48,8.68 0.57,6.55 2.49,12.73 5.07,18.74 0.76,1.78 1.74,3.48 2.42,5.29 0.89,2.38 2.73,3.11 4.99,3.31 0.68,0.06 1.36,0.01 2.04,0.09 1.37,0.16 2.11,0.81 2.38,2.16 0.14,0.66 0.06,1.37 0.21,2.02 0.22,0.93 0.41,1.93 0.9,2.73 1,1.64 3.19,1.84 4.25,-0.01 1.18,-2.06 1.85,-4.28 2.44,-6.52 1.14,-4.38 0.99,-8.87 0.75,-13.33 -0.09,-1.6 -0.84,-3.17 -1.27,-4.75 -0.2,-0.74 -0.61,-1.53 -0.49,-2.23 0.33,-2.01 -0.62,-3.81 -0.76,-5.74 -0.03,-0.37 -0.5,-0.92 -0.84,-0.99 -0.35,-0.07 -0.95,0.26 -1.17,0.59 -0.99,1.43 -1.92,2.89 -2.26,4.68 -0.16,0.83 -0.6,1.62 -1.03,2.36 -0.13,0.23 -0.68,0.3 -1.03,0.27 -0.21,-0.02 -0.51,-0.34 -0.57,-0.57 -0.12,-0.46 -0.16,-0.95 -0.15,-1.43 0.07,-2.33 0.16,-4.66 0.25,-6.98 -0.06,0 -0.13,0 -0.19,0 z m -78.33,-3.36 c 0.07,4.39 0.78,8.68 1.97,12.9 1.47,5.24 3.23,10.36 5.72,15.2 1.15,2.24 2.58,4.34 3.68,6.6 1.12,2.29 2.62,4.05 5.04,4.98 0.45,0.17 0.85,0.47 1.28,0.69 0.68,0.36 1.35,0.95 2.05,0.99 1.02,0.05 0.75,-1.18 1.22,-1.74 0.12,-0.15 0.24,-0.3 0.37,-0.45 0.51,-0.57 1.27,-0.66 1.82,-0.23 0.57,0.44 0.82,1.39 0.27,1.79 -1.57,1.12 -1.21,2.04 -0.07,3.22 0.39,0.4 0.28,1.28 0.41,1.94 0.16,0.8 0.79,1.07 1.49,1.17 0.67,0.1 1.42,-0.38 1.62,-0.99 0.12,-0.36 0.17,-0.75 0.19,-1.14 0.35,-4.79 -0.31,-9.5 -1.29,-14.15 -0.72,-3.4 -1.87,-6.72 -2.91,-10.04 -1.16,-3.71 -2.66,-7.25 -4.73,-10.58 -2.83,-4.56 -6.11,-8.73 -10.06,-12.35 -1.71,-1.57 -3.59,-2.98 -5.77,-3.89 -1.07,-0.45 -1.94,0.02 -2.17,1.14 -0.1,0.47 -0.11,0.96 -0.12,1.45 -0.02,1.17 0,2.33 0,3.5 z m -43.61,35.02 c 0,0 0.04,0 0.06,0 0,1.45 0.04,2.91 -0.01,4.36 -0.04,1.22 -0.62,1.98 -1.54,2.2 -1.29,0.32 -2.27,-0.16 -2.88,-1.32 -0.47,-0.9 -0.64,-1.82 -0.48,-2.81 0.09,-0.57 0.25,-1.14 0.34,-1.71 0.42,-2.81 0.47,-5.59 -0.51,-8.33 -0.69,-1.92 -3.59,-4.02 -5.63,-3.97 -0.67,0.02 -1.07,0.4 -1.22,1.03 -0.06,0.28 -0.11,0.59 -0.05,0.86 0.67,3.03 1.02,6.09 1.08,9.19 0,0.46 0.38,0.9 0.45,1.37 0.2,1.34 0.44,2.68 0.45,4.03 0.01,1.32 -0.81,1.87 -2.12,1.75 -0.95,-0.09 -1.64,-0.52 -2.08,-1.37 -0.58,-1.14 -0.99,-2.28 -0.91,-3.61 0.11,-1.84 0.09,-3.69 0.07,-5.53 -0.03,-2.75 -0.78,-5.35 -1.86,-7.86 -0.66,-1.54 -1.79,-2.44 -3.54,-2.62 -1.24,-0.13 -2.47,-0.46 -3.68,-0.8 -3.07,-0.87 -6.12,-1.79 -9.18,-2.7 -0.84,-0.25 -1.66,-0.53 -2.51,-0.73 -0.92,-0.22 -1.87,0.32 -1.98,1.24 -0.12,1.04 -0.09,2.13 0.04,3.17 0.13,1 0.98,1.49 1.93,1.19 0.64,-0.2 1.23,-0.59 1.87,-0.78 2.15,-0.63 3.07,-0.03 3.27,2.19 0.22,2.46 0.79,4.77 2.38,6.73 1.28,1.58 2.64,3.1 3.86,4.72 2.49,3.29 5.57,5.93 9.03,8.11 3.57,2.25 7.41,3.57 11.72,3.8 6.1,0.32 13.1,-4.38 15.51,-10.37 0.18,-0.44 0.32,-0.92 0.38,-1.39 0.1,-0.89 -0.44,-1.52 -1.3,-1.58 -0.29,-0.02 -0.58,0.02 -0.87,0.04 -2.11,0.19 -2.45,-0.64 -2.43,-2.3 0,-0.29 0.05,-0.58 0.04,-0.87 -0.07,-2.24 -2.18,-3.37 -4.05,-2.12 -0.66,0.44 -1.27,0.78 -2.08,0.9 -1.47,0.21 -1.82,0.65 -1.81,2.06 0.02,1.26 0.14,2.52 0.22,3.77 z m -14.08,-43.1 c 0.22,-2.46 0.35,-4.48 -0.22,-6.49 -0.48,-1.71 -0.87,-2.06 -2.6,-2.13 -2.97,-0.12 -5.75,0.72 -8.47,1.74 -3.38,1.26 -6.42,3.14 -9.23,5.42 -1.03,0.83 -1.71,1.79 -2.28,2.93 -0.5,1 -0.36,1.85 0.3,2.7 0.98,1.27 2.3,2.06 3.74,2.68 5.09,2.18 10.43,3.58 15.74,5.06 0.63,0.17 1.35,0.09 2.01,0 0.74,-0.09 1.25,-0.56 1.35,-1.32 0.22,-1.83 0.47,-3.64 0.15,-5.5 -0.31,-1.81 -0.36,-3.66 -0.48,-5.08 z m 9.33,11.25 c 0,0.58 0.05,1.16 0,1.73 -0.19,1.77 0.86,2.65 2.29,3.26 1.22,0.53 2.45,-0.01 2.68,-1.31 0.16,-0.93 0.07,-1.91 0,-2.87 -0.04,-0.63 -0.37,-1.07 -1.12,-1.03 -0.86,0.04 -1.19,-0.49 -1.24,-1.27 -0.02,-0.38 -0.06,-0.78 0.01,-1.16 0.43,-2.16 0.8,-4.34 1.36,-6.47 0.43,-1.63 0.27,-3.06 -0.84,-4.33 -0.15,-0.18 -0.53,-0.34 -0.71,-0.27 -0.19,0.08 -0.36,0.43 -0.39,0.67 -0.09,0.96 -0.03,1.94 -0.17,2.89 -0.28,1.81 -0.4,3.7 -1.06,5.36 -0.63,1.59 -0.8,3.14 -0.81,4.77 z m -2.05,-2.08 c 0,0 0.03,0 0.05,0 0,-1.16 0.02,-2.32 -0.01,-3.49 -0.02,-0.55 0.05,-1.32 -0.74,-1.34 -0.71,-0.02 -0.85,0.7 -0.95,1.26 -0.18,1.04 -0.31,2.1 -0.4,3.15 -0.05,0.58 0.07,1.16 0.01,1.74 -0.05,0.5 -0.3,0.94 -0.9,0.94 -0.59,0 -0.84,-0.44 -0.93,-0.93 -0.1,-0.57 -0.09,-1.16 -0.18,-1.73 -0.02,-0.14 -0.21,-0.26 -0.34,-0.36 -0.03,-0.02 -0.2,0.07 -0.23,0.14 -0.31,0.81 -0.66,1.61 -0.87,2.45 -0.31,1.21 0.5,2.4 1.78,2.8 0.55,0.17 1.09,0.41 1.64,0.56 1.39,0.39 2.31,-0.29 2.28,-1.72 -0.03,-1.16 -0.14,-2.32 -0.21,-3.48 z m -36.21,21.38 c 0,0 0,0 0.01,0 0,1.44 -0.03,2.88 0.01,4.31 0.02,0.6 0.87,0.92 1.32,0.52 0.35,-0.31 0.68,-0.68 0.93,-1.07 1.18,-1.9 1.05,-3.88 0.06,-5.77 -0.51,-0.98 -0.58,-2.29 -1.78,-2.83 -0.49,-0.22 -0.61,0.32 -0.56,3.11 0,0.58 0,1.15 0,1.73 z m 31.62,-31.97 c -0.04,0.76 -0.09,1.14 -0.08,1.53 0.02,0.96 0.05,1.92 0.11,2.88 0,0.15 0.2,0.29 0.3,0.44 0.19,-0.16 0.45,-0.28 0.54,-0.48 0.11,-0.25 0.01,-0.59 0.11,-0.85 0.83,-2.3 0.3,-4.55 -0.2,-6.81 -0.04,-0.2 -0.38,-0.33 -0.58,-0.49 -0.13,0.23 -0.38,0.47 -0.38,0.69 0.03,1.15 0.13,2.3 0.19,3.08 z m -39.18,25.23 c 0,0 0.08,0 0.12,-0.01 -0.08,-0.93 -0.15,-1.86 -0.26,-2.79 -0.01,-0.1 -0.28,-0.24 -0.43,-0.24 -0.15,0 -0.42,0.12 -0.44,0.24 -0.08,0.36 -0.14,0.74 -0.1,1.1 0.12,1.03 0.27,2.06 0.46,3.08 0.06,0.3 0.29,0.58 0.44,0.86 0.07,-0.27 0.18,-0.54 0.2,-0.81 0.03,-0.47 0,-0.95 0,-1.43 z m 50.82,-15.71 c -0.12,0.11 -0.24,0.22 -0.36,0.33 l 0.34,0.35 c 0.11,-0.12 0.3,-0.23 0.29,-0.35 0,-0.12 -0.19,-0.24 -0.28,-0.34 z"
         id="path7"
         style="fill:#ffffff;fill-opacity:1" />
      <path
         d="m 502.17,658.48 c 0,2.53 0,5.05 0,7.58 0,2.07 0.61,4.03 1.24,5.96 0.64,1.96 1.65,3.72 3.28,5.08 0.45,0.37 0.87,0.78 1.27,1.2 1.27,1.38 1.61,3.05 0.09,5.01 -2.04,2.63 -4.99,3.97 -8.01,5.08 -1.42,0.52 -2.66,-0.33 -3.79,-1.05 -0.89,-0.57 -1.72,-1.29 -2.43,-2.07 -2.48,-2.73 -5.04,-5.36 -7.95,-7.66 -4.42,-3.49 -8.71,-7.12 -13.07,-10.69 -0.3,-0.24 -0.62,-0.49 -0.97,-0.63 -1.83,-0.73 -2.54,-0.07 -2.51,1.49 0.02,1.07 0.02,2.14 -0.03,3.21 -0.03,0.67 0,1.43 -0.3,1.99 -0.96,1.84 -0.84,3.75 -0.65,5.69 0.05,0.47 -0.02,0.96 -0.1,1.43 -0.02,0.11 -0.29,0.25 -0.44,0.24 -0.16,0 -0.43,-0.15 -0.45,-0.27 -0.1,-0.56 -0.21,-1.14 -0.18,-1.71 0.08,-1.66 0.08,-3.27 -0.88,-4.77 -0.33,-0.52 -0.35,-1.3 -0.35,-1.96 0,-1.75 0.13,-3.49 0.16,-5.24 0,-0.57 -0.1,-1.14 -0.21,-1.7 -0.02,-0.1 -0.31,-0.23 -0.46,-0.21 -0.16,0.02 -0.4,0.17 -0.42,0.3 -0.09,0.57 -0.18,1.16 -0.16,1.73 0.05,1.42 -0.24,2.78 -1.16,3.81 -0.62,0.69 -0.34,1.97 -1.53,2.21 -0.14,-0.85 -0.27,-1.71 -0.44,-2.55 -0.05,-0.28 -0.2,-0.54 -0.33,-0.79 -0.04,-0.07 -0.16,-0.15 -0.24,-0.14 -0.17,0.02 -0.46,0.06 -0.49,0.14 -0.19,0.74 -0.37,1.49 -0.46,2.25 -0.11,0.84 -0.27,1.54 -1.36,1.48 -0.85,-0.05 -1.23,0.59 -1.41,1.24 -0.4,1.39 -0.67,2.81 -1.02,4.21 -0.03,0.11 -0.31,0.26 -0.44,0.23 -0.14,-0.03 -0.32,-0.23 -0.34,-0.38 -0.04,-0.38 -0.06,-0.78 0.01,-1.15 0.11,-0.57 0.27,-1.14 0.47,-1.68 0.83,-2.26 0.88,-4.57 0.42,-6.9 -0.32,-1.64 -0.39,-3.26 -0.22,-4.92 0.09,-0.83 -0.14,-1.71 -0.35,-2.54 -0.14,-0.55 -0.99,-0.77 -1.47,-0.43 -0.47,0.33 -0.94,0.71 -1.29,1.15 -3.56,4.54 -6.66,9.33 -7.61,15.18 -0.24,1.5 -0.97,2.72 -2.06,3.76 -1.64,1.56 -3.58,2.68 -5.62,3.57 -0.76,0.33 -1.7,0.36 -2.56,0.37 -0.82,0.01 -1.47,-0.41 -1.86,-1.19 -0.94,-1.92 -1.98,-3.79 -2.82,-5.75 -1.78,-4.1 -3.61,-8.16 -6.05,-11.93 -2.54,-3.92 -5.45,-7.55 -8.44,-11.13 -0.31,-0.37 -0.61,-0.78 -0.99,-1.06 -0.45,-0.33 -1.02,-0.79 -1.48,-0.74 -0.64,0.07 -0.64,0.84 -0.73,1.42 -0.1,0.66 -0.26,1.31 -0.45,1.95 -0.04,0.14 -0.33,0.31 -0.46,0.29 -0.26,-0.05 -0.66,-0.22 -0.69,-0.38 -0.1,-0.66 -0.11,-1.34 -0.08,-2 0.06,-1.06 0.26,-2.12 0.24,-3.18 0,-0.54 -0.28,-1.13 -0.59,-1.59 -0.16,-0.24 -0.67,-0.33 -1.01,-0.32 -0.21,0 -0.52,0.3 -0.59,0.53 -0.14,0.45 -0.21,0.95 -0.21,1.42 0,1.17 0.13,2.33 0.07,3.5 -0.05,0.95 -0.15,1.94 -0.48,2.82 -0.5,1.36 -0.42,2.58 0.02,3.95 1.9,5.84 2.11,11.85 1.29,17.86 -0.41,2.98 -1.91,5.66 -3.5,8.24 -1.65,2.69 -3.82,4.89 -6.13,6.98 -1.02,0.93 -1.43,1.94 -1.37,3.32 0.1,2.13 0.02,4.27 0,6.41 -0.01,1.09 -0.2,2.17 -1.05,2.93 -0.31,0.28 -0.91,0.51 -1.29,0.41 -0.37,-0.1 -0.81,-0.6 -0.89,-0.99 -0.13,-0.64 -0.03,-1.33 0.03,-2 0.12,-1.45 0.34,-2.89 0.41,-4.34 0.05,-1.11 -0.53,-1.95 -1.24,-2.07 -0.84,-0.15 -1.79,0.62 -2.05,1.69 -0.07,0.28 -0.11,0.58 -0.09,0.87 0.06,1.64 -0.52,2.81 -2.2,3.33 -1.09,0.34 -1.38,1.21 -1.33,2.31 0.08,1.65 0.14,3.3 0.07,4.95 -0.06,1.44 -1.69,2.16 -2.76,1.23 -0.38,-0.33 -0.7,-1 -0.68,-1.49 0.06,-1.45 0.32,-2.88 0.46,-4.33 0.09,-0.96 0.25,-1.94 0.11,-2.88 -0.28,-1.9 -1.58,-3.07 -3.49,-3.42 -1.04,-0.19 -2.05,0.62 -1.83,1.65 0.27,1.27 0.14,2.49 0.07,3.75 -0.04,0.85 0.32,1.7 0.39,2.56 0.09,1.05 0.2,2.12 0.08,3.16 -0.11,0.94 -1.26,1.29 -2.07,0.78 -0.89,-0.57 -1.35,-1.42 -1.37,-2.44 -0.02,-1.06 0,-2.15 0.19,-3.19 0.44,-2.48 -0.3,-4.83 -0.83,-7.17 -0.18,-0.79 -0.77,-1.67 -1.44,-2.12 -2.82,-1.9 -4.75,-4.57 -6.59,-7.3 -0.96,-1.42 -1.93,-2.39 -3.78,-1.95 -0.35,0.08 -0.76,-0.07 -1.13,-0.17 -0.47,-0.12 -0.73,-0.83 -0.41,-1.17 0.33,-0.35 0.77,-0.6 1.08,-0.97 0.91,-1.07 0.91,-2.35 0.02,-3.44 -0.3,-0.37 -0.65,-0.73 -1.04,-1.02 -1.07,-0.78 -1.24,-1.67 -1.03,-3.03 0.22,-1.37 -0.06,-2.91 -0.47,-4.27 -1.92,-6.39 -2.78,-12.88 -2.12,-19.54 0.47,-4.74 2.05,-8.98 4.92,-12.86 2.61,-3.53 5.96,-6.1 9.6,-8.36 1.9,-1.17 4.01,-1.95 6.27,-2.21 3.17,-0.37 5.95,0.71 8.47,2.44 2.32,1.59 4.51,3.37 6.76,5.06 0.54,0.41 1.07,0.84 1.63,1.21 0.6,0.38 1.17,0.1 1.19,-0.65 0.04,-1.4 0.4,-2.61 1.26,-3.78 2.11,-2.83 5.07,-4.18 8.35,-4.84 0.91,-0.19 2.13,0.33 2.98,0.87 1.72,1.08 3.43,2.26 4.89,3.66 3.78,3.64 7.57,7.28 11.07,11.18 3.82,4.26 7.3,8.8 10.08,13.84 0.75,1.36 1.59,2.67 2.47,3.94 0.57,0.82 1.18,0.86 1.97,0.22 0.83,-0.67 1.59,-1.41 2.38,-2.13 3.09,-2.8 5.99,-5.84 9.32,-8.32 3.18,-2.37 6.87,-3.92 10.93,-4.41 3.5,-0.42 6.49,0.99 9.39,2.54 3.43,1.83 6.64,4.01 9.64,6.5 0.97,0.8 2.03,1.5 3.08,2.2 0.83,0.55 1.74,0.27 2.1,-0.71 0.23,-0.62 0.31,-1.31 0.39,-1.98 0.2,-1.83 0.33,-3.68 0.55,-5.51 0.73,-5.94 2.45,-11.64 5.41,-16.81 2.42,-4.21 5.62,-7.94 9.87,-10.54 1.66,-1.01 3.44,-1.82 5.42,-2 0.48,-0.04 0.98,-0.06 1.44,0.05 1.11,0.28 1.69,1.67 0.99,2.55 -0.72,0.9 -1.58,1.71 -2.49,2.42 -0.83,0.66 -1.85,1.07 -2.7,1.71 -0.6,0.45 -1.14,1.04 -1.53,1.68 -0.21,0.34 -0.19,1.01 0.01,1.35 0.35,0.57 0.82,0.1 1.21,-0.15 1.47,-0.93 2.9,-1.96 4.44,-2.76 1.87,-0.97 3.91,-0.44 5.21,1.16 0.3,0.38 0.54,0.81 0.83,1.2 3.71,5.11 7.85,9.86 12.07,14.55 2.53,2.81 4.94,5.72 7.41,8.59 0.44,0.51 0.86,1.13 1.67,0.86 0.64,-0.21 1.06,-1.08 0.78,-1.98 -0.57,-1.81 -0.42,-3.65 -0.49,-5.49 -0.1,-2.72 -0.16,-5.44 -0.36,-8.15 -0.28,-3.85 1.64,-6.42 4.67,-8.4 1.75,-1.15 3.83,-1.32 5.78,-1.88 1.02,-0.29 2.11,0.57 2.34,1.71 0.17,0.85 0.23,1.74 0.15,2.6 -0.58,6.63 0.04,13.19 1.1,19.73 0.48,2.97 0.98,5.94 1.39,8.91 1.15,8.45 3.9,16.4 7.63,24.02 0.93,1.91 2.23,3.64 3.36,5.45 0.67,1.07 1.39,2.11 2.01,3.21 0.95,1.69 0.75,3.08 -0.46,4.54 -1.76,2.12 -4.3,2.9 -6.66,4.01 -2.24,1.07 -4.17,0.43 -5.86,-1.13 -1.21,-1.12 -2.43,-2.27 -3.41,-3.59 -3.41,-4.59 -6.72,-9.26 -10.05,-13.91 -2.54,-3.55 -5.03,-7.14 -7.58,-10.69 -1.98,-2.75 -4.03,-5.46 -6.06,-8.18 -0.35,-0.46 -0.75,-0.89 -1.16,-1.29 -0.34,-0.33 -1.06,-0.12 -1.19,0.36 -0.12,0.46 -0.21,0.95 -0.18,1.41 0.09,1.55 0.23,3.09 0.38,4.63 0.1,1.06 0.27,2.12 0.37,3.18 0.15,1.64 0.55,3.33 0.31,4.92 -0.5,3.38 -0.62,6.77 -0.63,10.17 0,2.28 -0.93,4.34 -1.27,6.54 -0.05,0.35 -0.31,0.77 -0.6,0.96 -0.24,0.16 -0.85,0.17 -0.98,0 -0.73,-0.92 -1.17,-1.86 -0.94,-3.19 0.34,-2 0.37,-4.05 0.47,-6.08 0.01,-0.29 -0.36,-0.59 -0.56,-0.89 -0.25,0.24 -0.64,0.43 -0.71,0.71 -0.31,1.22 -0.44,2.48 -0.8,3.68 -0.28,0.91 -0.77,1.77 -1.24,2.61 -0.1,0.19 -0.51,0.35 -0.73,0.3 -0.22,-0.05 -0.52,-0.35 -0.54,-0.57 -0.07,-0.57 0.06,-1.16 0,-1.73 -0.04,-0.32 -0.26,-0.77 -0.53,-0.89 -0.41,-0.19 -0.69,0.17 -0.81,0.58 -0.21,0.75 -0.41,1.5 -0.63,2.24 -0.28,0.95 -0.29,0.99 -1.47,0.74 -0.61,-0.13 -1.01,0.1 -1.15,0.58 -0.39,1.29 -0.7,2.61 -1.03,3.93 -0.11,0.46 -0.15,0.95 -0.28,1.41 -0.04,0.15 -0.33,0.37 -0.41,0.33 -0.25,-0.11 -0.53,-0.28 -0.64,-0.5 -0.12,-0.24 -0.12,-0.57 -0.06,-0.84 0.08,-0.37 0.27,-0.73 0.4,-1.09 1.05,-2.86 1.53,-5.76 1.31,-8.84 -0.22,-2.99 -0.06,-6.02 -0.05,-9.03 0,-0.99 -0.08,-1.92 -0.82,-2.71 -0.76,-0.81 -0.82,-1.82 -0.17,-2.68 1.33,-1.75 1.09,-3.68 0.72,-5.59 -1.58,-8.11 -4.18,-15.92 -7.05,-23.65 -0.24,-0.63 -0.53,-1.25 -0.87,-1.83 -0.12,-0.21 -0.46,-0.4 -0.7,-0.39 -0.21,0 -0.54,0.28 -0.58,0.49 -0.38,2.1 -0.87,4.19 -1.02,6.31 -0.18,2.42 -0.04,4.85 -0.04,7.28 z m -107.05,22.15 c -0.21,-4.54 -1.3,-9.44 -3,-14.21 -1.2,-3.36 -2.34,-6.73 -4.3,-9.79 -2.54,-3.96 -5.49,-7.49 -9.26,-10.31 -0.46,-0.35 -0.95,-0.69 -1.48,-0.91 -2.12,-0.89 -2.64,0.12 -2.65,1.66 -0.01,3.01 0.35,5.96 0.9,8.94 0.85,4.63 2.45,8.94 4.28,13.22 0.92,2.15 2.25,4.06 3.25,6.15 1.14,2.39 2.77,4.14 5.19,5.21 1.16,0.51 1.16,0.55 2.21,-0.47 0.21,-0.2 0.37,-0.48 0.61,-0.6 0.23,-0.11 0.58,-0.17 0.8,-0.07 0.22,0.1 0.46,0.4 0.48,0.63 0.04,0.37 -0.11,0.75 -0.17,1.13 -0.17,1.18 0,2.32 0.51,3.4 0.43,0.92 1.53,1.03 2.11,0.19 0.26,-0.38 0.45,-0.86 0.5,-1.32 0.08,-0.77 0.02,-1.55 0.02,-2.86 z m 12.07,-31.52 c -0.04,-0.15 -0.19,-0.87 -0.4,-1.58 -0.04,-0.12 -0.3,-0.25 -0.45,-0.24 -0.15,0 -0.42,0.15 -0.44,0.27 -0.17,1.02 -0.36,2.05 -0.41,3.08 -0.04,0.87 0.57,1.57 1.04,1.39 0.7,-0.27 0.48,-0.93 0.57,-1.44 0.05,-0.28 0.04,-0.57 0.09,-1.46 z m 51.2,13.27 c 0.01,0.27 0,0.56 0.05,0.84 0.02,0.12 0.17,0.22 0.26,0.33 0.04,-0.09 0.1,-0.17 0.11,-0.26 0.03,-0.28 0.06,-0.57 0.04,-0.85 -0.01,-0.17 -0.13,-0.34 -0.2,-0.5 -0.08,0.14 -0.17,0.28 -0.26,0.44 z"
         id="path10"
         style="fill:#ffffff;fill-opacity:1" />
      <path
         d="m 211.52,680.58 c -4.74,0.4 -9.48,0.75 -14.2,1.24 -1.72,0.18 -3.38,0.79 -5.15,0.83 -0.57,0.01 -1.21,0.57 -1.67,1.02 -0.47,0.47 -0.8,1.1 -1.11,1.7 -1.64,3.14 -3.83,5.83 -6.52,8.12 -0.37,0.31 -0.69,0.68 -1.06,1 -0.87,0.75 -1.22,1.67 -1.17,2.84 0.09,2.13 0.07,4.27 0.06,6.41 0,0.68 -0.02,1.37 -0.14,2.03 -0.2,1.12 -1.08,1.8 -2.03,1.67 -0.79,-0.11 -1.34,-0.95 -1.24,-2.02 0.05,-0.57 0.29,-1.12 0.39,-1.69 0.18,-1.05 0.35,-2.1 0.47,-3.16 0.04,-0.38 -0.02,-0.78 -0.1,-1.15 -0.19,-0.85 -0.92,-1.52 -1.58,-1.46 -0.75,0.07 -1.28,0.5 -1.49,1.2 -0.22,0.74 -0.4,1.51 -0.47,2.27 -0.12,1.18 -0.55,2.04 -1.83,2.28 -1.05,0.2 -1.38,0.95 -1.38,1.93 0.01,1.46 0.02,2.91 0,4.37 0,0.48 -0.04,0.98 -0.16,1.44 -0.2,0.71 -1.06,1.28 -1.78,1.27 -0.72,0 -1.49,-0.61 -1.6,-1.45 -0.09,-0.65 0.03,-1.33 0.07,-2 0.12,-1.83 0.39,-3.67 0.34,-5.5 -0.05,-2.1 -1.44,-3.38 -3.5,-3.6 -0.7,-0.08 -1.54,0.62 -1.51,1.45 0.12,2.51 -0.48,5.06 0.46,7.51 0.3,0.78 0.22,1.51 -0.14,2.25 -0.6,1.22 -2.05,1.43 -2.81,0.3 -0.41,-0.61 -0.66,-1.41 -0.71,-2.15 -0.08,-1.06 0.1,-2.13 0.16,-3.2 0.15,-2.44 0.04,-4.84 -0.81,-7.18 -0.31,-0.86 -0.77,-1.53 -1.44,-2.12 -2.55,-2.25 -5.11,-4.49 -6.86,-7.48 -0.69,-1.17 -1.61,-1.92 -3.11,-1.61 -0.36,0.07 -0.77,-0.04 -1.14,-0.13 -0.43,-0.1 -0.75,-0.81 -0.55,-1.18 0.13,-0.25 0.28,-0.53 0.49,-0.71 2,-1.64 1.25,-2.64 -0.13,-4.44 -0.29,-0.38 -0.73,-0.64 -1.11,-0.93 -0.52,-0.4 -0.74,-0.91 -0.48,-1.53 0.53,-1.26 0.24,-2.42 -0.14,-3.67 -2.13,-6.94 -2.77,-14.04 -2.27,-21.3 0.35,-5.06 2.34,-9.38 5.44,-13.24 2.39,-2.97 5.28,-5.41 8.49,-7.47 1.74,-1.12 3.68,-1.81 5.66,-2.21 2.61,-0.52 5.19,-0.25 7.61,1.13 4.68,2.68 8.87,5.98 12.34,10.09 2.13,2.52 3.69,5.45 4.99,8.51 2.42,5.75 3.84,11.78 5,17.89 0.13,0.66 0.09,1.35 0.17,2.03 0.11,0.94 0.64,1.37 1.58,1.25 0.47,-0.06 0.95,-0.19 1.39,-0.36 3.62,-1.4 7.23,-2.81 10.84,-4.23 2.08,-0.82 4.16,-1.63 6.2,-2.53 1.69,-0.75 1.84,-1.45 0.79,-2.87 -0.29,-0.39 -0.67,-0.72 -0.89,-1.15 -0.42,-0.83 -0.38,-1.69 0.15,-2.49 1.15,-1.75 4.05,-2.96 6.14,-2.44 1.22,0.3 2.39,0.78 3.57,1.21 0.82,0.3 1.61,0.71 2.44,0.95 1.62,0.47 3.25,0.5 4.84,-0.2 3.11,-1.38 6.23,-2.7 9.33,-4.11 3.18,-1.44 6.33,-2.93 9.47,-4.45 0.95,-0.46 1.83,-1.08 2.67,-1.72 0.23,-0.17 0.34,-0.74 0.23,-1.03 -0.1,-0.28 -0.57,-0.61 -0.86,-0.59 -1.55,0.07 -3.1,0.25 -4.64,0.39 -1.83,0.16 -3.67,0.3 -5.5,0.46 -2.8,0.25 -5.6,0.55 -8.41,0.77 -1.06,0.08 -2.14,0.1 -3.19,0.01 -2.12,-0.19 -4.24,-0.45 -6.36,-0.71 -1.73,-0.21 -3.46,-0.47 -5.19,-0.7 -0.58,-0.08 -1.17,-0.25 -1.73,-0.18 -0.53,0.06 -1.17,0.25 -1.5,0.62 -0.44,0.49 -0.12,1.15 0.3,1.56 1,0.95 1.39,2.08 1.18,3.42 -0.06,0.38 -0.12,0.78 -0.29,1.12 -1.12,2.27 -4.46,3.7 -6.94,2.84 -1.12,-0.39 -1.97,-0.42 -2.98,0.27 -0.92,0.62 -1.62,0.35 -2.09,-0.66 -0.32,-0.69 -0.51,-1.46 -0.66,-2.21 -0.13,-0.66 -0.08,-1.36 -0.2,-2.02 -0.04,-0.21 -0.33,-0.42 -0.56,-0.53 -0.09,-0.04 -0.4,0.14 -0.46,0.28 -0.57,1.32 -1.32,2.59 -1.2,4.13 0.05,0.67 0,1.36 -0.09,2.03 -0.03,0.23 -0.3,0.44 -0.47,0.66 -0.19,-0.18 -0.52,-0.35 -0.54,-0.55 -0.13,-1.16 -0.18,-2.32 -0.26,-3.48 -0.05,-0.77 -0.08,-1.55 -0.2,-2.31 -0.03,-0.19 -0.41,-0.46 -0.62,-0.46 -0.22,0 -0.59,0.27 -0.63,0.47 -0.12,0.66 -0.1,1.34 -0.15,2.01 -0.04,0.47 -0.06,0.96 -0.21,1.4 -0.06,0.16 -0.61,0.36 -0.67,0.3 -1.03,-1.21 -2.65,-1.99 -2.79,-3.85 -0.1,-1.35 -0.27,-2.7 -0.34,-4.05 -0.11,-2.03 -0.18,-4.07 -0.22,-6.1 -0.02,-1.11 -0.28,-2.12 -0.97,-2.98 -0.98,-1.22 -0.91,-2.49 -0.3,-3.83 1.19,-2.61 3.28,-4.34 5.79,-5.48 1.41,-0.65 3.03,-0.69 4.51,0.13 0.6,0.33 1.24,0.59 1.79,0.97 5.68,3.93 12.15,5.98 18.71,7.77 0.66,0.18 1.32,0.35 1.99,0.43 4.05,0.45 8.09,1.02 12.15,1.23 2.5,0.13 5.02,-0.32 7.53,-0.52 0.38,-0.03 0.76,-0.19 1.14,-0.21 5.04,-0.29 10.08,-0.59 15.13,-0.84 1.06,-0.05 2.15,0 3.19,0.16 1.68,0.28 2.36,1.3 1.85,2.95 -0.34,1.09 -0.85,2.24 -1.6,3.05 -1.58,1.7 -3.32,3.26 -5.1,4.75 -1.03,0.86 -2.28,1.48 -3.43,2.2 -2.46,1.55 -4.92,3.09 -7.38,4.64 -0.25,0.15 -0.5,0.31 -0.72,0.5 -0.7,0.59 -0.98,1.32 -0.49,2.06 1.72,2.6 2.22,5.77 4.1,8.32 2.44,3.29 5.1,6.35 8.03,9.2 0.55,0.54 1.11,1.07 1.71,1.56 1.07,0.87 2.21,1.6 3.68,1.46 0.19,-0.02 0.39,0 0.58,0 1.75,-0.03 3.05,0.67 3.57,2.39 0.37,1.24 1.19,1.95 2.29,2.47 0.7,0.33 1.46,0.61 2.05,1.08 1.31,1.04 2.49,1.35 3.84,0.03 0.52,-0.51 1.14,-0.18 1.26,0.52 0.15,0.85 0.29,1.7 0.47,2.55 0.32,1.5 1.25,2.36 2.79,2.55 0.29,0.03 0.59,0.01 0.87,0.08 0.93,0.22 1.39,0.84 1.23,1.66 -0.18,0.93 -0.99,1.59 -1.89,1.4 -1.42,-0.3 -2.81,-0.72 -4.23,-1.06 -0.66,-0.16 -1.32,-0.3 -1.99,-0.38 -0.89,-0.11 -1.73,0.04 -2.46,0.64 -0.44,0.36 -0.94,0.88 -1.45,0.91 -1.74,0.11 -2.77,1.19 -3.83,2.37 -1.7,1.9 -2.74,1.91 -4.62,0.19 -0.36,-0.33 -0.69,-0.69 -1.07,-0.99 -0.57,-0.45 -0.98,-0.34 -1.45,0.25 -0.47,0.59 -0.93,1.21 -1.49,1.71 -0.41,0.36 -1.29,-0.01 -1.44,-0.54 -0.1,-0.37 -0.08,-0.77 -0.15,-1.15 -0.25,-1.38 -1.12,-2.01 -2.46,-1.68 -0.55,0.14 -1.04,0.55 -1.59,0.69 -0.54,0.13 -1.14,0.13 -1.7,0.09 -0.46,-0.04 -0.78,-0.69 -0.63,-1.13 0.06,-0.18 0.17,-0.34 0.25,-0.52 0.89,-1.91 0.86,-2.16 -1.09,-3.04 -1.85,-0.84 -3.76,-1.57 -5.68,-2.24 -3.57,-1.25 -7.15,-2.44 -10.75,-3.61 -0.73,-0.24 -1.53,-0.27 -2.29,-0.42 -3.51,-0.69 -6.99,-1.48 -10.57,-1.92 -2.91,-0.36 -5.79,-0.54 -8.71,-0.72 z m -35.07,0.03 c 0.11,-2.73 -0.32,-5.39 -0.93,-8.05 -0.94,-4.07 -2.07,-8.07 -3.83,-11.85 -2.32,-4.97 -5.47,-9.38 -9.68,-12.95 -1.17,-0.99 -2.51,-1.81 -3.84,-2.59 -0.83,-0.49 -1.55,-0.19 -1.85,0.71 -0.24,0.71 -0.39,1.5 -0.37,2.25 0.15,4.76 1.12,9.37 2.56,13.91 1.53,4.83 3.69,9.36 6.16,13.76 0.95,1.7 2.02,3.24 3.94,4.09 1.45,0.65 2.74,1.69 3.84,-0.4 0.07,-0.13 0.34,-0.15 0.52,-0.22 0.42,-0.15 1.05,0.36 0.98,0.8 -0.03,0.19 -0.07,0.39 -0.17,0.55 -1.04,1.66 0.16,2.94 0.81,4.27 0.14,0.28 0.84,0.44 1.25,0.39 0.24,-0.03 0.58,-0.57 0.6,-0.89 0.07,-1.25 0.03,-2.52 0.03,-3.77 z m 48.36,-9.47 c 0,0 0,0.04 0,0.06 2.53,0 5.05,0 7.58,0 0.48,0 1.02,0.06 1.43,-0.13 0.38,-0.17 0.73,-0.59 0.91,-0.99 0.15,-0.32 0.1,-0.77 0.02,-1.14 -0.56,-2.5 -0.18,-4.82 1.31,-6.94 0.05,-0.07 0.08,-0.18 0.09,-0.27 0.01,-0.09 0.02,-0.24 -0.03,-0.27 -0.15,-0.1 -0.37,-0.25 -0.49,-0.2 -0.7,0.29 -1.45,0.54 -2.05,0.99 -0.85,0.64 -1.58,1.42 -2.34,2.17 -1.75,1.72 -3.81,2.56 -6.29,2.51 -1.24,-0.02 -2.54,0.11 -3.73,0.44 -1.58,0.44 -3.1,1.12 -4.63,1.73 -0.92,0.37 -1.39,1 -1.16,1.43 0.33,0.63 0.96,0.59 1.51,0.59 2.62,0.02 5.24,0.01 7.87,0.01 z m -29.16,-25.78 c -0.05,-0.46 -0.09,-0.93 -0.15,-1.39 -0.01,-0.08 -0.13,-0.23 -0.15,-0.22 -0.14,0.06 -0.38,0.14 -0.39,0.22 -0.03,0.94 -0.04,1.88 -0.03,2.81 0,0.14 0.13,0.27 0.2,0.41 0.1,-0.14 0.26,-0.27 0.29,-0.43 0.1,-0.46 0.14,-0.93 0.21,-1.4 z"
         id="path11"
         style="fill:#ffffff;fill-opacity:1" />
      <path
         d="m 704.09,650.7 c 0,-2.72 0,-5.44 0,-8.16 0,-0.29 0.04,-0.58 0.04,-0.87 -0.03,-1.47 -0.41,-2.01 -1.45,-2.1 -1.35,-0.11 -2.39,0.57 -2.63,1.76 -0.09,0.47 -0.07,0.97 -0.07,1.45 -0.03,3.89 -0.14,7.77 -0.06,11.66 0.05,2.17 -0.24,4.29 -0.79,6.33 -0.46,1.75 -0.73,3.4 -0.22,5.14 0.05,0.17 0.05,0.42 -0.04,0.57 -0.14,0.22 -0.37,0.39 -0.56,0.58 -0.19,-0.2 -0.57,-0.43 -0.53,-0.59 0.54,-2.54 -0.21,-4.75 -1.53,-6.89 -0.71,-1.16 -0.35,-2.44 -0.03,-3.68 0.26,-1.03 0.56,-2.07 0.62,-3.12 0.04,-0.62 -0.32,-1.28 -0.55,-1.9 -0.04,-0.1 -0.32,-0.14 -0.49,-0.16 -0.06,0 -0.2,0.09 -0.21,0.15 -0.09,0.47 -0.17,0.95 -0.24,1.42 -0.15,1.05 -0.16,2.15 -0.46,3.15 -0.61,2.05 -1.36,4.06 -1.02,6.26 0.03,0.18 -0.01,0.41 -0.11,0.56 -0.15,0.23 -0.36,0.52 -0.59,0.56 -0.21,0.03 -0.61,-0.2 -0.67,-0.39 -0.18,-0.65 -0.31,-1.32 -0.33,-1.99 -0.04,-0.97 0.03,-1.94 0.04,-2.91 0,-0.29 0.03,-0.61 -0.09,-0.86 -0.11,-0.23 -0.4,-0.5 -0.61,-0.51 -0.22,0 -0.59,0.27 -0.63,0.47 -0.11,0.56 -0.04,1.15 -0.12,1.72 -0.08,0.57 -0.21,1.13 -0.38,1.67 -0.13,0.41 -0.71,0.51 -0.94,0.21 -0.58,-0.77 -1.2,-1.51 -1.71,-2.32 -0.35,-0.56 -0.65,-1.19 -0.8,-1.83 -0.38,-1.62 -0.52,-3.27 -0.2,-4.92 0.44,-2.31 -0.72,-4.37 -1.01,-6.57 -0.06,-0.47 -0.69,-0.9 -1.13,-1.27 -1.52,-1.29 -1,-2.62 -0.02,-3.5 1.07,-0.97 2.24,-1.92 3.53,-2.54 2.44,-1.18 4.94,-2.29 7.52,-3.11 5.35,-1.71 10.75,-3.28 16.17,-4.76 2.04,-0.56 4.12,-1.06 6.28,-1.13 1.54,-0.05 3.07,-0.41 4.6,-0.65 0.48,-0.07 0.95,-0.22 1.43,-0.27 2.42,-0.24 4.83,-0.54 7.26,-0.66 1.74,-0.09 3.5,0 5.24,0.16 2.51,0.23 4.94,0.31 7.49,-0.22 8.59,-1.81 17.33,-2.12 26.08,-1.97 1.85,0.03 3.69,0.03 5.54,0.11 4.88,0.2 9.66,1 14.28,2.58 2.69,0.92 5.12,2.31 7.05,4.48 1.01,1.14 1.63,2.39 1.74,3.91 0.23,3.12 -0.43,5.93 -2.46,8.43 -2.41,2.96 -5.16,5.51 -8.35,7.62 -2.51,1.66 -5,3.36 -7.49,5.04 -0.32,0.22 -0.67,0.42 -0.92,0.7 -0.37,0.4 -0.42,0.95 -0.02,1.3 0.49,0.44 1.07,0.85 1.69,1.06 1.46,0.51 3,0.79 4.44,1.35 2.35,0.92 4.68,1.91 6.95,3 2.27,1.1 4.46,2.36 6.7,3.54 1.41,0.75 2.19,0.45 2.59,-1.08 0.27,-1.03 0.42,-2.09 0.56,-3.15 0.3,-2.29 1.54,-3.97 3.43,-5.15 1.3,-0.81 2.54,-1.84 4.18,-1.95 0.48,-0.03 0.97,-0.09 1.45,-0.06 0.77,0.04 1.24,0.65 1.09,1.4 -0.16,0.76 -0.35,1.51 -0.57,2.26 -0.62,2.12 -0.37,4.27 0.18,6.31 1.62,6 4.12,11.68 6.71,17.32 0.08,0.18 0.16,0.37 0.29,0.51 1.76,1.9 2.28,4.45 3.51,6.63 0.91,1.61 1.47,3.39 1.22,5.3 -0.06,0.47 -0.11,0.99 -0.32,1.4 -1.17,2.26 -4.96,3.28 -7.14,1.85 -1.62,-1.06 -3.13,-2.29 -4.69,-3.44 -0.67,-0.5 -1.18,-1.47 -2.2,-1.11 -0.98,0.35 -0.94,1.36 -1.08,2.22 -0.46,2.66 -1.09,5.3 -0.86,8.04 0.02,0.19 -0.01,0.41 -0.1,0.56 -0.08,0.14 -0.27,0.3 -0.42,0.3 -0.14,0 -0.39,-0.17 -0.41,-0.29 -0.17,-1.15 -0.47,-2.31 -0.4,-3.44 0.08,-1.35 -0.11,-2.5 -1.04,-3.49 -0.59,-0.62 -0.6,-1.3 -0.45,-2.15 0.27,-1.6 0.33,-3.24 0.45,-4.87 0,-0.12 -0.22,-0.32 -0.37,-0.36 -0.16,-0.04 -0.44,0.03 -0.51,0.15 -0.21,0.31 -0.48,0.69 -0.46,1.03 0.09,1.44 -0.56,2.61 -1.13,3.85 -0.39,0.86 -0.51,1.85 -0.78,2.77 -0.17,0.58 0.28,1.32 -0.43,1.77 -0.17,-0.54 -0.44,-1.08 -0.51,-1.63 -0.17,-1.35 -0.23,-2.71 -0.38,-4.05 -0.02,-0.19 -0.33,-0.39 -0.54,-0.49 -0.08,-0.04 -0.37,0.16 -0.42,0.3 -0.16,0.45 -0.18,0.97 -0.39,1.39 -0.29,0.6 -0.57,1.33 -1.08,1.66 -1.76,1.13 -2.32,2.77 -2.39,4.72 -0.01,0.38 -0.14,0.75 -0.23,1.12 -0.02,0.06 -0.15,0.11 -0.23,0.12 -0.07,0 -0.21,-0.06 -0.21,-0.1 -0.04,-0.57 -0.18,-1.17 -0.07,-1.71 0.24,-1.14 0.61,-2.25 0.95,-3.36 0.32,-1.04 0.37,-2.02 0.07,-3.12 -0.62,-2.25 -0.75,-4.55 -0.57,-6.92 0.14,-1.9 -0.31,-3.84 -0.5,-5.76 -1.33,-1.88 -2.26,-4.09 -4.26,-5.43 -4.1,-2.76 -8,-5.86 -12.6,-7.81 -2.32,-0.98 -4.67,-1.95 -7.09,-2.61 -2.56,-0.7 -4.13,-1.09 -4.25,2.97 -0.07,2.33 -0.03,4.66 -0.08,7 -0.03,1.55 -0.06,3.11 -0.18,4.66 -0.42,5.3 -4.28,9.38 -9.04,9.94 -0.86,0.1 -1.7,0.43 -2.56,0.57 -1.57,0.25 -2.57,-0.86 -2.25,-2.46 0.99,-4.86 1.92,-9.72 1.58,-14.72 -0.05,-0.68 -0.05,-1.36 -0.1,-2.04 -0.12,-1.53 -0.52,-2.74 -2.2,-3.4 -1.47,-0.58 -1.55,-1.44 -0.72,-2.81 0.2,-0.33 0.39,-0.7 0.67,-0.95 1.55,-1.31 1.58,-2.98 1.28,-4.79 -0.53,-3.16 -1.05,-6.32 -1.49,-9.49 -0.41,-2.97 -0.71,-5.96 -1.07,-8.95 -0.41,-3.37 -0.84,-6.74 -1.29,-10.1 -0.05,-0.37 -0.18,-0.76 -0.38,-1.08 -0.31,-0.51 -0.76,-0.9 -1.42,-0.84 -0.69,0.06 -0.95,0.54 -1.12,1.15 -0.21,0.74 -0.27,1.65 -0.75,2.16 -1.2,1.3 -1.19,2.78 -1.13,4.36 0.09,2.43 0.17,4.86 0.15,7.28 0,0.74 -0.24,1.53 -0.59,2.19 -0.48,0.91 -1.52,0.87 -2.15,0.07 -0.46,-0.58 -0.6,-1.23 -0.43,-1.92 0.16,-0.66 0.44,-1.29 0.59,-1.94 0.41,-1.71 0.02,-3.29 -1.01,-4.69 -0.25,-0.34 -0.78,-0.56 -1.23,-0.66 -0.86,-0.2 -1.62,0.41 -1.56,1.24 0.05,0.77 0.28,1.52 0.36,2.29 0.12,1.14 -0.13,2.2 -1.29,2.67 -1.8,0.74 -2.07,2.08 -1.83,3.8 0.17,1.25 0.24,2.52 0.25,3.78 0,1.22 -0.67,1.94 -1.68,1.96 -1.04,0.02 -1.74,-0.67 -1.76,-1.86 -0.02,-0.97 0.08,-1.94 0.1,-2.91 0.03,-1.17 0.06,-2.33 0.05,-3.5 -0.03,-2.69 -1.63,-4.26 -3.91,-5.27 -0.36,-0.16 -0.97,-0.06 -1.34,0.15 -0.52,0.3 -0.83,0.9 -0.55,1.5 0.61,1.29 0.51,2.65 0.53,4.01 0.01,1.36 0.04,2.7 0.58,4 0.29,0.7 0.32,1.51 0.4,2.28 0.08,0.74 -0.2,1.35 -0.93,1.64 -0.7,0.28 -1.64,-0.02 -2.06,-0.68 -0.59,-0.9 -1,-1.87 -0.97,-3 0.04,-1.26 0,-2.53 0.01,-3.79 0.02,-2.57 -0.67,-5 -1.53,-7.38 -1.05,-2.9 -1.75,-3.23 -4.85,-2.71 -0.1,0.02 -0.19,0.02 -0.29,0.04 -1,0.2 -1.39,0.52 -1.39,1.54 0,2.33 -0.07,4.68 0.21,6.99 0.68,5.58 1.31,11.17 2.45,16.68 0.53,2.56 0.79,5.17 1.2,7.75 0.69,4.31 1.63,8.56 3.12,12.69 0.59,1.64 0.93,3.36 1.46,5.02 0.76,2.37 0.22,4.59 -1.4,6.23 -1.67,1.69 -2.15,3.59 -2.26,5.77 -0.02,0.38 -0.07,0.79 -0.23,1.12 -0.1,0.21 -0.44,0.43 -0.66,0.41 -0.22,-0.01 -0.57,-0.3 -0.59,-0.49 -0.07,-0.57 0.12,-1.18 -0.03,-1.72 -0.1,-0.37 -0.58,-0.86 -0.92,-0.89 -0.35,-0.03 -0.83,0.37 -1.09,0.71 -0.2,0.28 -0.18,0.74 -0.21,1.12 -0.07,0.66 0.04,1.51 -0.81,1.62 -0.24,0.03 -0.59,-0.85 -0.89,-1.31 -0.16,-0.24 -0.3,-0.5 -0.5,-0.71 -0.98,-1.05 -2.59,-0.69 -3,0.69 -0.16,0.55 -0.11,1.16 -0.24,1.72 -0.08,0.36 -0.27,0.72 -0.47,1.04 -0.23,0.36 -1.06,0.28 -1.27,-0.1 -0.14,-0.25 -0.3,-0.51 -0.34,-0.79 -0.37,-2.78 -0.68,-5.57 -1.09,-8.34 -0.38,-2.59 -0.83,-5.17 -1.3,-7.74 -0.64,-3.53 -1.42,-7.02 -1.69,-10.62 -0.38,-4.93 -1.13,-9.83 -1.48,-14.76 -0.23,-3.29 -0.04,-6.6 -0.04,-9.91 -0.03,0 -0.06,0 -0.09,0 z m 61.92,-10.14 c 0.13,-0.01 0.26,-0.03 0.39,-0.04 -0.15,-1.73 -0.48,-3.46 -0.42,-5.18 0.07,-1.92 -1,-3.07 -2.24,-4.19 -0.82,-0.74 -1.69,-0.9 -2.38,-0.48 -0.76,0.46 -0.94,1.22 -0.84,2.03 0.19,1.54 0.34,3.09 0.68,4.6 0.99,4.34 2.05,8.66 2.76,13.06 0.07,0.42 0.41,0.96 0.77,1.12 0.73,0.32 0.97,-0.35 1.2,-0.89 0.04,-0.09 0.06,-0.21 0.13,-0.26 0.15,-0.1 0.34,-0.24 0.49,-0.2 0.13,0.03 0.31,0.28 0.29,0.41 -0.28,1.78 0.23,3.65 -0.95,5.34 -0.69,0.99 0.05,2.18 1.3,2.32 0.65,0.08 1.36,0 2,-0.17 2.47,-0.69 4.62,-2.05 6.66,-3.53 1.77,-1.28 1.95,-2.31 0.86,-4.22 -0.77,-1.34 -1.06,-2.61 -0.76,-4.15 0.28,-1.41 0.24,-2.9 0.24,-4.36 0,-0.76 -0.23,-1.52 -0.4,-2.27 -0.03,-0.12 -0.3,-0.28 -0.44,-0.26 -0.16,0.02 -0.38,0.2 -0.41,0.35 -0.11,0.56 -0.21,1.14 -0.21,1.71 0.02,1.66 -0.08,3.26 -0.71,4.85 -0.54,1.34 -0.82,2.79 -0.69,4.28 0.03,0.36 -0.1,0.76 -0.23,1.11 -0.05,0.13 -0.3,0.27 -0.45,0.27 -0.14,0 -0.39,-0.18 -0.4,-0.3 -0.13,-1.53 -0.22,-3.07 -0.33,-4.6 -0.03,-0.38 0,-0.81 -0.16,-1.13 -0.14,-0.28 -0.51,-0.5 -0.82,-0.61 -0.1,-0.03 -0.47,0.35 -0.51,0.57 -0.14,0.86 -0.15,1.73 -0.28,2.59 -0.07,0.5 -0.71,0.79 -1.13,0.57 -0.34,-0.18 -0.62,-0.51 -0.98,-0.61 -1.02,-0.3 -1.27,-1.01 -1.35,-1.98 -0.16,-1.93 -0.43,-3.85 -0.65,-5.77 z m 22.05,1.03 c 0.38,-2.35 -0.61,-4.29 -2.58,-5.66 -1.26,-0.88 -2.69,-1.52 -4.09,-2.16 -0.76,-0.34 -1.62,0.14 -1.84,0.93 -0.16,0.55 -0.22,1.14 -0.23,1.71 -0.03,1.65 0,3.3 0,4.94 0,2.8 0.27,5.63 -0.71,8.35 -0.06,0.18 -0.06,0.38 -0.07,0.58 -0.08,1.02 0.72,1.69 1.66,1.36 0.36,-0.13 0.72,-0.3 1.05,-0.5 2.24,-1.41 4.18,-3.11 5.67,-5.34 0.85,-1.27 1.33,-2.57 1.15,-4.21 z m -19.99,-1.16 c 0,0 0.06,0 0.09,0 0,0.77 -0.01,1.53 0.01,2.3 0,0.17 0.16,0.33 0.25,0.49 0.11,-0.13 0.32,-0.25 0.32,-0.38 0.02,-1.63 0.02,-3.25 0,-4.88 0,-0.17 -0.16,-0.33 -0.25,-0.49 -0.1,0.13 -0.27,0.25 -0.28,0.38 -0.07,0.86 -0.1,1.72 -0.15,2.58 z m -78.53,11.58 c -0.12,-1.11 -0.18,-1.77 -0.29,-2.42 -0.02,-0.11 -0.27,-0.2 -0.42,-0.27 -0.03,-0.01 -0.19,0.12 -0.18,0.18 0.1,1.22 0.22,2.43 0.34,3.64 0,0.06 0.15,0.16 0.17,0.15 0.14,-0.09 0.35,-0.2 0.36,-0.32 0.04,-0.47 0.02,-0.94 0.02,-0.96 z"
         id="path12"
         style="fill:#ffffff;fill-opacity:1" />
      <path
         d="m 847.7,795.29 c 0,1.29 0.02,2.84 0,4.39 -0.03,1.5 -0.52,2.85 -1.43,4.05 -3.31,4.34 -7.45,7.61 -12.58,9.56 -2.24,0.85 -4.36,-0.5 -4.56,-2.89 -0.08,-0.96 0.05,-1.94 0.11,-2.91 0.02,-0.29 0.16,-0.56 0.19,-0.85 0.38,-5.03 1.55,-9.97 1.61,-15.03 0.04,-3.3 0.4,-6.61 0.27,-9.9 -0.19,-4.93 0.07,-9.92 -1.13,-14.78 -0.07,-0.28 -0.13,-0.57 -0.16,-0.86 -0.33,-3.18 -0.65,-6.36 -0.98,-9.54 -0.03,-0.29 -0.04,-0.59 -0.1,-0.87 -1.13,-5.02 -1.39,-10.17 -2.39,-15.22 -0.48,-2.42 -0.1,-4.86 0.84,-7.14 0.99,-2.4 3.08,-3.67 5.32,-4.71 0.74,-0.34 1.55,-0.23 2.24,0.22 0.65,0.42 1.4,0.82 1.82,1.42 0.97,1.42 2.34,2.32 3.71,3.21 3.89,2.51 7.07,5.78 9.86,9.4 4.68,6.08 8.81,12.54 12.72,19.14 0.54,0.91 1.21,1.76 1.93,2.53 0.57,0.61 1.61,0.35 1.96,-0.39 0.16,-0.35 0.29,-0.73 0.34,-1.11 0.33,-2.4 0.63,-4.81 0.94,-7.21 0.44,-3.39 0.14,-6.77 -0.06,-10.16 -0.1,-1.74 -0.07,-3.5 -0.16,-5.24 -0.1,-2.07 0.68,-3.78 2.02,-5.3 1.91,-2.18 4.39,-3.53 7.01,-4.54 2.48,-0.96 4.59,-0.17 5.96,2.2 1.27,2.17 2.49,4.43 3.32,6.79 1.54,4.33 3.64,8.36 5.94,12.29 3.28,5.61 6.63,11.19 10.08,16.7 2.73,4.35 5.75,8.52 8.49,12.87 2.64,4.18 4.99,8.55 6.67,13.22 0.49,1.36 0.81,2.81 0.98,4.25 0.37,3.21 -0.81,5.95 -3.12,8.12 -1.26,1.18 -2.74,2.17 -4.23,3.05 -2.42,1.44 -5.04,2.47 -7.75,3.3 -2.37,0.72 -3.29,0.39 -4.34,-1.98 -0.7,-1.58 -1.33,-3.24 -1.69,-4.92 -0.77,-3.61 -2.73,-6.64 -4.58,-9.7 -3.62,-5.97 -7.36,-11.87 -11.07,-17.79 -0.67,-1.07 -1.41,-2.09 -2.17,-3.1 -0.14,-0.19 -0.58,-0.37 -0.74,-0.28 -0.3,0.15 -0.52,0.49 -0.72,0.79 -0.09,0.14 -0.07,0.39 -0.03,0.57 0.81,3.06 0.34,6.19 0.45,9.29 0.03,0.98 -0.06,1.94 -0.64,2.79 -0.41,0.61 -0.96,0.94 -1.72,0.87 -0.82,-0.08 -1.51,-0.58 -1.68,-1.38 -0.12,-0.56 -0.13,-1.16 -0.06,-1.72 0.15,-1.25 0.4,-2.49 0.58,-3.74 0.05,-0.37 0.08,-0.77 0.03,-1.14 -0.11,-0.73 -1,-1.1 -1.54,-0.64 -0.52,0.44 -1,0.93 -1.47,1.41 -1.23,1.24 -2.41,2.51 -4.09,3.21 -1.34,0.56 -1.79,1.67 -1.63,3.09 0.2,1.83 0.36,3.67 0.53,5.51 0.09,0.98 0.03,1.94 -0.67,2.75 -0.79,0.92 -1.93,1.05 -2.81,0.23 -0.88,-0.82 -1.53,-1.8 -1.45,-3.06 0.09,-1.35 0.2,-2.71 0.44,-4.05 0.26,-1.46 0,-2.77 -1.1,-3.73 -1.77,-1.54 -3.27,-3.31 -4.77,-5.09 -0.21,-0.26 -0.67,-0.48 -0.98,-0.45 -0.65,0.07 -0.54,0.7 -0.57,1.15 -0.02,0.38 -0.05,0.81 0.09,1.15 0.76,1.86 0.56,3.81 0.64,5.74 0.05,1.04 0.5,2.06 0.7,3.09 0.22,1.13 0.42,2.28 0.52,3.43 0.07,0.83 -0.42,1.47 -1.08,1.95 -0.79,0.57 -1.66,0.56 -2.39,-0.11 -0.97,-0.88 -1.57,-1.98 -1.73,-3.28 -0.07,-0.58 -0.11,-1.17 -0.05,-1.74 0.36,-3.52 -0.2,-6.96 -0.82,-10.39 -0.12,-0.64 -0.47,-1.25 -0.8,-1.83 -0.11,-0.19 -0.51,-0.32 -0.75,-0.28 -0.23,0.04 -0.41,0.33 -0.6,0.54 -0.06,0.06 -0.06,0.18 -0.07,0.28 -0.29,4.74 -0.58,9.48 -0.89,14.5 z"
         id="path13"
         style="fill:#ffffff;fill-opacity:1" />
      <path
         d="m 869.42,673.46 c 0.33,4.75 -1.07,9.04 -3.32,13.09 -1.51,2.74 -3.53,5.1 -5.99,7.01 -1.62,1.26 -2.33,2.74 -2.24,4.75 0.08,1.84 0.05,3.69 0.01,5.53 -0.01,0.77 -0.11,1.55 -0.27,2.31 -0.18,0.83 -0.94,1.27 -1.76,1.14 -0.86,-0.14 -1.43,-0.73 -1.37,-1.6 0.05,-0.67 0.28,-1.32 0.4,-1.98 0.19,-1.04 0.37,-2.08 0.5,-3.13 0.05,-0.37 -0.03,-0.78 -0.12,-1.15 -0.2,-0.81 -1.04,-1.54 -1.61,-1.46 -0.59,0.08 -1.61,0.91 -1.54,1.56 0.24,2.38 -0.73,3.85 -2.96,4.68 -0.37,0.14 -0.65,0.95 -0.69,1.47 -0.09,1.35 -0.01,2.72 -0.02,4.08 0,0.58 0.03,1.17 -0.06,1.74 -0.15,1.01 -1.31,1.56 -2.25,1.13 -1.13,-0.52 -1.72,-1.69 -1.41,-2.86 0.22,-0.84 0.57,-1.66 0.68,-2.51 0.14,-1.05 0.12,-2.13 0.13,-3.19 0.04,-2.07 -1.14,-3.2 -2.98,-3.8 -1.13,-0.37 -2.3,0.31 -2.25,1.51 0.12,2.5 -0.44,5.06 0.51,7.51 0.14,0.35 0.2,0.75 0.22,1.13 0.05,0.92 -0.59,1.74 -1.44,1.93 -0.72,0.16 -1.55,-0.23 -1.96,-0.96 -0.65,-1.16 -0.51,-2.43 -0.5,-3.7 0.02,-2.13 0.06,-4.27 -0.09,-6.39 -0.13,-1.9 -1.02,-3.38 -2.53,-4.7 -1.88,-1.65 -3.44,-3.66 -5.12,-5.53 -0.32,-0.36 -0.52,-0.82 -0.81,-1.21 -0.96,-1.28 -1.94,-2.49 -3.84,-1.87 -0.24,0.08 -0.56,-0.07 -0.84,-0.15 -0.44,-0.13 -0.74,-0.82 -0.49,-1.19 0.21,-0.32 0.5,-0.59 0.73,-0.89 1.17,-1.54 1.13,-2.71 -0.17,-4.09 -0.33,-0.35 -0.76,-0.59 -1.17,-0.86 -0.64,-0.42 -0.97,-0.91 -0.64,-1.7 0.57,-1.34 0.27,-2.67 -0.12,-3.99 -1.15,-3.92 -1.89,-7.91 -2.31,-11.97 -0.3,-2.92 -0.1,-5.82 0.12,-8.72 0.13,-1.73 0.16,-3.44 0.71,-5.15 1.03,-3.2 2.6,-6.06 4.74,-8.59 2.39,-2.83 5.09,-5.35 8.28,-7.27 2.89,-1.74 6.03,-2.61 9.42,-2.45 1.7,0.08 3.22,0.82 4.63,1.63 4.05,2.32 7.71,5.2 10.85,8.67 2.37,2.62 4.05,5.7 5.45,8.91 2.26,5.17 4.01,10.49 4.85,16.11 0.36,2.41 0.79,4.78 0.61,7.19 z M 833.3,649.45 c 0.46,3.95 1.11,8.42 2.53,12.78 1.64,5.01 3.95,9.66 6.5,14.24 1.18,2.13 3.08,3.1 4.92,4.28 0.53,0.34 1.1,0.23 1.57,-0.28 0.38,-0.41 0.76,-0.88 1.23,-1.14 0.23,-0.13 0.74,0.08 1.03,0.27 0.16,0.11 0.19,0.53 0.14,0.77 -0.15,0.64 -0.6,1.29 -0.51,1.87 0.12,0.83 0.55,1.66 0.99,2.4 0.21,0.35 0.79,0.71 1.15,0.66 0.37,-0.05 0.88,-0.56 0.95,-0.93 0.21,-1.13 0.45,-2.32 0.3,-3.44 -0.58,-4.21 -0.85,-8.5 -2.33,-12.54 -0.96,-2.62 -1.66,-5.33 -2.84,-7.89 -1.36,-2.93 -3.33,-5.44 -5.14,-8.07 -2.01,-2.92 -4.73,-5.11 -7.72,-6.95 -1.31,-0.81 -2.53,-0.19 -2.75,1.35 -0.09,0.66 -0.02,1.35 -0.02,2.6 z"
         id="path14"
         style="fill:#ffffff;fill-opacity:1" />
      <path
         d="m 658.87,628.08 c 2.21,0.24 4.44,0.41 6.63,0.75 1.73,0.27 2.28,0.98 2.51,2.7 0.07,0.48 0.11,0.97 0.07,1.45 -0.13,1.61 0.75,2.67 2.08,3.16 1.28,0.47 2.5,0.94 3.59,1.8 0.56,0.45 1.29,0.4 1.87,-0.14 0.21,-0.2 0.39,-0.43 0.6,-0.64 0.44,-0.44 0.97,-0.77 1.54,-0.33 0.56,0.43 0.47,1.02 0.07,1.54 -0.4,0.54 -0.99,1 -0.76,1.78 0.32,1.11 0.55,2.26 1.06,3.28 0.41,0.82 1.39,0.92 2.27,1.09 1.28,0.25 1.84,1.48 1.22,2.64 -0.19,0.35 -0.76,0.69 -1.15,0.68 -0.65,0 -1.33,-0.21 -1.94,-0.47 -1.16,-0.49 -2.28,-1.08 -3.42,-1.61 -0.44,-0.2 -0.89,-0.38 -1.36,-0.51 -0.58,-0.16 -1.22,0.33 -1.19,0.93 0.03,0.48 0.07,0.98 0.24,1.42 2.8,7.44 5.61,14.88 8.43,22.31 0.48,1.27 1,2.52 1.57,3.75 0.66,1.44 1.73,2.57 2.94,3.57 0.53,0.43 1.09,0.82 1.66,1.19 0.91,0.59 1.35,1.34 1.04,2.46 -0.63,2.29 -0.55,4.64 -0.22,6.95 0.36,2.5 -0.49,4.24 -2.42,5.82 -2.11,1.73 -4.53,2.72 -7.08,3.21 -1.73,0.34 -3.14,0.78 -4.15,2.26 -0.16,0.24 -0.64,0.27 -0.97,0.4 -0.11,-0.35 -0.28,-0.69 -0.31,-1.05 -0.12,-1.06 -0.15,-2.13 -0.29,-3.18 -0.03,-0.22 -0.4,-0.61 -0.5,-0.58 -0.31,0.1 -0.74,0.32 -0.81,0.58 -0.26,0.93 -0.39,1.9 -0.57,2.85 -0.07,0.38 -0.08,0.82 -0.28,1.11 -0.18,0.27 -0.58,0.45 -0.92,0.51 -0.13,0.03 -0.49,-0.36 -0.49,-0.56 -0.03,-1.84 -0.17,-3.7 0.51,-5.46 0.48,-1.23 0.65,-2.43 0.16,-3.67 -0.06,-0.16 -0.27,-0.39 -0.39,-0.38 -0.23,0.02 -0.56,0.13 -0.66,0.31 -0.28,0.51 -0.57,1.05 -0.66,1.61 -0.43,2.76 -2.16,4.96 -3.15,7.47 -0.1,0.25 -0.33,0.5 -0.57,0.63 -0.22,0.13 -0.57,0.2 -0.8,0.11 -0.23,-0.09 -0.49,-0.36 -0.54,-0.6 -0.08,-0.36 -0.13,-0.83 0.03,-1.13 0.62,-1.19 0.47,-2.45 0.5,-3.71 0.06,-2.33 0.16,-4.66 0.24,-6.99 0.03,-0.86 0.3,-1.88 -0.81,-2.23 -1.07,-0.34 -2.17,-0.16 -2.88,0.82 -0.39,0.53 -0.72,1.17 -0.87,1.81 -0.45,1.88 -0.78,3.79 -1.18,5.68 -0.1,0.46 -0.23,0.96 -0.51,1.32 -0.18,0.23 -0.67,0.31 -1,0.28 -0.19,-0.02 -0.51,-0.42 -0.49,-0.61 0.14,-1.04 0.4,-2.07 0.58,-3.11 0.19,-1.13 0.39,-2.27 0.48,-3.42 0.05,-0.65 -0.71,-0.92 -1.27,-0.51 -1.4,1.02 -2.31,2.37 -2.51,4.1 -0.48,4.34 -1.39,8.62 -1.32,13.02 0.02,1.53 -0.3,3.08 -0.56,4.6 -0.04,0.22 -0.54,0.44 -0.86,0.49 -0.14,0.02 -0.47,-0.37 -0.49,-0.6 -0.26,-3.01 -0.14,-6.01 0.22,-9.01 0.21,-1.73 0.54,-3.45 0.71,-5.19 0.08,-0.85 -0.01,-1.74 -0.17,-2.58 -0.05,-0.28 -0.52,-0.67 -0.82,-0.69 -0.43,-0.03 -0.94,0.14 -1.29,0.4 -0.28,0.2 -0.35,0.67 -0.53,1.01 -0.74,1.37 -1.06,1.42 -2.06,0.33 -0.07,-0.07 -0.11,-0.16 -0.18,-0.23 -2.36,-2.47 -2.31,-2.09 -1.15,-5.3 0.13,-0.36 0.33,-0.71 0.42,-1.08 0.3,-1.28 -0.14,-2.29 -1.31,-2.94 -0.68,-0.37 -1.45,-0.56 -2.12,-0.94 -1.14,-0.64 -1.29,-1.7 -0.44,-2.66 0.79,-0.89 1.7,-1.58 2.91,-1.82 0.66,-0.13 1.33,-0.32 1.94,-0.59 1.01,-0.44 1.75,-1.14 2.12,-2.26 1.11,-3.32 2.18,-6.63 2.7,-10.11 0.45,-2.97 0.97,-5.93 1.44,-8.9 0.62,-3.96 0.19,-7.94 0.15,-11.92 -0.01,-1.39 -1.59,-2.32 -2.96,-1.98 -0.83,0.21 -1.67,0.49 -2.51,0.52 -0.84,0.04 -1.33,-1.08 -0.78,-1.72 0.44,-0.51 0.98,-0.92 1.52,-1.33 1.75,-1.35 3.14,-2.88 3.24,-5.26 0.02,-0.55 0.27,-1.14 0.56,-1.63 0.8,-1.35 1.45,-2.71 1.22,-4.37 -0.07,-0.52 0.41,-0.85 0.98,-0.81 1.55,0.1 3.09,0.23 4.64,0.34 0,-0.1 0.02,-0.19 0.03,-0.29 z m 1.94,46.83 c -0.16,2.29 0.51,3.1 2.06,3.23 0.47,0.04 0.97,0.02 1.43,-0.08 1.2,-0.25 1.81,-1.15 1.48,-2.35 -0.41,-1.48 -0.94,-2.92 -1.48,-4.36 -0.16,-0.44 -0.48,-0.83 -0.78,-1.2 -0.36,-0.44 -1.3,-0.33 -1.46,0.2 -0.52,1.75 -0.97,3.51 -1.25,4.55 z"
         id="path15"
         style="fill:#ffffff;fill-opacity:1" />
      <path
         d="m 300.25,661.55 c 0.25,-2.34 0.05,-4.65 -0.36,-6.95 -0.14,-0.76 -0.36,-1.56 -0.24,-2.3 0.35,-2.16 -0.07,-4.25 -0.27,-6.37 -0.11,-1.17 -0.51,-1.94 -1.55,-2.57 -1.41,-0.85 -1.51,-2.17 -0.43,-3.38 1.31,-1.48 2.96,-2.53 4.73,-3.33 2.74,-1.24 5.56,-2.24 8.48,-3.03 4.4,-1.18 8.73,-2.61 13.08,-3.95 2.42,-0.74 4.86,-1.33 7.42,-1.38 1.26,-0.02 2.52,-0.21 3.76,-0.44 4.31,-0.82 8.65,-1.3 13.03,-1.16 2.8,0.09 5.64,0.23 8.25,1.5 0.35,0.17 0.74,0.27 1.06,0.47 2.41,1.54 2.84,3.56 1.1,5.89 -0.63,0.85 -0.91,1.66 -0.83,2.68 0.2,2.41 0.37,4.83 0.56,7.25 0.09,1.19 -0.08,2.32 -0.71,3.36 -0.33,0.54 -0.75,0.89 -1.42,0.77 -0.66,-0.12 -1.03,-0.62 -1.07,-1.22 -0.05,-0.76 0,-1.55 0.13,-2.3 0.28,-1.56 0.28,-3.1 -0.18,-4.61 -0.14,-0.45 -0.34,-0.93 -0.63,-1.29 -0.46,-0.57 -1.11,-0.76 -1.84,-0.51 -0.64,0.22 -1.02,0.87 -0.92,1.64 0.09,0.67 0.29,1.33 0.38,2 0.15,1.06 -0.25,1.91 -1.15,2.49 -0.32,0.21 -0.69,0.34 -1.05,0.5 -0.96,0.42 -1.15,1.14 -1.04,2.14 0.2,1.73 0.32,3.48 0.37,5.22 0.03,1.04 -0.44,1.58 -1.22,1.7 -0.97,0.15 -1.69,-0.27 -2.07,-1.19 -0.46,-1.12 -0.49,-2.23 -0.15,-3.41 0.52,-1.83 0.36,-3.66 -0.31,-5.43 -0.62,-1.63 -1.81,-2.74 -3.37,-3.44 -0.78,-0.35 -1.64,0.15 -1.76,0.98 -0.05,0.38 -0.07,0.78 -0.03,1.16 0.31,2.7 0.33,5.43 1.15,8.06 0.17,0.55 0.29,1.14 0.3,1.71 0.02,0.73 -0.34,1.3 -1.06,1.58 -0.74,0.28 -1.42,0.07 -1.82,-0.52 -0.42,-0.61 -0.77,-1.35 -0.91,-2.08 -0.14,-0.75 0,-1.55 0.04,-2.32 0.13,-2.95 -0.67,-5.77 -1.32,-8.6 -0.26,-1.11 -0.91,-2.14 -1.43,-3.17 -0.16,-0.32 -0.48,-0.72 -0.8,-0.78 -1.44,-0.3 -2.91,-0.29 -4.22,0.47 -0.73,0.42 -0.96,1.2 -0.9,2.03 0.11,1.45 0.23,2.9 0.37,4.35 0.21,2.22 0.38,4.45 0.67,6.66 0.4,2.97 0.88,5.94 1.35,8.9 0.37,2.3 0.76,4.59 1.17,6.88 0.57,3.24 1.09,6.5 1.78,9.72 0.4,1.89 1.08,3.71 1.65,5.56 0.57,1.85 1.19,3.69 1.73,5.56 0.21,0.74 0.26,1.52 0.35,2.29 0.19,1.65 -0.24,3.11 -1.5,4.22 -1.57,1.38 -2.2,3.12 -2.35,5.14 -0.06,0.85 -0.35,1.69 -0.62,2.51 -0.06,0.18 -0.54,0.42 -0.69,0.35 -0.3,-0.15 -0.72,-0.5 -0.71,-0.76 0.01,-0.66 0.31,-1.32 0.34,-1.98 0.02,-0.52 -0.36,-0.95 -0.92,-0.88 -0.31,0.04 -0.7,0.32 -0.85,0.6 -0.22,0.42 -0.21,0.94 -0.37,1.4 -0.18,0.53 -0.32,1.4 -0.67,1.5 -0.93,0.28 -0.84,-0.81 -1.23,-1.27 -0.25,-0.29 -0.49,-0.61 -0.78,-0.85 -0.74,-0.61 -1.82,-0.44 -2.23,0.42 -0.41,0.87 -0.66,1.81 -1.05,2.69 -0.08,0.19 -0.49,0.35 -0.72,0.33 -0.23,-0.03 -0.6,-0.27 -0.63,-0.48 -0.28,-1.42 -0.48,-2.86 -0.71,-4.29 -0.58,-3.53 -1.17,-7.06 -1.76,-10.6 -0.35,-2.1 -0.75,-4.2 -1.04,-6.31 -0.59,-4.22 -1.21,-8.44 -1.67,-12.68 -0.29,-2.6 -0.34,-5.23 -0.45,-7.85 -0.16,-3.78 -0.32,-7.57 -0.38,-11.35 -0.03,-1.94 0.15,-3.87 0.23,-5.81 0.02,-0.49 0.06,-0.97 0.06,-1.46 -0.02,-1.98 -0.87,-2.67 -2.74,-2.24 -1.36,0.31 -1.92,0.99 -1.93,2.48 -0.03,3.4 -0.02,6.8 -0.04,10.2 -0.01,1.94 -0.03,3.89 -0.08,5.83 -0.04,1.35 -0.01,2.7 -0.78,3.94 -0.54,0.88 -0.28,1.87 -0.12,2.84 0.12,0.75 0.09,1.53 0.08,2.29 0,0.12 -0.26,0.3 -0.42,0.33 -0.15,0.03 -0.45,-0.06 -0.48,-0.17 -0.19,-0.64 -0.56,-1.35 -0.42,-1.92 0.51,-2.12 -0.14,-4 -0.84,-5.93 -0.26,-0.7 -0.33,-1.5 -0.32,-2.25 0.02,-1.45 0.2,-2.91 0.22,-4.36 0,-0.56 -0.22,-1.12 -0.36,-1.68 -0.02,-0.07 -0.16,-0.16 -0.23,-0.14 -0.16,0.04 -0.44,0.11 -0.45,0.2 -0.15,0.85 -0.32,1.71 -0.37,2.57 -0.08,1.37 -0.18,2.66 -1.07,3.85 -0.42,0.56 -0.47,1.44 -0.56,2.19 -0.08,0.66 0.03,1.35 0,2.02 0,0.13 -0.21,0.33 -0.36,0.37 -0.15,0.03 -0.45,-0.06 -0.49,-0.16 -0.52,-1.43 -1.48,-2.79 -0.63,-4.43 0.11,-0.22 0.06,-0.56 -0.02,-0.82 -0.04,-0.14 -0.27,-0.29 -0.43,-0.32 -0.16,-0.03 -0.45,0.05 -0.5,0.16 -0.15,0.35 -0.19,0.74 -0.31,1.11 -0.13,0.36 -0.32,0.99 -0.47,0.99 -1.85,-0.03 -1.77,2.11 -3.07,2.66 l 0.07,0.06 z m 1.76,-10.8 c 0,-0.09 0.03,-0.47 -0.01,-0.84 -0.02,-0.21 -0.16,-0.41 -0.25,-0.61 -0.04,0.18 -0.12,0.36 -0.12,0.54 0,0.85 0.02,1.69 0.04,2.54 0,0.18 0.06,0.36 0.1,0.55 0.04,-0.16 0.11,-0.31 0.13,-0.47 0.04,-0.47 0.06,-0.94 0.11,-1.69 z"
         id="path16"
         style="fill:#ffffff;fill-opacity:1" />
      <path
         d="m 598.2,645.13 c 0.03,-0.68 0.1,-1.36 0.08,-2.04 -0.01,-0.48 -0.04,-1.01 -0.26,-1.41 -0.27,-0.48 -0.74,-1.16 -1.14,-1.16 -0.63,-0.01 -0.79,0.77 -0.79,1.35 0,2.67 -1.04,5.12 -1.66,7.66 -0.09,0.36 -0.31,0.7 -0.51,1.02 -0.25,0.4 -1.08,0.33 -1.21,-0.12 -0.21,-0.74 -0.39,-1.5 -0.48,-2.26 -0.45,-3.95 -0.87,-7.9 -1.29,-11.86 -0.15,-1.42 -0.81,-2.57 -1.82,-3.54 -3.31,-3.18 -2.95,-5.13 -0.34,-8.59 1.65,-2.19 4.47,-3.06 6.96,-1.61 1.76,1.02 3.64,1.83 5.48,2.69 3.27,1.52 6.75,2.37 10.26,3.14 1.61,0.35 3.21,0.76 4.83,1.08 2.57,0.51 5.14,0.98 7.72,1.44 4.79,0.86 9.45,2.12 13.74,4.52 2.26,1.27 3.8,3.3 5.47,5.17 0.23,0.26 0.32,0.71 0.36,1.08 0.49,4.45 -0.58,8.39 -3.47,11.92 -4.32,5.26 -9.49,9.4 -15.5,12.55 -0.34,0.18 -0.71,0.32 -1.05,0.51 -1.05,0.59 -1.47,1.5 -1.34,2.68 0.6,5.42 0.5,10.85 0.43,16.28 -0.02,1.75 0.03,3.5 0.16,5.24 0.17,2.26 -0.1,4.48 -0.66,6.64 -0.45,1.72 -0.73,3.4 -0.51,5.17 0.07,0.56 -0.07,1.15 -0.16,1.72 -0.02,0.09 -0.29,0.17 -0.46,0.2 -0.06,0.01 -0.19,-0.1 -0.21,-0.17 -0.1,-0.46 -0.32,-0.96 -0.23,-1.39 0.37,-1.87 0.14,-3.54 -0.74,-5.3 -0.97,-1.95 -0.82,-4.2 -0.29,-6.29 0.27,-1.07 0,-1.9 -0.4,-2.78 -0.06,-0.13 -0.29,-0.27 -0.44,-0.26 -0.15,0 -0.38,0.17 -0.41,0.3 -0.11,0.57 -0.19,1.15 -0.22,1.73 -0.1,1.74 -0.29,3.42 -1,5.09 -0.47,1.1 -0.34,2.47 -0.47,3.71 -0.05,0.47 -0.08,0.95 -0.18,1.41 -0.03,0.13 -0.3,0.28 -0.45,0.27 -0.15,0 -0.41,-0.2 -0.42,-0.32 -0.05,-0.77 -0.03,-1.54 -0.07,-2.31 -0.08,-1.35 -0.18,-2.7 -0.31,-4.05 -0.01,-0.12 -0.25,-0.29 -0.41,-0.31 -0.17,-0.03 -0.43,0.02 -0.52,0.13 -0.24,0.29 -0.49,0.61 -0.59,0.96 -0.13,0.46 -0.04,0.98 -0.17,1.44 -0.12,0.44 -0.27,1.03 -0.6,1.22 -0.58,0.32 -0.75,-0.36 -1.01,-0.73 -0.06,-0.08 -0.09,-0.18 -0.17,-0.23 -0.15,-0.11 -0.39,-0.31 -0.46,-0.26 -0.21,0.14 -0.49,0.36 -0.52,0.58 -0.26,1.72 -0.46,3.45 -0.7,5.18 -0.04,0.27 -0.19,0.55 -0.36,0.77 -0.09,0.11 -0.33,0.11 -0.51,0.11 -0.07,0 -0.18,-0.12 -0.2,-0.2 -0.05,-0.28 -0.13,-0.58 -0.08,-0.85 0.33,-1.71 0.78,-3.4 1.02,-5.12 0.16,-1.13 0.2,-2.34 -0.03,-3.45 -0.36,-1.74 -0.3,-3.46 -0.28,-5.21 0.03,-1.92 -0.15,-3.86 -0.39,-5.77 -0.08,-0.61 -0.63,-1.18 -1.03,-1.71 -0.59,-0.78 -0.75,-1.59 -0.3,-2.45 1.2,-2.3 0.64,-4.29 -0.91,-6.19 -0.95,-1.17 -1.31,-2.52 -1.25,-4.07 0.09,-2.53 -0.22,-5.03 -0.93,-7.49 -1.02,-3.53 -1.96,-7.09 -2.96,-10.63 -0.18,-0.65 -0.45,-1.28 -0.75,-1.89 -0.05,-0.1 -0.57,-0.12 -0.63,-0.02 -0.36,0.55 -0.49,1.51 -1.3,1.36 -0.97,-0.17 -0.82,-1.18 -0.86,-1.93 -0.04,-0.77 0,-1.55 0,-2.33 -0.02,0 -0.05,0 -0.07,0 z m 23.05,13.97 c 2.48,-0.41 5.5,-1.18 8.03,-3.07 1.38,-1.03 1.94,-2.59 1.48,-4.41 -0.51,-1.97 -1.57,-3.59 -3.24,-4.66 -3.8,-2.43 -7.96,-3.99 -12.39,-4.82 -1.25,-0.23 -1.85,0.33 -1.75,1.57 0.04,0.48 0.1,0.97 0.25,1.43 1.4,4.34 3.01,8.6 4.93,12.74 0.43,0.92 1.13,1.27 2.71,1.23 z m -9.9,30.82 c 0,0.67 0,0.96 0,1.25 0,0.09 0,0.19 0.03,0.28 0.03,0.08 0.08,0.21 0.14,0.21 0.08,0 0.23,-0.06 0.24,-0.12 0.2,-0.92 0.4,-1.84 0.56,-2.76 0.02,-0.12 -0.18,-0.37 -0.32,-0.4 -0.13,-0.03 -0.42,0.12 -0.44,0.24 -0.12,0.55 -0.18,1.12 -0.21,1.31 z"
         id="path17"
         style="fill:#ffffff;fill-opacity:1" />
      <path
         d="m 110.08,663.21 c -0.03,4.47 -0.34,8.91 -1.32,13.29 -0.42,1.9 0.25,2.78 2.21,2.77 1.36,0 2.74,-0.06 4.06,-0.32 4.06,-0.78 8.05,-0.7 12.14,0.03 3.16,0.56 6.31,1.04 9.34,2.13 0.91,0.33 1.8,0.73 2.64,1.22 1.51,0.86 2.38,2.26 2.9,3.87 0.11,0.34 0.05,0.76 0.01,1.14 -0.02,0.18 -0.14,0.36 -0.22,0.54 -1.19,2.81 -5.87,6.16 -8.91,6.37 -1.18,0.08 -2.3,-0.08 -3.39,-0.63 -1.81,-0.92 -3.67,-1.76 -5.52,-2.63 -0.53,-0.25 -1.05,-0.52 -1.59,-0.71 -0.56,-0.2 -1.24,0.11 -1.42,0.69 -0.14,0.45 -0.31,0.99 -0.18,1.4 0.41,1.33 -0.24,2.48 -0.48,3.7 -0.14,0.72 -0.89,1.1 -1.58,0.99 -0.77,-0.12 -1.41,-0.87 -1.32,-1.67 0.14,-1.25 0.36,-2.49 0.51,-3.73 0.1,-0.8 -0.06,-1.54 -0.6,-2.18 -0.48,-0.57 -1.05,-0.84 -1.8,-0.65 -0.67,0.17 -1.07,0.71 -1.07,1.54 0,0.29 0.1,0.57 0.15,0.86 0.15,0.9 -0.3,1.49 -1.01,1.93 -0.33,0.2 -0.71,0.31 -1.07,0.45 -0.93,0.37 -1.33,1.08 -1.27,2.06 0.09,1.36 0.2,2.71 0.27,4.07 0.03,0.67 0.08,1.37 -0.05,2.02 -0.23,1.14 -1.68,1.49 -2.55,0.68 -0.62,-0.57 -0.86,-1.3 -0.85,-2.09 0.02,-0.97 0.02,-1.96 0.21,-2.9 0.27,-1.38 0.06,-2.7 -0.15,-4.05 -0.32,-2.11 -1.74,-3.16 -3.6,-3.77 -0.84,-0.27 -1.75,0.31 -1.63,1.13 0.36,2.49 -0.2,5.06 0.69,7.5 0.26,0.72 0.37,1.51 0.46,2.28 0.16,1.46 -0.41,2.38 -1.41,2.43 -1.04,0.05 -1.71,-0.63 -1.92,-2.12 -0.17,-1.15 -0.17,-2.32 -0.3,-3.48 -0.17,-1.54 -0.34,-3.08 -0.59,-4.61 -0.15,-0.91 -0.77,-1.35 -1.68,-1.2 -0.75,0.13 -1.46,0.45 -2.19,0.7 -0.73,0.24 -1.33,0.03 -1.86,-0.48 -0.53,-0.53 -0.74,-1.13 -0.44,-1.85 0.04,-0.09 0.06,-0.19 0.11,-0.27 1.76,-3.14 1.93,-6.66 2.38,-10.12 0.8,-6.18 0.92,-12.4 0.67,-18.61 -0.24,-6.01 -0.84,-12 -1.28,-18 -0.18,-2.52 -0.36,-5.04 -0.49,-7.56 -0.04,-0.77 0.01,-1.57 0.2,-2.31 0.64,-2.56 1.66,-3.43 4.63,-3.35 1.02,0.03 1.78,0.57 2.42,1.42 2.02,2.68 3.37,5.69 4.22,8.9 0.84,3.18 1.31,6.45 2.17,9.63 0.79,2.93 0.87,5.95 1.34,8.91 0.24,1.51 0.04,3.1 0.04,4.65 z"
         id="path18"
         style="fill:#ffffff;fill-opacity:1" />
      <path
         d="m 884.14,662.36 c 0,1.85 0.05,3.69 -0.02,5.54 -0.05,1.35 -0.27,2.69 -0.41,4.04 -0.2,1.83 -0.47,3.66 -0.59,5.5 -0.09,1.37 0.36,1.86 1.64,1.84 1.65,-0.04 3.31,-0.09 4.93,-0.37 3.96,-0.69 7.86,-0.78 11.84,0.09 2.16,0.47 4.37,0.84 6.57,1.19 2.51,0.39 4.6,1.52 6.53,3 1.88,1.44 2.22,4.07 0.76,5.99 -1.81,2.37 -4.24,4 -7.08,4.88 -1.29,0.4 -2.68,0.32 -3.98,-0.31 -2.1,-1 -4.23,-1.94 -6.35,-2.91 -2.32,-1.06 -2.91,-0.68 -2.93,1.93 0,0.78 0.07,1.57 -0.07,2.32 -0.1,0.53 -0.42,1.08 -0.79,1.48 -0.4,0.45 -1.06,0.63 -1.59,0.27 -0.35,-0.24 -0.74,-0.74 -0.73,-1.12 0.02,-1.25 0.13,-2.52 0.36,-3.75 0.18,-0.96 -0.14,-1.72 -0.61,-2.46 -0.42,-0.66 -1.26,-0.87 -2.07,-0.59 -0.67,0.23 -0.79,0.79 -0.82,1.39 -0.01,0.29 0.04,0.58 0.03,0.87 q -0.04,1.72 -1.84,2.4 c -1.29,0.49 -1.44,0.76 -1.32,2.16 0.13,1.55 0.23,3.1 0.31,4.64 0.02,0.48 0.04,1.01 -0.14,1.43 -0.18,0.4 -0.57,0.79 -0.96,0.99 -0.58,0.3 -1.22,0.05 -1.55,-0.44 -0.37,-0.54 -0.67,-1.2 -0.74,-1.84 -0.09,-0.85 0.1,-1.74 0.11,-2.61 0.02,-1.35 0.11,-2.72 -0.05,-4.06 -0.25,-2.1 -1.96,-3.88 -3.86,-4.24 -1.28,-0.25 -2.25,0.68 -1.72,1.86 0.68,1.5 0.6,2.99 0.61,4.55 0,1.04 0.36,2.08 0.54,3.13 0.13,0.75 0.3,1.51 0.31,2.27 0.01,0.62 -0.4,1.08 -0.99,1.31 -0.72,0.29 -1.41,0.12 -1.85,-0.45 -0.4,-0.51 -0.73,-1.18 -0.81,-1.81 -0.14,-1.15 -0.03,-2.33 -0.09,-3.49 -0.07,-1.25 -0.14,-2.52 -0.36,-3.75 -0.26,-1.42 -1.1,-1.92 -2.56,-1.62 -0.75,0.16 -1.47,0.49 -2.22,0.67 -0.9,0.22 -1.78,-0.55 -1.7,-1.48 0.04,-0.48 0.15,-0.97 0.34,-1.4 1.11,-2.4 1.46,-4.97 1.94,-7.55 0.7,-3.77 0.58,-7.53 0.77,-11.31 0.26,-5.05 0.17,-10.09 0.01,-15.14 -0.09,-2.71 0.02,-5.44 -0.7,-8.11 -0.2,-0.73 -0.08,-1.55 -0.15,-2.32 -0.23,-2.51 -0.42,-5.03 -0.73,-7.53 -0.21,-1.76 -0.12,-3.45 0.38,-5.17 0.75,-2.57 4.76,-3.61 6.4,-1.51 0.77,0.99 1.63,1.95 2.18,3.06 1.86,3.75 2.98,7.77 3.91,11.84 0.56,2.45 1.04,4.92 1.53,7.39 0.13,0.66 0.25,1.34 0.26,2.01 0.03,2.43 0.01,4.86 0.01,7.28 0.03,0 0.07,0 0.1,0 z"
         id="path19"
         style="fill:#ffffff;fill-opacity:1" />
      <path
         d="m 263.39,805.8 c 0.03,0.65 -0.71,1.26 -1.6,1.31 -0.84,0.05 -1.51,-0.48 -1.59,-1.28 -0.11,-1.03 0.51,-1.92 1.29,-1.86 0.96,0.07 1.86,0.94 1.9,1.82 z"
         id="path20"
         style="fill:#ffffff;fill-opacity:1" />
      <path
         d="m 254.9,809.37 c 0.02,0.83 -0.84,1.64 -1.72,1.62 -0.9,-0.02 -1.75,-0.78 -1.77,-1.6 -0.02,-0.81 0.82,-1.6 1.74,-1.63 0.83,-0.03 1.73,0.8 1.75,1.61 z"
         id="path21"
         style="fill:#ffffff;fill-opacity:1" />
      <path
         d="m 191.98,659.43 c 0.25,-1.19 0.55,-2.69 0.88,-4.18 0.03,-0.14 0.27,-0.23 0.41,-0.35 0.08,0.16 0.24,0.33 0.22,0.48 -0.19,1.62 -0.41,3.23 -0.64,4.84 -0.02,0.13 -0.33,0.36 -0.36,0.33 -0.19,-0.14 -0.36,-0.33 -0.5,-0.52 -0.05,-0.06 0,-0.19 0,-0.61 z"
         id="path22"
         style="fill:#ffffff;fill-opacity:1" />
      <path
         d="m 687.51,660.93 c -0.22,1.46 -0.42,2.88 -0.68,4.29 -0.03,0.18 -0.4,0.34 -0.63,0.43 -0.05,0.02 -0.35,-0.28 -0.33,-0.39 0.35,-1.67 0.73,-3.33 1.11,-4.99 0,-0.04 0.18,-0.09 0.26,-0.06 0.08,0.02 0.17,0.12 0.19,0.2 0.05,0.18 0.06,0.38 0.08,0.52 z"
         id="path23"
         style="fill:#ffffff;fill-opacity:1" />
      <path
         d="m 238.72,803.69 c -0.58,0.45 -0.95,0.89 -1.41,1.04 -0.53,0.17 -1.06,-0.43 -1.07,-1.04 -0.02,-0.71 0.65,-1.46 1.21,-1.22 0.44,0.18 0.74,0.7 1.27,1.22 z"
         id="path24"
         style="fill:#ffffff;fill-opacity:1" />
      <path
         d="m 265.84,698.76 c 0.38,0.7 0.84,1.17 0.82,1.6 -0.04,0.59 -0.58,0.97 -1.26,0.93 -0.58,-0.03 -1.13,-0.71 -0.86,-1.23 0.23,-0.44 0.72,-0.74 1.31,-1.3 z"
         id="path25"
         style="fill:#ffffff;fill-opacity:1" />
      <path
         d="m 171.14,804.69 c 0.08,0.87 -0.39,1.49 -1.09,1.6 -0.53,0.08 -0.91,-0.16 -1.02,-0.7 -0.18,-0.85 0.37,-1.62 1.15,-1.51 0.38,0.05 0.71,0.44 0.96,0.61 z"
         id="path26"
         style="fill:#ffffff;fill-opacity:1" />
      <path
         d="m 648.04,633.8 c -0.21,0.18 -0.49,0.62 -0.85,0.69 -0.67,0.14 -1.27,-0.4 -1.41,-1.07 -0.09,-0.42 0.35,-0.89 0.84,-0.91 0.78,-0.03 1.35,0.4 1.43,1.29 z"
         id="path27"
         style="fill:#ffffff;fill-opacity:1" />
      <path
         d="m 271.49,695.08 c 0.49,0.65 0.92,1.01 1.04,1.45 0.13,0.51 -0.56,1.05 -1.12,0.95 -0.49,-0.09 -0.96,-0.41 -0.86,-0.91 0.09,-0.44 0.5,-0.82 0.94,-1.48 z"
         id="path28"
         style="fill:#ffffff;fill-opacity:1" />
      <path
         d="m 300.19,661.49 c 0.14,1.4 0.55,2.84 -0.52,4.09 -0.03,0.04 -0.23,0.01 -0.25,-0.03 -0.8,-1.55 0.24,-2.73 0.83,-4 l -0.07,-0.06 z"
         id="path29"
         style="fill:#ffffff;fill-opacity:1" />
      <path
         d="m 205.15,660.27 c -0.14,0.3 -0.22,0.58 -0.38,0.79 -0.06,0.08 -0.41,0.06 -0.48,-0.03 -0.44,-0.6 -0.44,-1.58 0,-2.11 0.06,-0.07 0.43,-0.03 0.46,0.04 0.17,0.43 0.28,0.88 0.4,1.31 z"
         id="path30"
         style="fill:#ffffff;fill-opacity:1" />
      <path
         d="m 524.19,702.1 c -0.1,0.31 -0.15,0.59 -0.28,0.81 -0.06,0.1 -0.38,0.17 -0.46,0.11 -0.47,-0.41 -0.49,-1.6 -0.04,-2.03 0.06,-0.06 0.4,0 0.44,0.1 0.15,0.33 0.23,0.69 0.33,1.01 z"
         id="path31"
         style="fill:#ffffff;fill-opacity:1" />
      <path
         d="m 649.17,646.97 c -0.49,0.31 -0.75,0.59 -1.06,0.65 -0.43,0.09 -0.87,-0.49 -0.7,-0.95 0.11,-0.29 0.58,-0.73 0.7,-0.67 0.35,0.16 0.61,0.53 1.06,0.97 z"
         id="path32"
         style="fill:#ffffff;fill-opacity:1" />
      <path
         d="m 173.89,806.78 c 0.28,0.41 0.58,0.7 0.53,0.81 -0.13,0.28 -0.43,0.47 -0.66,0.7 -0.17,-0.19 -0.49,-0.42 -0.46,-0.57 0.06,-0.29 0.32,-0.53 0.6,-0.95 z"
         id="path33"
         style="fill:#ffffff;fill-opacity:1" />
      <path
         d="m 254.02,697.48 c -0.58,0.33 -0.86,0.59 -1.17,0.63 -0.19,0.02 -0.62,-0.39 -0.59,-0.47 0.12,-0.3 0.35,-0.72 0.6,-0.77 0.25,-0.05 0.58,0.28 1.16,0.61 z"
         id="path34"
         style="fill:#ffffff;fill-opacity:1" />
      <path
         d="m 462.82,675.52 c -0.13,0.1 -0.26,0.21 -0.39,0.31 -0.09,-0.23 -0.18,-0.47 -0.27,-0.7 0.16,-0.04 0.39,-0.17 0.48,-0.1 0.12,0.09 0.13,0.32 0.19,0.49 z"
         id="path35"
         style="fill:#ffffff;fill-opacity:1" />
      <path
         d="m 518.87,697.8 c -0.27,0.06 -0.49,0.17 -0.57,0.11 -0.11,-0.09 -0.19,-0.32 -0.15,-0.46 0.03,-0.12 0.24,-0.2 0.37,-0.29 0.11,0.21 0.22,0.41 0.35,0.65 z"
         id="path36"
         style="fill:#ffffff;fill-opacity:1" />
      <path
         d="m 241.74,806.44 c -0.27,0.22 -0.46,0.48 -0.65,0.49 -0.21,0.01 -0.5,-0.17 -0.62,-0.36 -0.19,-0.29 0.19,-0.73 0.57,-0.63 0.23,0.06 0.41,0.28 0.71,0.5 z"
         id="path37"
         style="fill:#ffffff;fill-opacity:1" />
      <path
         d="m 824.7,691.37 c 0.37,-0.13 0.61,-0.27 0.86,-0.29 0.13,-0.01 0.27,0.17 0.41,0.26 -0.14,0.19 -0.25,0.4 -0.42,0.54 -0.04,0.04 -0.27,-0.16 -0.85,-0.51 z"
         id="path38"
         style="fill:#ffffff;fill-opacity:1" />
      <path
         d="m 366.22,691.41 c 0.09,-0.1 0.21,-0.22 0.32,-0.35 0.12,0.12 0.33,0.24 0.32,0.35 0,0.13 -0.2,0.24 -0.32,0.36 -0.11,-0.12 -0.22,-0.24 -0.33,-0.36 z"
         id="path39"
         style="fill:#ffffff;fill-opacity:1" />
      <path
         d="m 148.18,691.91 -0.44,-0.26 c 0.15,-0.17 0.3,-0.35 0.46,-0.52 0.15,0.18 0.29,0.36 0.44,0.55 -0.15,0.08 -0.3,0.16 -0.46,0.24 z"
         id="path40"
         style="fill:#ffffff;fill-opacity:1" />
      <polygon
         points="232.47,796.26 232.36,796.42 232.3,796.23 "
         id="polygon40"
         style="fill:#ffffff;fill-opacity:1" />
    </g>
  </g>
</svg>
